<svg width="160" height="65" viewBox="0 0 160 65" fill="none" xmlns="http://www.w3.org/2000/svg">
<path d="M0 0.823013C0 4.79467 9.18812 13.5323 18.1386 18.2189C26.297 22.4288 33.1881 24.8118 42.7723 26.6388C49.901 27.9892 50.5347 28.3069 54.495 31.9608C61.5446 38.6332 74.2178 43.3992 89.505 45.3056C93.1485 45.7028 102.733 46.0999 110.733 46.0999H125.307L123.168 48.9595C120.396 52.6134 119.683 57.9355 121.505 60.7951C126.099 67.7852 139.089 65.8788 151.525 56.4262C157.228 52.1368 160 48.0857 160 44.0347C160 41.1751 159.525 40.4602 151.842 32.9934C142.495 23.8586 136.871 20.5224 129.901 20.0458C126.02 19.7281 125.149 19.9664 122.931 21.8728C120.713 23.6998 120.396 24.4941 120.396 27.8303C120.396 29.975 121.109 33.3112 121.98 35.3764C122.851 37.4417 123.564 39.4275 123.564 39.8247C123.564 41.0162 95.5247 40.6985 87.1287 39.3481C78.099 37.9977 67.0891 34.1849 62.4158 30.8488C58.6931 28.0686 58.3762 28.5452 65.901 25.8445C73.7426 23.1437 78.4158 18.1394 78.4158 12.6586C78.4158 5.66844 69.8614 0.98188 60.8317 3.12658C53.703 4.71524 49.0297 9.79896 48.0792 16.9479C47.8416 18.616 47.5248 20.2047 47.2871 20.443C46.495 21.1579 30.7327 17.4245 24.396 15.0416C17.6634 12.4203 8 6.38334 4.43564 2.49111C2.05941 0.0286865 0 -0.765648 0 0.823013ZM69.7822 10.355C74.9307 13.1352 65.8218 20.6813 57.2673 20.6813C54.8119 20.6813 54.6535 20.5224 54.6535 18.06C54.7327 14.8827 56.2376 12.0231 58.6931 10.6727C60.9901 9.4018 67.6436 9.24293 69.7822 10.355ZM135.842 27.7509C141.069 30.2927 154.455 42.2077 154.455 44.3524C154.455 46.4176 146.772 53.0106 141.149 55.7908C135.129 58.8092 128.713 59.3653 127.287 57.0617C126.574 56.0291 127.129 54.5993 130.139 50.151C132.198 47.0531 133.861 44.0347 133.861 43.3992C133.861 42.7637 132.594 40.6985 131.01 38.7921C126.812 33.7878 124.673 27.7509 126.495 26.0033C127.604 24.8118 131.327 25.5267 135.842 27.7509Z" fill="#DFEBF3"/>
</svg>
