<svg width="218" height="109" viewBox="0 0 218 109" fill="none" xmlns="http://www.w3.org/2000/svg">
<path d="M14.1496 1.44523C9.79971 6.64592 7.71667 12.3398 7.71667 19.4683C7.71667 25.8795 8.69693 29.0179 12.3729 34.4876C14.4559 37.6259 15.9263 39.0606 20.9501 42.7369C26.7091 46.9513 27.0767 47.31 27.6893 49.6861C29.9562 58.9218 43.3121 68.8749 61.8756 75.2413C78.6624 80.98 105.926 85.6426 123.632 85.7771C129.697 85.822 131.228 85.6875 131.719 85.1495C132.576 84.1183 131.535 83.939 122.222 83.3561C100.412 82.1008 78.6624 78.1554 62.7333 72.5961C50.4802 68.3817 40.3713 62.4189 35.0412 56.3215C32.9582 53.8557 30.385 49.3275 30.8751 48.924C31.0589 48.7895 33.2032 49.1481 35.6539 49.6861C40.9227 50.807 43.986 50.8518 48.1521 49.9551C52.502 49.0136 55.1977 46.8616 55.6265 43.9474C55.9941 40.9884 55.504 39.7779 53.2371 37.8949C50.664 35.7429 46.988 34.8014 42.148 35.0256C35.7151 35.3394 31.1815 37.5811 28.9759 41.4816C28.3632 42.5576 27.5055 43.4543 27.0154 43.4543C25.7901 43.4543 19.2959 38.3432 16.9065 35.4291C9.86098 27.0004 9.12579 15.0746 14.946 4.62841C16.1714 2.47639 16.9678 0.548553 16.784 0.369217C16.1714 -0.348114 15.4362 -0.0342789 14.1496 1.44523ZM46.6817 37.6259C49.5612 38.2536 52.6858 40.8091 52.6858 42.6024C52.6858 46.0994 48.8873 48.1618 42.2706 48.117C36.7567 48.117 31.2427 46.3236 31.2427 44.5303C31.2427 42.2886 34.1222 39.4641 37.5531 38.2536C41.0453 37.0879 43.1896 36.9534 46.6817 37.6259Z" fill="#DFEBF3"/>
<path d="M0.854855 17.675C-1.28945 21.4859 0.91612 30.6768 3.97941 30.6768C5.44979 30.6768 5.44979 30.0939 4.28574 21.7997C3.42802 15.6575 2.5703 14.6712 0.854855 17.675Z" fill="#DFEBF3"/>
<path d="M57.5876 61.7466C57.5876 62.9123 62.6726 66.5438 67.5126 68.8751C73.9455 71.9238 80.0721 73.4033 90.5486 74.3448C95.3273 74.7931 97.4103 74.6138 97.4103 73.7171C97.4103 72.9998 95.3886 72.417 88.8331 71.2513C77.1926 69.1441 69.1668 66.6334 62.6726 62.9123C58.9354 60.7602 57.5876 60.4912 57.5876 61.7466Z" fill="#DFEBF3"/>
<path d="M172.276 66.8573C171.541 67.5299 170.316 70.3544 168.478 75.5551L167.13 79.2314L157.266 82.0111C145.932 85.1943 144.584 85.7323 144.584 86.9428C144.584 88.3775 147.158 89.1845 155.551 90.3053C159.962 90.8881 163.822 91.471 164.189 91.6503C164.986 92.009 164.986 95.7302 164.128 102.052C163.332 107.97 163.577 108.463 167.436 108.463C168.784 108.463 178.219 106.759 188.328 104.652C198.498 102.59 208.668 100.572 211.058 100.169C216.143 99.3168 218.226 98.4202 217.981 97.2545C217.858 96.7613 215.224 94.7438 212.038 92.6815C208.852 90.6191 202.113 85.7323 197.089 81.7869C181.711 69.7715 180.425 68.83 178.342 67.5299C176.259 66.2297 173.379 65.9158 172.276 66.8573ZM183.611 75.1516C187.593 78.2899 193.474 82.8629 196.66 85.2839C199.846 87.705 202.542 89.9018 202.664 90.126C202.909 90.5295 199.846 89.5431 181.466 83.2664C173.379 80.4867 170.929 79.4556 171.112 78.9176C173.502 72.6857 175.033 69.4577 175.646 69.4577C176.014 69.4577 179.567 72.0132 183.611 75.1516ZM189.247 88.6016C204.992 94.3852 207.443 95.4612 203.89 95.1473C192.004 94.0713 172.767 91.1571 166.64 89.4983C164.434 88.9155 160.759 88.1533 158.369 87.8395C156.041 87.4808 153.835 87.0773 153.529 86.8979C153.223 86.7186 155.306 85.7771 158.124 84.8804C160.881 83.9389 164.312 82.7284 165.66 82.1904L168.11 81.2489L171.174 82.1456C172.889 82.6836 181.037 85.5529 189.247 88.6016ZM174.543 93.6678C178.893 94.4748 201.868 97.7028 203.583 97.7028C205.176 97.7477 202.174 98.5547 195.435 99.9445C191.575 100.707 183.917 102.455 178.403 103.8C172.95 105.145 168.172 106.221 167.804 106.221C167.13 106.221 167.191 104.652 168.233 95.775C168.417 94.1162 168.846 92.7711 169.213 92.7711C169.52 92.7711 171.97 93.1746 174.543 93.6678Z" fill="#DFEBF3"/>
</svg>
