<svg width="387" height="329" viewBox="0 0 387 329" fill="none" xmlns="http://www.w3.org/2000/svg">
<path d="M315.477 205.899C317.106 208 318.749 207.099 327.662 199.133C335.417 192.208 337.981 188.694 336.898 186.626C336.01 184.959 330.853 187.815 323.053 194.57C315.193 201.432 313.696 203.566 315.477 205.899Z" fill="#3B68AB"/>
<path d="M318.49 228.162C325.696 232.383 344.71 232.484 347.096 228.291C348.38 226.034 346.078 225.115 334.78 223.37C321.525 221.34 311.815 224.252 318.49 228.162Z" fill="#3B68AB"/>
<path d="M308.394 253.353C309.103 254.341 315.371 257.726 322.352 261.099C335.043 267.099 340.093 267.907 338.138 263.895C337.009 261.658 315.903 250.584 311.126 249.793C307.76 249.254 306.402 250.895 308.394 253.353Z" fill="#3B68AB"/>
<path d="M325.701 8.66548C324.234 10.0038 324.256 9.96543 315.794 29.7931C312.35 37.792 309.378 44.4317 309.199 44.4803C309.02 44.5289 307.043 41.2758 304.859 37.2367C300.662 29.5656 297.732 25.2432 296.167 24.2755C294.354 23.2134 292.956 23.7231 291.757 25.831C290.492 28.054 290.103 30.3303 288.913 42.5113C287.95 52.525 287.491 54.6583 286.262 54.9602C284.675 55.3592 281.179 54.3334 263.556 48.3033C253.978 45.0433 245.307 42.3143 244.273 42.2712C240.85 42.0032 240.388 44.8501 243.321 48.4589C244.161 49.4618 248.853 54.0501 253.74 58.6503C267.275 71.3315 275.093 79.8972 274.33 81.2387C274.156 81.5453 271.896 82.4189 269.268 83.2304C259.814 86.1245 253.761 88.3533 252.908 89.2332C252.261 89.9274 252.156 90.3771 252.493 91.2898C252.846 92.263 253.148 92.4401 254.861 92.8815C255.942 93.1059 261.897 93.5281 268.059 93.7645C274.22 94.0009 279.748 94.3772 280.342 94.572C282.109 95.096 282.213 95.9748 280.969 98.5162C280.346 99.7869 277.072 106.25 273.688 112.904C265.807 128.524 264.908 131.166 267.061 132.427C269.554 133.887 273.689 131.046 288.97 117.205C295.493 111.317 301.18 106.369 301.597 106.256C302.214 106.056 302.461 106.507 302.869 108.534C303.906 113.792 307.478 127.076 308.155 128.188C309.762 130.764 311.657 130.444 312.893 127.386C313.243 126.416 314.719 120.637 316.18 114.441C317.619 108.283 318.858 103.183 318.978 103.151C319.097 103.118 321.074 105.043 323.32 107.381C328.754 112.966 337.937 121.258 341.562 123.739C344.189 125.584 344.551 125.745 345.607 125.393C348.04 124.57 347.802 123.306 342.181 104.683C340.139 97.9162 338.66 92.1951 338.866 92.0094C339.073 91.8237 341.995 91.6448 345.317 91.6488C353.644 91.6205 358.781 91.0015 360.474 89.796C361.82 88.8469 361.864 88.7703 361.545 87.5612C361.119 85.8301 356.681 82.5658 350.446 79.2715C347.774 77.8597 345.508 76.532 345.482 76.3123C345.396 76.1088 348.55 74.9922 352.445 73.901C363.718 70.6418 373.678 67.1242 376.461 65.3308C378.653 63.9574 378.905 62.0098 377.054 60.9255C376.261 60.4609 366.644 59.8355 353.093 59.3077C347.673 59.0966 343.194 58.8239 343.087 58.6587C342.979 58.4935 345.231 54.4471 348.071 49.7226C353.93 39.8682 354.631 37.9282 353.003 36.7186C351.806 35.813 351.301 36.0797 342.024 41.9388C334.043 47.0243 331.027 48.7838 330.612 48.5404C330.46 48.4518 330.359 46.8595 330.357 44.9162C330.371 43.0334 330.389 38.7518 330.431 35.4035C330.504 24.9192 330.092 14.0484 329.546 11.3781C329.193 9.4333 328.79 8.63552 327.997 8.17083C327.09 7.63976 326.733 7.73695 325.701 8.66548ZM327.485 15.1784C327.793 20.2135 327.942 34.2011 327.758 41.6054C327.569 47.7801 327.914 50.5373 329.009 51.179C330.294 51.9313 334.132 50.1427 341.511 45.3179C345.635 42.6742 349.411 40.287 349.931 40.0807C350.733 39.733 350.787 39.8156 350.165 41.0863C349.788 41.8367 347.274 46.343 344.608 51.1177L339.7 59.7413L340.655 60.4537C341.367 60.9729 346.11 61.4006 357.783 61.9528C366.671 62.3553 374.13 62.7897 374.356 62.9225C374.583 63.0552 374.706 63.2809 374.619 63.4342C374.205 64.1624 358.61 69.4385 350.366 71.7123C345.361 73.073 341.178 74.4045 341.004 74.7111C340.262 76.0142 340.99 76.5939 350.056 81.9046C355.005 84.8034 359.035 87.3687 359.039 87.6267C359.11 88.7414 353.427 89.347 344.132 89.2171C338.549 89.1151 336.821 89.5848 336.321 91.438C336.079 92.2164 337.393 97.4317 340.217 107.161C342.579 115.136 344.411 121.831 344.302 122.022C343.8 122.904 339.246 118.958 328.66 108.618C318.462 98.6581 318.348 98.5917 316.909 101.121C316.516 101.811 315.494 105.556 314.66 109.411C312.577 119.178 310.652 126.278 310.199 126.013C309.632 125.681 307.976 119.651 306.344 111.899C304.669 103.866 304.241 102.848 302.856 102.803C301.314 102.769 299.431 104.221 289.636 113.201C276.29 125.415 269.948 130.541 268.852 129.899C268.134 129.479 269.773 125.89 278.259 109.296C281.992 102.029 284.433 96.7643 284.518 95.9962C284.824 92.8027 281.481 91.5086 272.176 91.2196C262.19 90.889 257.382 90.5763 257.286 90.2136C257.152 89.8288 259.25 89.0642 267.788 86.4514C275.194 84.1464 277.108 83.1725 277.158 81.6686C277.243 78.2437 271.515 71.669 253.994 55.0175C247.054 48.4483 244.609 45.8408 244.893 45.3426C245.133 44.921 245.246 44.9873 262.831 50.9953C280.107 56.925 282.987 57.7943 285.675 57.9382C289.689 58.143 290.422 56.3238 291.82 42.2719C292.852 31.4296 293.485 27.6613 294.305 27.0173C295.19 26.2582 297.298 29.2814 302.714 39.1483C307.474 47.8649 308.609 49.5004 309.439 49.0156C309.639 48.9287 310.174 47.8113 310.64 46.5508C312.282 42.2491 325.541 13.0178 326.549 11.5128C327.082 10.7522 327.194 11.1754 327.485 15.1784Z" fill="#3B68AB"/>
<path d="M319.762 55.2161C313.439 53.4035 304.395 54.3397 298.348 57.4413C295.322 59.0415 291.325 62.5257 289.028 65.6772C282.508 74.4801 286.483 87.2333 297.309 92.1952C308.308 97.2073 323.664 94.2959 329.998 85.9972C335.065 79.3066 335.588 69.8014 331.175 63.1284C329.633 60.7939 328.964 60.1981 325.819 58.2022C323.52 56.7536 321.318 55.6677 319.762 55.2161ZM328.696 64.742C330.453 67.4068 331.613 71.9188 331.386 75.4145C331.175 77.999 330.961 78.6403 328.889 82.2814C326.795 85.9608 326.377 86.431 324.195 87.9636C321.406 89.8558 315.457 91.6349 310.928 91.8944C295.044 92.8107 283.987 80.2012 290.53 68.7031C293.365 63.7206 299.625 58.6493 304.511 57.321C307.111 56.6465 314.582 56.8834 317.97 57.7441C321.607 58.6992 327.046 62.2424 328.696 64.742Z" fill="#3B68AB"/>
<path d="M317.62 70.9276C316.75 70.7754 315.904 72.5282 316.419 73.3923C317.381 74.9776 319.69 73.9286 319.211 72.115C319.004 71.329 318.61 71.0473 317.62 70.9276Z" fill="#3B68AB"/>
<path d="M302.364 69.5026C301.338 70.3324 301.29 71.4794 302.244 72.1919C303.328 73.0312 304.69 72.1425 304.458 70.7801C304.268 69.6979 303.021 68.9676 302.364 69.5026Z" fill="#3B68AB"/>
<path d="M310.813 82.2701C309.578 84.9708 309.198 85.4631 308.157 85.8756C307.116 86.2881 306.808 86.2099 306.152 85.4164C305.463 84.5021 304.894 82.2269 304.876 80.2232C304.863 79.4492 304.75 79.3828 304.11 79.6214C302.972 80.028 302.859 83.5901 303.879 85.516C305.548 88.6909 308.755 88.9853 311.05 86.1906C312.127 84.8286 313.24 81.5455 313.062 80.2657C312.82 78.7441 312.2 79.3012 310.813 82.2701Z" fill="#3B68AB"/>
<path d="M57.4885 276.054C56.057 276.654 53.6713 278.18 52.2398 279.433C49.0057 282.321 43.916 289.296 41.5302 294.146C40.5229 296.162 39.6216 297.852 39.4626 297.852C39.3565 297.852 38.8263 297.089 38.4022 296.162C37.2358 293.874 34.0018 290.332 32.2522 289.351C31.4039 288.915 29.6543 288.588 28.2759 288.588C25.9961 288.588 25.572 288.806 23.6103 290.931C20.9594 293.765 19.581 297.416 19.2629 302.484C18.7857 309.132 19.2099 308.641 13.9081 308.641C7.28091 308.641 3.03951 310.331 1.02485 313.818C-0.936803 317.088 -0.0885222 320.303 3.6227 323.573C4.78909 324.553 6.85677 325.807 8.28825 326.297C11.0982 327.333 22.603 328.858 28.3289 328.967C40.1518 329.185 82.7249 328.259 84.6865 327.714C87.7085 326.951 92.3741 322.592 94.1767 318.886C95.7142 315.78 96.0853 310.549 94.9189 308.205C92.109 302.702 86.4361 301.121 76.1507 303.083C73.6058 303.573 71.3791 303.846 71.2201 303.737C71.114 303.573 71.4851 301.557 72.0683 299.214C74.189 290.604 73.1817 282.757 69.3114 278.452C66.0774 274.855 62.4191 274.093 57.4885 276.054ZM65.6002 279.869C69.7886 282.485 70.7959 290.332 68.145 299.977C66.9256 304.718 66.8726 305.263 67.5618 306.407C68.7282 308.151 69.0994 308.151 77.6352 306.516C82.6718 305.535 83.9443 305.426 86.4361 305.971C89.8292 306.68 91.5788 308.26 92.162 311.039C92.7982 314.145 91.8439 317.142 89.193 320.194C84.8986 325.098 86.8602 324.826 57.7536 324.88C43.5979 324.935 28.3819 325.098 23.8754 325.262C14.7034 325.589 11.4163 324.989 7.38695 322.483C6.06151 321.665 4.524 320.085 3.99383 318.995C2.98649 317.142 2.98649 316.979 3.88779 315.562C5.53134 313.001 8.50032 312.02 14.8624 312.02C18.9448 312.02 20.6943 311.802 21.1185 311.312C21.4366 310.876 21.9668 308.096 22.2319 305.045C23.1332 296.162 25.2539 291.857 28.806 291.857C31.1388 291.857 34.85 296.053 36.5466 300.576C37.713 303.573 38.0841 304.118 39.1975 304.118C40.3108 304.118 40.947 303.301 43.4389 298.342C47.1501 290.986 48.4755 288.969 52.5579 284.446C57.5415 278.997 61.7829 277.471 65.6002 279.869Z" fill="#3B68AB"/>
</svg>
