<svg width="90" height="86" viewBox="0 0 90 86" fill="none" xmlns="http://www.w3.org/2000/svg">
<path d="M52.5934 67.1856C51.8486 64.6207 49.9934 64.8389 38.8036 68.8809C29.0701 72.3915 25.403 74.6893 25.6529 77.0177C25.8679 78.8999 31.7012 78.1894 41.4144 74.8531C51.2236 71.4401 53.3936 70.0224 52.5934 67.1856Z" fill="#3B68AB"/>
<path d="M57.9371 45.376C52.79 38.7442 35.17 31.4915 31.4212 34.4866C29.4027 36.0994 31.2049 37.8195 41.0583 43.6932C52.6239 50.569 62.7057 51.5201 57.9371 45.376Z" fill="#3B68AB"/>
<path d="M76.525 25.7857C76.2283 24.6008 71.6459 19.0979 66.3966 13.3377C56.8065 2.98765 52.4126 0.33609 52.7609 4.79783C52.9903 7.30055 68.5398 25.5295 72.6861 28.0628C75.6154 29.8305 77.4765 28.8175 76.525 25.7857Z" fill="#3B68AB"/>
</svg>
