<svg width="313" height="256" viewBox="0 0 313 256" fill="none" xmlns="http://www.w3.org/2000/svg">
<path d="M189.24 1.03516C169.294 4.63188 147.223 21.3076 136.106 41.0896C133.164 46.4847 130.384 51.0624 130.221 51.3894C130.057 51.5529 126.134 49.918 121.719 47.6292C92.4551 33.0788 62.7003 42.888 47.169 72.4793C38.5041 89.155 35.7248 101.907 36.8693 119.564C37.3597 127.575 38.3406 136.73 38.8311 139.509C39.6485 144.25 39.3216 144.904 36.5423 144.904C30.9837 144.904 18.8856 150.953 12.0191 157.166C-1.38687 169.101 -3.6757 185.122 5.6431 200.49C13.327 213.406 22.8093 218.801 39.4851 219.782C46.6785 220.109 52.5641 221.09 52.5641 221.744C52.5641 224.523 68.0954 240.054 74.4714 243.814C88.3679 251.825 99.485 254.768 121.392 255.586C145.098 256.566 161.937 253.951 181.556 246.103C194.962 240.708 212.619 229.591 219.975 221.907C224.226 217.493 225.861 216.839 233.708 216.839C252.51 216.839 276.215 207.193 292.401 192.97C298.45 187.902 302.7 182.016 306.951 173.351C312.346 162.725 313 159.618 313 149.319C313 131.008 305.153 118.092 288.804 109.591C281.447 105.831 279.812 104.196 280.466 101.58C286.188 77.7109 285.044 63.651 276.379 45.9943C261.174 14.9316 222.755 -4.8504 189.24 1.03516ZM217.687 14.2777C238.123 19.0188 255.289 32.4248 265.425 51.8798C270.33 61.3621 270.82 63.651 270.82 76.2395C270.657 85.7218 269.839 92.0978 268.041 96.185L265.262 102.398H253C233.545 102.398 214.417 110.899 208.695 122.016C205.098 129.046 205.589 136.24 210.166 140.817C221.447 152.098 246.461 145.722 264.935 126.757L274.253 117.275L282.591 121.199C294.853 126.757 300.248 135.586 300.248 149.646C300.084 162.725 295.997 171.553 284.88 182.343C273.436 193.624 250.875 203.596 237.142 203.76C233.218 203.76 232.728 203.106 232.074 195.422C230.766 182.016 219.812 174.496 206.733 177.929C193.49 181.362 191.202 195.913 202.319 207.193L208.531 213.569L204.444 217.82C199.049 223.705 176.978 234.005 161.447 237.929C145.752 242.016 115.343 242.67 102.264 239.073C91.1472 236.131 78.7221 229.264 72.1826 222.561L66.951 217.166L71.8556 214.55C82.8093 208.828 85.0981 198.528 77.2507 190.517C66.4605 179.727 49.2943 188.883 49.2943 205.395C49.2943 210.463 48.6404 210.79 40.6295 210.299C29.0218 209.645 14.7984 197.874 12.5096 187.248C9.73029 174.659 19.3761 162.071 35.2344 157.493L44.8802 154.877L52.8911 162.071C65.1526 173.188 77.0872 173.515 77.0872 162.888C77.0872 156.348 70.7112 149.482 61.0654 146.049C53.218 143.106 52.8911 142.779 50.2752 133.624C44.0627 111.553 49.9483 84.4139 64.8257 66.7572C77.9047 51.0624 102.755 47.7926 119.104 59.7272L125.153 64.1414L125.316 80.4902C125.48 94.2232 126.134 97.9834 129.567 105.667C134.308 115.64 140.684 120.708 145.425 117.765C154.417 112.207 154.253 92.7518 145.098 73.6237L139.54 61.6891L144.117 51.8798C152.128 35.2041 167.823 20.8172 184.662 14.7681C192.019 12.1523 207.714 11.9888 217.687 14.2777ZM256.924 115.64C256.924 118.419 246.951 126.594 239.431 130.19C227.005 136.076 215.071 133.297 221.12 125.94C227.169 118.583 256.924 109.918 256.924 115.64ZM218.504 193.951C220.629 200.49 215.398 202.779 210.493 197.384C206.896 193.46 208.368 190.681 213.599 190.681C216.052 190.681 217.85 191.825 218.504 193.951ZM70.5477 200.981C70.5477 203.269 67.278 207.03 65.3161 207.03C63.6812 207.03 63.5178 201.471 65.1526 200C66.951 198.038 70.5477 198.692 70.5477 200.981Z" fill="#DFEBF3"/>
</svg>
