<svg width="158" height="151" viewBox="0 0 158 151" fill="none" xmlns="http://www.w3.org/2000/svg">
<path d="M87.7495 23.3665C70.6174 19.5764 53.5166 22.7772 42.1013 31.7299C36.5425 36.0743 35.0037 38.2365 25.3168 55.0146C16.6992 69.9406 13.7305 74.3278 9.75207 77.6962C7.02713 79.8998 3.95398 83.2098 2.94755 84.953C1.3121 87.7857 1.38734 88.4102 4.22002 90.0457C5.9632 91.0521 10.8704 92.8684 15.2498 94.0894C22.6213 96.1664 23.6018 96.7325 33.2387 105.202C47.7109 117.625 56.4852 123.562 67.8081 128.356C90.6257 137.898 109.399 134.065 124.317 116.53C140.928 97.0677 138.504 63.2739 118.691 41.2306C112.201 33.8521 97.7112 25.4862 87.7495 23.3665ZM115.008 51.8875C124.76 65.9434 127.635 79.0793 124.278 93.7011C121.986 103.709 120.208 107.04 112.905 114.154C105.774 121.222 93.2576 125.037 83.2791 123.198C72.4583 121.308 55.4454 111.776 41.0024 99.806C30.695 91.2402 27.8791 89.324 22.3014 87.411C18.5926 86.2866 15.4623 84.9151 15.3241 84.3996C15.2949 83.9469 16.6742 82.5643 18.7241 81.2783C22.8868 78.5973 25.9981 73.7114 34.2013 57.2388C39.7288 45.9035 40.9531 44.2862 46.4659 39.7699C66.1987 23.7075 99.6587 29.6612 115.008 51.8875Z" fill="#DFEBF3"/>
<path d="M91.0127 54.4488C89.2313 55.0183 85.4752 57.4982 82.6705 60.0916C79.1616 63.15 77.0028 64.3731 76.2109 63.4802C75.4652 62.7591 71.9035 60.1217 68.1072 57.6393C59.4879 51.9366 55.058 51.558 51.8545 56.1002C46.5629 63.5042 53.4905 77.6724 67.4853 88.6576C77.3446 96.2384 79.8089 96.499 87.8703 90.8394C102.006 80.6972 107.524 61.0761 97.7182 55.415C95.6482 54.2198 92.966 53.8334 91.0127 54.4488ZM95.6782 64.9868C96.4689 69.656 91.986 77.6722 84.8591 83.7261L78.2018 89.47L74.0033 86.1744C67.2699 80.9794 60.4915 71.8364 58.9259 65.9935L57.5614 60.5572L61.8901 62.6206C64.3039 63.7236 68.6113 67.0821 71.5776 70.2473C76.5004 75.5591 76.9362 75.8107 79.2501 74.8223C80.6417 74.1731 83.4004 71.4079 85.5345 68.7179C87.7316 65.9189 90.1005 63.0739 90.9305 62.391C92.9972 60.8242 95.1762 62.0822 95.6782 64.9868Z" fill="#DFEBF3"/>
</svg>
