<svg width="230" height="240" viewBox="0 0 230 240" fill="none" xmlns="http://www.w3.org/2000/svg">
<path d="M97.7717 2.75362C96.7008 6.04265 96.7008 5.96616 100.984 43.0632C102.667 58.0551 103.891 70.5992 103.661 70.8287C103.432 71.0582 97.6187 67.9221 90.8112 63.7917C77.8081 55.9899 69.6238 52.0889 66.4112 52.0125C62.7398 52.0125 61.057 54.0012 61.057 58.2081C61.057 62.6444 62.4338 66.3923 71.1535 85.6675C78.3435 101.501 79.4908 105.096 77.8846 106.625C75.8194 108.614 69.6237 110.144 37.6514 116.569C20.2884 120.088 4.76121 123.606 3.15494 124.447C-2.27577 127.048 -0.516526 131.714 7.05587 134.544C9.19756 135.309 20.2884 138.062 31.6853 140.663C63.1987 147.777 82.4739 153.743 82.4739 156.42C82.4739 157.032 79.7968 160.321 76.5078 163.839C64.652 176.46 57.3855 185.103 56.8501 187.168C56.4677 188.775 56.6971 189.539 57.9974 190.61C59.3742 191.758 59.9862 191.758 62.9692 190.916C64.805 190.304 74.2131 185.715 83.7742 180.667C93.3353 175.618 102.055 171.335 103.126 171.106C106.262 170.341 107.18 171.565 107.486 176.46C107.639 178.907 108.251 191.452 108.863 204.378C110.392 234.668 111.31 239.41 115.67 239.41C120.718 239.41 124.543 231.532 135.787 197.418C140.605 182.885 144.965 170.494 145.501 169.958C146.266 169.117 147.03 169.576 149.402 172.253C155.521 179.213 172.425 195.964 174.413 197.035C179.079 199.483 181.68 197.341 180.915 191.681C180.609 189.922 177.855 179.978 174.719 169.423C171.583 158.944 169.059 150.224 169.212 150.071C169.365 149.918 174.031 151.066 179.462 152.595C192.541 156.19 213.652 160.55 221.301 161.086C226.885 161.544 227.573 161.468 228.874 160.015C231.857 156.649 230.403 154.966 205.774 132.02C196.825 123.683 189.635 116.416 189.788 115.957C189.941 115.498 194.224 112.668 199.272 109.762C211.893 102.419 219.159 96.9879 220.689 93.6989C221.913 91.0983 221.913 90.9453 220.383 89.4155C218.242 87.1973 208.68 86.203 196.366 86.7384C191.088 86.9679 186.499 86.9679 186.269 86.6619C185.963 86.4324 189.788 81.9961 194.76 76.9478C209.063 62.1855 221.148 48.188 223.825 43.0632C225.967 39.0858 224.667 35.9498 220.919 35.9498C219.312 35.9498 204.168 43.4457 183.133 54.5366C174.719 58.9729 167.682 62.4914 167.377 62.3384C167.071 62.1855 166.994 54.1541 167.224 44.593C167.606 24.7059 166.994 21.1874 163.476 20.805C160.875 20.499 160.34 21.3404 151.314 38.2445C143.588 52.8538 140.529 58.1316 139.688 58.1316C139.382 58.1316 137.852 55.8369 136.169 52.9303C134.563 50.1002 130.891 43.6752 128.061 38.6269C119.112 22.8702 109.092 6.96051 105.956 3.44202C103.738 0.8414 102.437 3.05176e-05 100.831 3.05176e-05C98.9955 3.05176e-05 98.5365 0.458954 97.7717 2.75362ZM106.109 10.9379C110.928 18.2044 123.242 39.0093 129.362 50.2532C134.41 59.6613 137.316 63.4858 139.535 63.4858C142.135 63.4858 146.419 57.4432 153.456 43.7516C157.433 36.1793 161.104 29.2953 161.716 28.5304C162.634 27.3065 162.787 27.383 162.94 29.8307C163.017 31.284 163.093 40.2332 163.17 49.7178V66.9278L165.235 67.1572C166.765 67.3102 174.337 63.7917 192.541 54.3836C206.386 47.1936 218.089 41.304 218.548 41.304C219.006 41.304 219.389 41.5335 219.389 41.8394C219.389 43.2927 200.267 64.8626 189.711 75.4945C183.286 81.9196 178.085 87.5798 178.085 88.1917C178.085 90.7923 179.691 91.0218 198.049 91.0218C208.069 91.0218 216.406 91.3277 216.635 91.7102C217.706 93.3164 209.598 99.2061 195.371 107.161C186.805 111.903 184.587 114.121 185.428 117.334C185.734 118.711 192.235 125.365 204.933 137.451C215.412 147.318 223.978 155.731 223.978 156.114C223.978 157.873 213.652 155.961 188.64 149.765C164.546 143.799 164.317 143.799 164.317 148.847C164.317 150.224 166 156.726 168.065 163.227C173.343 179.672 176.555 191.987 175.637 191.987C174.49 191.987 166.765 184.415 157.586 174.242C148.101 163.686 146.572 162.539 144.43 163.686C142.059 164.986 140.452 168.811 133.339 190.84C123.625 220.823 118.424 234.056 116.205 234.056C114.752 234.056 114.14 227.248 112.687 194.97C112.075 180.82 111.234 170.8 110.698 169.576C108.404 164.528 102.208 165.522 87.8281 173.247C72.3773 181.508 64.805 185.256 64.346 184.797C63.8106 184.338 66.3347 181.355 77.0432 169.958C86.2983 160.015 88.3635 156.879 87.1397 154.584C84.3096 149.383 69.9297 144.564 28.9317 135.003C12.716 131.255 6.74992 129.496 6.74992 128.501C6.74992 127.66 6.97938 127.66 38.8752 121.235C70.2357 114.963 75.3604 113.739 79.5673 111.597C85.8394 108.385 85.3805 105.019 75.3604 82.761C67.5586 65.6275 65.2639 59.4319 65.9523 57.7491C66.6407 55.8369 72.4538 58.514 89.2049 68.534C103.967 77.4068 107.103 78.86 107.945 77.4068C108.174 77.1008 108.021 74.9591 107.639 72.6644C106.415 64.7861 101.29 9.40816 101.52 6.27211C101.673 4.66585 102.208 5.20126 106.109 10.9379Z" fill="#DFEBF3"/>
<path d="M128.979 77.6359C117.812 80.466 104.885 89.7976 98.3839 99.7412C95.1714 104.789 92.1118 113.509 91.3469 120.24C89.0523 139.133 106.109 154.737 126.838 152.671C147.872 150.53 168.677 132.708 171.125 114.733C173.037 100.277 165.618 85.5907 153.15 79.4716C148.79 77.3299 147.26 77.024 140.759 76.7945C136.016 76.6415 131.733 76.9475 128.979 77.6359ZM150.779 84.061C155.751 86.5086 161.411 92.2453 164.088 97.676C166 101.73 166.23 102.877 166.23 110.144C166.23 117.487 166 118.557 164.011 122.764C161.411 128.042 153.915 135.92 147.26 140.28C123.931 155.578 96.2422 146.399 96.2422 123.453C96.2422 113.509 101.367 100.43 107.639 94.1575C111.005 90.8685 122.554 84.6729 128.444 82.9901C134.793 81.2309 146.113 81.7663 150.779 84.061Z" fill="#DFEBF3"/>
<path d="M139.305 103.031C137.852 103.566 138.082 106.932 139.611 107.773C142.442 109.303 145.042 105.708 142.747 103.413C141.753 102.419 140.912 102.342 139.305 103.031Z" fill="#DFEBF3"/>
<path d="M114.906 114.274C114.064 116.416 114.982 118.175 117.047 118.404C119.419 118.71 120.719 116.186 119.189 114.35C117.965 112.897 115.441 112.897 114.906 114.274Z" fill="#DFEBF3"/>
<path d="M138.77 125.977C139.229 131.101 139.076 132.172 137.852 133.702C136.628 135.232 136.093 135.385 134.41 134.773C132.574 134.008 129.744 131.101 127.985 128.118C127.296 126.971 127.067 126.971 126.302 127.889C124.925 129.495 127.832 134.926 131.044 136.915C136.322 140.204 141.447 137.832 142.518 131.637C142.977 128.654 141.829 122.764 140.453 121.005C138.77 118.94 138.311 120.316 138.77 125.977Z" fill="#DFEBF3"/>
</svg>
