<svg width="220" height="180" viewBox="0 0 220 180" fill="none" xmlns="http://www.w3.org/2000/svg">
<path d="M133.012 0.727737C118.993 3.2558 103.48 14.9768 95.6658 28.8811C93.5974 32.6731 91.6439 35.8907 91.529 36.1205C91.414 36.2354 88.6562 35.0863 85.5536 33.4775C64.9844 23.2504 44.0705 30.1451 33.1539 50.9441C27.0636 62.665 25.1101 71.6281 25.9145 84.0386C26.2592 89.6693 26.9487 96.1043 27.2934 98.0578C27.868 101.39 27.6382 101.85 25.6847 101.85C21.7777 101.85 13.2742 106.102 8.44794 110.468C-0.974798 118.857 -2.58356 130.118 3.9664 140.92C9.36724 149.998 16.0321 153.79 27.7531 154.479C32.8092 154.709 36.946 155.399 36.946 155.858C36.946 157.812 47.8626 168.728 52.3441 171.371C62.1116 177.002 69.9256 179.07 85.3237 179.645C101.986 180.334 113.822 178.496 127.611 172.98C137.034 169.188 149.444 161.374 154.615 155.973C157.603 152.871 158.752 152.411 164.268 152.411C177.483 152.411 194.145 145.631 205.521 135.634C209.773 132.072 212.761 127.935 215.748 121.844C219.54 114.375 220 112.192 220 104.952C220 92.0824 214.484 83.0044 202.993 77.029C197.822 74.386 196.673 73.2369 197.133 71.3983C201.155 54.6212 200.35 44.7388 194.26 32.3284C183.573 10.4952 156.569 -3.40907 133.012 0.727737ZM153.007 10.0356C167.371 13.368 179.436 22.7908 186.561 36.4652C190.008 43.1301 190.353 44.7388 190.353 53.587C190.238 60.2519 189.663 64.7335 188.399 67.6062L186.446 71.9729H177.827C164.153 71.9729 150.708 77.9483 146.686 85.7623C144.158 90.7035 144.503 95.7596 147.721 98.9771C155.65 106.906 173.231 102.424 186.216 89.0947L192.766 82.4298L198.626 85.1877C207.245 89.0947 211.037 95.2999 211.037 105.182C210.922 114.375 208.049 120.58 200.235 128.165C192.191 136.093 176.334 143.103 166.681 143.218C163.923 143.218 163.578 142.758 163.119 137.358C162.2 127.935 154.5 122.649 145.308 125.062C136 127.475 134.391 137.702 142.205 145.631L146.572 150.113L143.699 153.1C139.907 157.237 124.394 164.477 113.477 167.235C102.446 170.107 81.072 170.567 71.8791 168.039C64.0651 165.97 55.3318 161.144 50.7354 156.433L47.0582 152.641L50.5056 150.802C58.2046 146.78 59.8134 139.541 54.2976 133.91C46.7135 126.326 34.6478 132.761 34.6478 144.367C34.6478 147.929 34.1881 148.159 28.5575 147.814C20.3987 147.355 10.4014 139.081 8.79268 131.612C6.83918 122.764 13.619 113.916 24.7654 110.698L31.5452 108.859L37.1758 113.916C45.7942 121.73 54.1827 121.959 54.1827 114.49C54.1827 109.894 49.7012 105.067 42.9214 102.654C37.4056 100.586 37.1758 100.356 35.3372 93.921C30.9706 78.4079 35.1074 59.3326 45.5644 46.9222C54.7573 35.8907 72.2238 33.5924 83.715 41.981L87.9667 45.0836L88.0816 56.5747C88.1965 66.2273 88.6562 68.8703 91.0693 74.2711C94.4017 81.2807 98.8833 84.843 102.216 82.7746C108.536 78.8676 108.421 65.1931 101.986 51.7485L98.0789 43.3599L101.296 36.4652C106.927 24.7442 117.959 14.632 129.794 10.3803C134.965 8.54172 145.997 8.42682 153.007 10.0356ZM180.585 81.2807C180.585 83.2342 173.576 88.9798 168.29 91.5078C159.557 95.6446 151.168 93.6912 155.42 88.5201C159.671 83.3491 180.585 77.2588 180.585 81.2807ZM153.581 136.323C155.075 140.92 151.398 142.529 147.95 138.736C145.422 135.979 146.457 134.025 150.134 134.025C151.857 134.025 153.122 134.829 153.581 136.323ZM49.5863 141.265C49.5863 142.873 47.288 145.516 45.9091 145.516C44.76 145.516 44.6451 141.609 45.7942 140.575C47.0582 139.196 49.5863 139.656 49.5863 141.265Z" fill="#DFEBF3"/>
</svg>
