<svg width="302" height="190" viewBox="0 0 302 190" fill="none" xmlns="http://www.w3.org/2000/svg">
<rect y="43" width="302" height="147" rx="20" fill="#A2BD6C"/>
<path d="M63.2578 104C62.7511 104 62.3578 103.86 62.0778 103.58C61.8111 103.3 61.6778 102.913 61.6778 102.42V91.44C61.6778 90.92 61.8111 90.5267 62.0778 90.26C62.3445 89.9933 62.7311 89.86 63.2378 89.86C63.7311 89.86 64.1111 89.9933 64.3778 90.26C64.6445 90.5267 64.7778 90.92 64.7778 91.44V101.38H70.1378C70.5645 101.38 70.8911 101.493 71.1178 101.72C71.3578 101.947 71.4778 102.267 71.4778 102.68C71.4778 103.107 71.3578 103.433 71.1178 103.66C70.8911 103.887 70.5645 104 70.1378 104H63.2578ZM77.885 104.22C76.725 104.22 75.725 104.013 74.885 103.6C74.0583 103.173 73.4183 102.58 72.965 101.82C72.525 101.047 72.305 100.14 72.305 99.1C72.305 98.0867 72.5183 97.2 72.945 96.44C73.3717 95.6667 73.965 95.0667 74.725 94.64C75.4983 94.2 76.3717 93.98 77.345 93.98C78.0517 93.98 78.6917 94.1 79.265 94.34C79.8383 94.5667 80.3317 94.9 80.745 95.34C81.1583 95.7667 81.4717 96.2933 81.685 96.92C81.8983 97.5333 82.005 98.22 82.005 98.98C82.005 99.2333 81.925 99.4267 81.765 99.56C81.605 99.68 81.3717 99.74 81.065 99.74H74.785V98.18H79.825L79.505 98.46C79.505 97.9133 79.425 97.46 79.265 97.1C79.105 96.7267 78.8717 96.4467 78.565 96.26C78.2717 96.0733 77.905 95.98 77.465 95.98C76.9717 95.98 76.5517 96.0933 76.205 96.32C75.8583 96.5467 75.5917 96.8733 75.405 97.3C75.2183 97.7267 75.125 98.24 75.125 98.84V99C75.125 100.013 75.3583 100.76 75.825 101.24C76.305 101.72 77.0117 101.96 77.945 101.96C78.265 101.96 78.6317 101.92 79.045 101.84C79.4583 101.76 79.845 101.633 80.205 101.46C80.5117 101.313 80.785 101.267 81.025 101.32C81.265 101.36 81.4517 101.467 81.585 101.64C81.7183 101.813 81.7917 102.013 81.805 102.24C81.8317 102.467 81.785 102.693 81.665 102.92C81.545 103.133 81.345 103.313 81.065 103.46C80.6117 103.713 80.0983 103.9 79.525 104.02C78.965 104.153 78.4183 104.22 77.885 104.22ZM87.0816 104.22C86.3616 104.22 85.7149 104.08 85.1416 103.8C84.5682 103.52 84.1216 103.14 83.8016 102.66C83.4816 102.18 83.3216 101.64 83.3216 101.04C83.3216 100.32 83.5082 99.7533 83.8816 99.34C84.2549 98.9133 84.8616 98.6133 85.7016 98.44C86.5416 98.2533 87.6549 98.16 89.0416 98.16H90.1016V99.72H89.0616C88.3816 99.72 87.8282 99.76 87.4016 99.84C86.9882 99.9067 86.6882 100.027 86.5016 100.2C86.3282 100.373 86.2416 100.613 86.2416 100.92C86.2416 101.293 86.3682 101.6 86.6216 101.84C86.8882 102.08 87.2682 102.2 87.7616 102.2C88.1482 102.2 88.4882 102.113 88.7816 101.94C89.0882 101.753 89.3282 101.507 89.5016 101.2C89.6749 100.88 89.7616 100.52 89.7616 100.12V97.82C89.7616 97.2333 89.6282 96.82 89.3616 96.58C89.0949 96.3267 88.6416 96.2 88.0016 96.2C87.6416 96.2 87.2482 96.2467 86.8216 96.34C86.4082 96.42 85.9482 96.56 85.4416 96.76C85.1482 96.8933 84.8882 96.9267 84.6616 96.86C84.4349 96.78 84.2616 96.6467 84.1416 96.46C84.0216 96.26 83.9616 96.0467 83.9616 95.82C83.9616 95.58 84.0282 95.3533 84.1616 95.14C84.2949 94.9133 84.5149 94.7467 84.8216 94.64C85.4482 94.3867 86.0349 94.2133 86.5816 94.12C87.1416 94.0267 87.6549 93.98 88.1216 93.98C89.1482 93.98 89.9882 94.1333 90.6416 94.44C91.3082 94.7333 91.8082 95.1933 92.1416 95.82C92.4749 96.4333 92.6416 97.2267 92.6416 98.2V102.64C92.6416 103.133 92.5216 103.513 92.2816 103.78C92.0416 104.047 91.6949 104.18 91.2416 104.18C90.7882 104.18 90.4349 104.047 90.1816 103.78C89.9416 103.513 89.8216 103.133 89.8216 102.64V101.9L89.9616 102.02C89.8816 102.473 89.7082 102.867 89.4416 103.2C89.1882 103.52 88.8616 103.773 88.4616 103.96C88.0616 104.133 87.6016 104.22 87.0816 104.22ZM96.4544 104.18C95.9477 104.18 95.561 104.047 95.2944 103.78C95.0277 103.513 94.8944 103.133 94.8944 102.64V95.54C94.8944 95.0467 95.021 94.6733 95.2744 94.42C95.541 94.1533 95.9077 94.02 96.3744 94.02C96.8544 94.02 97.221 94.1533 97.4744 94.42C97.7277 94.6733 97.8544 95.0467 97.8544 95.54V96.58H97.6544C97.8144 95.78 98.1677 95.16 98.7144 94.72C99.261 94.28 99.9677 94.0333 100.834 93.98C101.168 93.9533 101.421 94.04 101.594 94.24C101.781 94.4267 101.881 94.74 101.894 95.18C101.921 95.5933 101.834 95.92 101.634 96.16C101.448 96.4 101.128 96.5467 100.674 96.6L100.214 96.64C99.4544 96.7067 98.8877 96.9267 98.5144 97.3C98.1544 97.6733 97.9744 98.2133 97.9744 98.92V102.64C97.9744 103.133 97.841 103.513 97.5744 103.78C97.321 104.047 96.9477 104.18 96.4544 104.18ZM104.657 104.18C104.163 104.18 103.783 104.047 103.517 103.78C103.263 103.513 103.137 103.133 103.137 102.64V95.54C103.137 95.0467 103.263 94.6733 103.517 94.42C103.783 94.1533 104.15 94.02 104.617 94.02C105.097 94.02 105.463 94.1533 105.717 94.42C105.97 94.6733 106.097 95.0467 106.097 95.54V96.68L105.877 96.02C106.183 95.3667 106.637 94.8667 107.237 94.52C107.85 94.16 108.543 93.98 109.317 93.98C110.103 93.98 110.75 94.1333 111.257 94.44C111.763 94.7333 112.143 95.1867 112.397 95.8C112.65 96.4 112.777 97.1667 112.777 98.1V102.64C112.777 103.133 112.643 103.513 112.377 103.78C112.123 104.047 111.75 104.18 111.257 104.18C110.777 104.18 110.403 104.047 110.137 103.78C109.883 103.513 109.757 103.133 109.757 102.64V98.24C109.757 97.56 109.63 97.0733 109.377 96.78C109.137 96.4733 108.763 96.32 108.257 96.32C107.617 96.32 107.103 96.52 106.717 96.92C106.343 97.32 106.157 97.8533 106.157 98.52V102.64C106.157 103.667 105.657 104.18 104.657 104.18ZM125.437 104.22C124.517 104.22 123.744 104.067 123.117 103.76C122.504 103.453 122.044 103.007 121.737 102.42C121.444 101.833 121.297 101.093 121.297 100.2V96.44H120.457C120.084 96.44 119.79 96.34 119.577 96.14C119.377 95.94 119.277 95.6667 119.277 95.32C119.277 94.9467 119.377 94.6667 119.577 94.48C119.79 94.28 120.084 94.18 120.457 94.18H121.297V92.66C121.297 92.1533 121.43 91.7733 121.697 91.52C121.964 91.2533 122.337 91.12 122.817 91.12C123.31 91.12 123.684 91.2533 123.937 91.52C124.19 91.7733 124.317 92.1533 124.317 92.66V94.18H126.217C126.59 94.18 126.877 94.28 127.077 94.48C127.277 94.6667 127.377 94.9467 127.377 95.32C127.377 95.6667 127.277 95.94 127.077 96.14C126.877 96.34 126.59 96.44 126.217 96.44H124.317V100.08C124.317 100.64 124.444 101.06 124.697 101.34C124.964 101.62 125.384 101.76 125.957 101.76C126.157 101.76 126.344 101.74 126.517 101.7C126.69 101.66 126.85 101.633 126.997 101.62C127.184 101.607 127.337 101.667 127.457 101.8C127.577 101.92 127.637 102.193 127.637 102.62C127.637 102.94 127.584 103.22 127.477 103.46C127.37 103.7 127.184 103.873 126.917 103.98C126.744 104.047 126.504 104.1 126.197 104.14C125.904 104.193 125.65 104.22 125.437 104.22ZM130.535 104.18C130.042 104.18 129.662 104.047 129.395 103.78C129.142 103.513 129.015 103.133 129.015 102.64V91.26C129.015 90.7533 129.142 90.3733 129.395 90.12C129.662 89.8533 130.042 89.72 130.535 89.72C131.015 89.72 131.382 89.8533 131.635 90.12C131.902 90.3733 132.035 90.7533 132.035 91.26V96.02H131.755C132.062 95.3667 132.515 94.8667 133.115 94.52C133.729 94.16 134.422 93.98 135.195 93.98C135.982 93.98 136.629 94.1333 137.135 94.44C137.642 94.7333 138.022 95.1867 138.275 95.8C138.529 96.4 138.655 97.1667 138.655 98.1V102.64C138.655 103.133 138.522 103.513 138.255 103.78C138.002 104.047 137.629 104.18 137.135 104.18C136.655 104.18 136.282 104.047 136.015 103.78C135.762 103.513 135.635 103.133 135.635 102.64V98.24C135.635 97.56 135.509 97.0733 135.255 96.78C135.015 96.4733 134.642 96.32 134.135 96.32C133.495 96.32 132.982 96.52 132.595 96.92C132.222 97.32 132.035 97.8533 132.035 98.52V102.64C132.035 103.667 131.535 104.18 130.535 104.18ZM142.47 104.18C141.963 104.18 141.577 104.047 141.31 103.78C141.043 103.513 140.91 103.133 140.91 102.64V95.54C140.91 95.0467 141.037 94.6733 141.29 94.42C141.557 94.1533 141.923 94.02 142.39 94.02C142.87 94.02 143.237 94.1533 143.49 94.42C143.743 94.6733 143.87 95.0467 143.87 95.54V96.58H143.67C143.83 95.78 144.183 95.16 144.73 94.72C145.277 94.28 145.983 94.0333 146.85 93.98C147.183 93.9533 147.437 94.04 147.61 94.24C147.797 94.4267 147.897 94.74 147.91 95.18C147.937 95.5933 147.85 95.92 147.65 96.16C147.463 96.4 147.143 96.5467 146.69 96.6L146.23 96.64C145.47 96.7067 144.903 96.9267 144.53 97.3C144.17 97.6733 143.99 98.2133 143.99 98.92V102.64C143.99 103.133 143.857 103.513 143.59 103.78C143.337 104.047 142.963 104.18 142.47 104.18ZM153.696 104.22C152.643 104.22 151.723 104.013 150.936 103.6C150.163 103.187 149.563 102.593 149.136 101.82C148.71 101.047 148.496 100.133 148.496 99.08C148.496 98.2933 148.616 97.5867 148.856 96.96C149.096 96.3333 149.443 95.8 149.896 95.36C150.363 94.9067 150.916 94.5667 151.556 94.34C152.196 94.1 152.91 93.98 153.696 93.98C154.75 93.98 155.663 94.1867 156.436 94.6C157.223 95.0133 157.83 95.6 158.256 96.36C158.696 97.12 158.916 98.0267 158.916 99.08C158.916 99.88 158.79 100.593 158.536 101.22C158.296 101.847 157.95 102.387 157.496 102.84C157.043 103.293 156.49 103.64 155.836 103.88C155.196 104.107 154.483 104.22 153.696 104.22ZM153.696 101.96C154.136 101.96 154.516 101.853 154.836 101.64C155.156 101.427 155.41 101.113 155.596 100.7C155.783 100.273 155.876 99.7333 155.876 99.08C155.876 98.1067 155.676 97.3933 155.276 96.94C154.876 96.4733 154.35 96.24 153.696 96.24C153.27 96.24 152.89 96.34 152.556 96.54C152.236 96.74 151.983 97.0533 151.796 97.48C151.623 97.8933 151.536 98.4267 151.536 99.08C151.536 100.053 151.736 100.78 152.136 101.26C152.536 101.727 153.056 101.96 153.696 101.96ZM164.374 104.22C163.547 104.22 162.86 104.067 162.314 103.76C161.767 103.453 161.36 102.993 161.094 102.38C160.84 101.753 160.714 100.98 160.714 100.06V95.54C160.714 95.0333 160.84 94.6533 161.094 94.4C161.36 94.1467 161.734 94.02 162.214 94.02C162.694 94.02 163.067 94.1467 163.334 94.4C163.6 94.6533 163.734 95.0333 163.734 95.54V100.14C163.734 100.727 163.854 101.167 164.094 101.46C164.334 101.74 164.714 101.88 165.234 101.88C165.807 101.88 166.274 101.68 166.634 101.28C167.007 100.867 167.194 100.327 167.194 99.66V95.54C167.194 95.0333 167.32 94.6533 167.574 94.4C167.84 94.1467 168.214 94.02 168.694 94.02C169.187 94.02 169.56 94.1467 169.814 94.4C170.08 94.6533 170.214 95.0333 170.214 95.54V102.64C170.214 103.667 169.727 104.18 168.754 104.18C168.274 104.18 167.907 104.047 167.654 103.78C167.4 103.513 167.274 103.133 167.274 102.64V101.3L167.574 102.08C167.28 102.76 166.86 103.287 166.314 103.66C165.767 104.033 165.12 104.22 164.374 104.22ZM177.271 107.82C176.551 107.82 175.857 107.76 175.191 107.64C174.537 107.52 173.957 107.34 173.451 107.1C173.144 106.967 172.924 106.793 172.791 106.58C172.671 106.367 172.617 106.14 172.631 105.9C172.657 105.66 172.737 105.447 172.871 105.26C173.017 105.073 173.197 104.94 173.411 104.86C173.624 104.793 173.851 104.813 174.091 104.92C174.677 105.187 175.217 105.36 175.711 105.44C176.217 105.52 176.651 105.56 177.011 105.56C177.864 105.56 178.504 105.367 178.931 104.98C179.357 104.593 179.571 104 179.571 103.2V101.68H179.751C179.551 102.293 179.137 102.793 178.511 103.18C177.884 103.567 177.191 103.76 176.431 103.76C175.551 103.76 174.784 103.56 174.131 103.16C173.477 102.747 172.971 102.173 172.611 101.44C172.251 100.693 172.071 99.8333 172.071 98.86C172.071 98.1267 172.171 97.46 172.371 96.86C172.584 96.26 172.877 95.7467 173.251 95.32C173.637 94.8933 174.097 94.5667 174.631 94.34C175.177 94.1 175.777 93.98 176.431 93.98C177.217 93.98 177.911 94.1733 178.511 94.56C179.124 94.9333 179.531 95.4267 179.731 96.04L179.531 96.68V95.54C179.531 95.0467 179.657 94.6733 179.911 94.42C180.177 94.1533 180.551 94.02 181.031 94.02C181.511 94.02 181.877 94.1533 182.131 94.42C182.384 94.6733 182.511 95.0467 182.511 95.54V102.86C182.511 104.5 182.057 105.733 181.151 106.56C180.257 107.4 178.964 107.82 177.271 107.82ZM177.331 101.5C177.784 101.5 178.171 101.393 178.491 101.18C178.824 100.967 179.084 100.667 179.271 100.28C179.457 99.88 179.551 99.4067 179.551 98.86C179.551 98.0333 179.344 97.3933 178.931 96.94C178.531 96.4733 177.997 96.24 177.331 96.24C176.877 96.24 176.484 96.3467 176.151 96.56C175.817 96.76 175.557 97.06 175.371 97.46C175.197 97.8467 175.111 98.3133 175.111 98.86C175.111 99.6867 175.311 100.333 175.711 100.8C176.111 101.267 176.651 101.5 177.331 101.5ZM186.375 104.18C185.882 104.18 185.502 104.047 185.235 103.78C184.982 103.513 184.855 103.133 184.855 102.64V91.26C184.855 90.7533 184.982 90.3733 185.235 90.12C185.502 89.8533 185.882 89.72 186.375 89.72C186.855 89.72 187.222 89.8533 187.475 90.12C187.742 90.3733 187.875 90.7533 187.875 91.26V96.02H187.595C187.902 95.3667 188.355 94.8667 188.955 94.52C189.569 94.16 190.262 93.98 191.035 93.98C191.822 93.98 192.469 94.1333 192.975 94.44C193.482 94.7333 193.862 95.1867 194.115 95.8C194.369 96.4 194.495 97.1667 194.495 98.1V102.64C194.495 103.133 194.362 103.513 194.095 103.78C193.842 104.047 193.469 104.18 192.975 104.18C192.495 104.18 192.122 104.047 191.855 103.78C191.602 103.513 191.475 103.133 191.475 102.64V98.24C191.475 97.56 191.349 97.0733 191.095 96.78C190.855 96.4733 190.482 96.32 189.975 96.32C189.335 96.32 188.822 96.52 188.435 96.92C188.062 97.32 187.875 97.8533 187.875 98.52V102.64C187.875 103.667 187.375 104.18 186.375 104.18ZM203.856 107.78C203.362 107.78 202.982 107.647 202.716 107.38C202.462 107.127 202.336 106.747 202.336 106.24V95.54C202.336 95.0467 202.462 94.6733 202.716 94.42C202.982 94.1533 203.349 94.02 203.816 94.02C204.309 94.02 204.682 94.1533 204.936 94.42C205.189 94.6733 205.316 95.0467 205.316 95.54V96.9L205.096 96.12C205.296 95.48 205.696 94.9667 206.296 94.58C206.909 94.18 207.609 93.98 208.396 93.98C209.249 93.98 209.996 94.1867 210.636 94.6C211.289 95.0133 211.796 95.6 212.156 96.36C212.516 97.12 212.696 98.0267 212.696 99.08C212.696 100.133 212.516 101.047 212.156 101.82C211.796 102.593 211.296 103.187 210.656 103.6C210.016 104.013 209.262 104.22 208.396 104.22C207.622 104.22 206.936 104.033 206.336 103.66C205.736 103.273 205.329 102.773 205.116 102.16H205.356V106.24C205.356 106.747 205.222 107.127 204.956 107.38C204.702 107.647 204.336 107.78 203.856 107.78ZM207.496 101.96C207.922 101.96 208.296 101.853 208.616 101.64C208.949 101.427 209.202 101.113 209.376 100.7C209.562 100.273 209.656 99.7333 209.656 99.08C209.656 98.1067 209.456 97.3933 209.056 96.94C208.656 96.4733 208.136 96.24 207.496 96.24C207.069 96.24 206.689 96.34 206.356 96.54C206.036 96.74 205.782 97.0533 205.596 97.48C205.409 97.8933 205.316 98.4267 205.316 99.08C205.316 100.053 205.516 100.78 205.916 101.26C206.316 101.727 206.842 101.96 207.496 101.96ZM218.083 104.22C216.896 104.22 216.009 103.893 215.423 103.24C214.836 102.573 214.543 101.587 214.543 100.28V91.26C214.543 90.7533 214.669 90.3733 214.923 90.12C215.189 89.8533 215.569 89.72 216.063 89.72C216.543 89.72 216.909 89.8533 217.163 90.12C217.429 90.3733 217.563 90.7533 217.563 91.26V100.16C217.563 100.707 217.676 101.113 217.903 101.38C218.143 101.633 218.456 101.76 218.843 101.76C218.949 101.76 219.049 101.753 219.143 101.74C219.236 101.727 219.336 101.72 219.443 101.72C219.656 101.693 219.803 101.76 219.883 101.92C219.976 102.067 220.023 102.367 220.023 102.82C220.023 103.22 219.943 103.527 219.783 103.74C219.623 103.94 219.376 104.073 219.043 104.14C218.909 104.153 218.756 104.167 218.583 104.18C218.409 104.207 218.243 104.22 218.083 104.22ZM224.523 104.22C223.803 104.22 223.156 104.08 222.583 103.8C222.01 103.52 221.563 103.14 221.243 102.66C220.923 102.18 220.763 101.64 220.763 101.04C220.763 100.32 220.95 99.7533 221.323 99.34C221.696 98.9133 222.303 98.6133 223.143 98.44C223.983 98.2533 225.096 98.16 226.483 98.16H227.543V99.72H226.503C225.823 99.72 225.27 99.76 224.843 99.84C224.43 99.9067 224.13 100.027 223.943 100.2C223.77 100.373 223.683 100.613 223.683 100.92C223.683 101.293 223.81 101.6 224.063 101.84C224.33 102.08 224.71 102.2 225.203 102.2C225.59 102.2 225.93 102.113 226.223 101.94C226.53 101.753 226.77 101.507 226.943 101.2C227.116 100.88 227.203 100.52 227.203 100.12V97.82C227.203 97.2333 227.07 96.82 226.803 96.58C226.536 96.3267 226.083 96.2 225.443 96.2C225.083 96.2 224.69 96.2467 224.263 96.34C223.85 96.42 223.39 96.56 222.883 96.76C222.59 96.8933 222.33 96.9267 222.103 96.86C221.876 96.78 221.703 96.6467 221.583 96.46C221.463 96.26 221.403 96.0467 221.403 95.82C221.403 95.58 221.47 95.3533 221.603 95.14C221.736 94.9133 221.956 94.7467 222.263 94.64C222.89 94.3867 223.476 94.2133 224.023 94.12C224.583 94.0267 225.096 93.98 225.563 93.98C226.59 93.98 227.43 94.1333 228.083 94.44C228.75 94.7333 229.25 95.1933 229.583 95.82C229.916 96.4333 230.083 97.2267 230.083 98.2V102.64C230.083 103.133 229.963 103.513 229.723 103.78C229.483 104.047 229.136 104.18 228.683 104.18C228.23 104.18 227.876 104.047 227.623 103.78C227.383 103.513 227.263 103.133 227.263 102.64V101.9L227.403 102.02C227.323 102.473 227.15 102.867 226.883 103.2C226.63 103.52 226.303 103.773 225.903 103.96C225.503 104.133 225.043 104.22 224.523 104.22ZM234.918 107.78C234.571 107.78 234.285 107.687 234.058 107.5C233.831 107.313 233.698 107.067 233.658 106.76C233.618 106.467 233.671 106.153 233.818 105.82L235.158 102.86V104.1L231.618 95.98C231.485 95.6333 231.438 95.3133 231.478 95.02C231.531 94.7133 231.678 94.4733 231.918 94.3C232.171 94.1133 232.518 94.02 232.958 94.02C233.318 94.02 233.605 94.1067 233.818 94.28C234.045 94.44 234.251 94.7533 234.438 95.22L236.798 101.22H236.158L238.598 95.2C238.785 94.7467 238.991 94.44 239.218 94.28C239.458 94.1067 239.778 94.02 240.178 94.02C240.525 94.02 240.798 94.1133 240.998 94.3C241.211 94.4733 241.338 94.7067 241.378 95C241.431 95.2933 241.378 95.6133 241.218 95.96L236.518 106.62C236.318 107.073 236.091 107.38 235.838 107.54C235.598 107.7 235.291 107.78 234.918 107.78Z" fill="#DFEBF3"/>
<path d="M62.9446 125H61.5355C61.4522 124.595 61.3063 124.239 61.098 123.932C60.8935 123.625 60.6435 123.367 60.348 123.159C60.0563 122.947 59.7325 122.788 59.3764 122.682C59.0204 122.576 58.6491 122.523 58.2628 122.523C57.5582 122.523 56.92 122.701 56.348 123.057C55.7798 123.413 55.3272 123.938 54.9901 124.631C54.6567 125.324 54.4901 126.174 54.4901 127.182C54.4901 128.189 54.6567 129.04 54.9901 129.733C55.3272 130.426 55.7798 130.951 56.348 131.307C56.92 131.663 57.5582 131.841 58.2628 131.841C58.6491 131.841 59.0204 131.788 59.3764 131.682C59.7325 131.576 60.0563 131.419 60.348 131.21C60.6435 130.998 60.8935 130.739 61.098 130.432C61.3063 130.121 61.4522 129.765 61.5355 129.364H62.9446C62.8385 129.958 62.6454 130.491 62.3651 130.96C62.0848 131.43 61.7363 131.83 61.3196 132.159C60.9029 132.485 60.4351 132.733 59.9162 132.903C59.401 133.074 58.8499 133.159 58.2628 133.159C57.2704 133.159 56.3878 132.917 55.6151 132.432C54.8423 131.947 54.2344 131.258 53.7912 130.364C53.348 129.47 53.1264 128.409 53.1264 127.182C53.1264 125.955 53.348 124.894 53.7912 124C54.2344 123.106 54.8423 122.417 55.6151 121.932C56.3878 121.447 57.2704 121.205 58.2628 121.205C58.8499 121.205 59.401 121.29 59.9162 121.46C60.4351 121.631 60.9029 121.881 61.3196 122.21C61.7363 122.536 62.0848 122.934 62.3651 123.403C62.6454 123.869 62.8385 124.402 62.9446 125ZM66.3807 127.75V133H65.0398V121.364H66.3807V125.636H66.4943C66.6989 125.186 67.0057 124.828 67.4148 124.562C67.8277 124.294 68.3769 124.159 69.0625 124.159C69.6572 124.159 70.178 124.278 70.625 124.517C71.072 124.752 71.4186 125.114 71.6648 125.602C71.9148 126.087 72.0398 126.705 72.0398 127.455V133H70.6989V127.545C70.6989 126.852 70.5189 126.316 70.1591 125.938C69.803 125.555 69.3087 125.364 68.6761 125.364C68.2367 125.364 67.8428 125.456 67.4943 125.642C67.1496 125.828 66.8769 126.098 66.6761 126.455C66.4792 126.811 66.3807 127.242 66.3807 127.75ZM74.4929 133V124.273H75.8338V133H74.4929ZM75.1747 122.818C74.9134 122.818 74.688 122.729 74.4986 122.551C74.313 122.373 74.2202 122.159 74.2202 121.909C74.2202 121.659 74.313 121.445 74.4986 121.267C74.688 121.089 74.9134 121 75.1747 121C75.4361 121 75.6596 121.089 75.8452 121.267C76.0346 121.445 76.1293 121.659 76.1293 121.909C76.1293 122.159 76.0346 122.373 75.8452 122.551C75.6596 122.729 75.4361 122.818 75.1747 122.818ZM79.6307 121.364V133H78.2898V121.364H79.6307ZM85.3821 133.182C84.6548 133.182 84.0128 132.998 83.456 132.631C82.8991 132.259 82.4635 131.737 82.1491 131.062C81.8348 130.384 81.6776 129.583 81.6776 128.659C81.6776 127.742 81.8348 126.947 82.1491 126.273C82.4635 125.598 82.901 125.078 83.4616 124.71C84.0223 124.343 84.67 124.159 85.4048 124.159C85.973 124.159 86.4219 124.254 86.7514 124.443C87.0848 124.629 87.3385 124.841 87.5128 125.08C87.6908 125.314 87.8291 125.508 87.9276 125.659H88.0412V121.364H89.3821V133H88.0866V131.659H87.9276C87.8291 131.818 87.6889 132.019 87.5071 132.261C87.3253 132.5 87.0658 132.714 86.7287 132.903C86.3916 133.089 85.9427 133.182 85.3821 133.182ZM85.5639 131.977C86.1018 131.977 86.5563 131.837 86.9276 131.557C87.2988 131.273 87.581 130.881 87.7741 130.381C87.9673 129.877 88.0639 129.295 88.0639 128.636C88.0639 127.985 87.9692 127.415 87.7798 126.926C87.5904 126.434 87.3101 126.051 86.9389 125.778C86.5677 125.502 86.1094 125.364 85.5639 125.364C84.9957 125.364 84.5223 125.509 84.1435 125.801C83.7685 126.089 83.4863 126.481 83.2969 126.977C83.1113 127.47 83.0185 128.023 83.0185 128.636C83.0185 129.258 83.1132 129.822 83.3026 130.33C83.4957 130.833 83.7798 131.235 84.1548 131.534C84.5336 131.83 85.0033 131.977 85.5639 131.977ZM92.0241 133V124.273H93.3196V125.591H93.4105C93.5696 125.159 93.8575 124.809 94.2741 124.54C94.6908 124.271 95.1605 124.136 95.6832 124.136C95.7817 124.136 95.9048 124.138 96.0526 124.142C96.2003 124.146 96.312 124.152 96.3878 124.159V125.523C96.3423 125.511 96.2382 125.494 96.0753 125.472C95.9162 125.445 95.7476 125.432 95.5696 125.432C95.1454 125.432 94.7666 125.521 94.4332 125.699C94.1037 125.873 93.8423 126.116 93.6491 126.426C93.4598 126.733 93.3651 127.083 93.3651 127.477V133H92.0241ZM101.371 133.182C100.53 133.182 99.8045 132.996 99.1946 132.625C98.5885 132.25 98.1207 131.727 97.7912 131.057C97.4654 130.383 97.3026 129.598 97.3026 128.705C97.3026 127.811 97.4654 127.023 97.7912 126.341C98.1207 125.655 98.5791 125.121 99.1662 124.739C99.7571 124.352 100.446 124.159 101.234 124.159C101.689 124.159 102.138 124.235 102.581 124.386C103.024 124.538 103.428 124.784 103.791 125.125C104.155 125.462 104.445 125.909 104.661 126.466C104.876 127.023 104.984 127.708 104.984 128.523V129.091H98.2571V127.932H103.621C103.621 127.439 103.522 127 103.325 126.614C103.132 126.227 102.856 125.922 102.496 125.699C102.14 125.475 101.719 125.364 101.234 125.364C100.7 125.364 100.238 125.496 99.848 125.761C99.4616 126.023 99.1643 126.364 98.956 126.784C98.7476 127.205 98.6435 127.655 98.6435 128.136V128.909C98.6435 129.568 98.7571 130.127 98.9844 130.585C99.2154 131.04 99.5355 131.386 99.9446 131.625C100.354 131.86 100.829 131.977 101.371 131.977C101.723 131.977 102.041 131.928 102.325 131.83C102.613 131.727 102.861 131.576 103.07 131.375C103.278 131.17 103.439 130.917 103.553 130.614L104.848 130.977C104.712 131.417 104.482 131.803 104.161 132.136C103.839 132.466 103.441 132.723 102.967 132.909C102.494 133.091 101.962 133.182 101.371 133.182ZM108.365 127.75V133H107.024V124.273H108.32V125.636H108.433C108.638 125.193 108.948 124.837 109.365 124.568C109.782 124.295 110.32 124.159 110.979 124.159C111.57 124.159 112.087 124.28 112.53 124.523C112.973 124.761 113.318 125.125 113.564 125.614C113.81 126.098 113.933 126.712 113.933 127.455V133H112.592V127.545C112.592 126.86 112.414 126.326 112.058 125.943C111.702 125.557 111.214 125.364 110.592 125.364C110.164 125.364 109.782 125.456 109.445 125.642C109.111 125.828 108.848 126.098 108.655 126.455C108.462 126.811 108.365 127.242 108.365 127.75ZM124.543 133.182C123.702 133.182 122.976 132.996 122.366 132.625C121.76 132.25 121.293 131.727 120.963 131.057C120.637 130.383 120.474 129.598 120.474 128.705C120.474 127.811 120.637 127.023 120.963 126.341C121.293 125.655 121.751 125.121 122.338 124.739C122.929 124.352 123.618 124.159 124.406 124.159C124.861 124.159 125.31 124.235 125.753 124.386C126.196 124.538 126.599 124.784 126.963 125.125C127.327 125.462 127.616 125.909 127.832 126.466C128.048 127.023 128.156 127.708 128.156 128.523V129.091H121.429V127.932H126.793C126.793 127.439 126.694 127 126.497 126.614C126.304 126.227 126.027 125.922 125.668 125.699C125.312 125.475 124.891 125.364 124.406 125.364C123.872 125.364 123.41 125.496 123.02 125.761C122.634 126.023 122.336 126.364 122.128 126.784C121.92 127.205 121.815 127.655 121.815 128.136V128.909C121.815 129.568 121.929 130.127 122.156 130.585C122.387 131.04 122.707 131.386 123.116 131.625C123.526 131.86 124.001 131.977 124.543 131.977C124.895 131.977 125.213 131.928 125.497 131.83C125.785 131.727 126.033 131.576 126.241 131.375C126.45 131.17 126.611 130.917 126.724 130.614L128.02 130.977C127.884 131.417 127.654 131.803 127.332 132.136C127.01 132.466 126.613 132.723 126.139 132.909C125.666 133.091 125.134 133.182 124.543 133.182ZM130.962 124.273L133.053 127.841L135.143 124.273H136.689L133.871 128.636L136.689 133H135.143L133.053 129.614L130.962 133H129.416L132.189 128.636L129.416 124.273H130.962ZM138.602 136.273V124.273H139.898V125.659H140.057C140.155 125.508 140.292 125.314 140.466 125.08C140.644 124.841 140.898 124.629 141.227 124.443C141.561 124.254 142.011 124.159 142.58 124.159C143.314 124.159 143.962 124.343 144.523 124.71C145.083 125.078 145.521 125.598 145.835 126.273C146.15 126.947 146.307 127.742 146.307 128.659C146.307 129.583 146.15 130.384 145.835 131.062C145.521 131.737 145.085 132.259 144.528 132.631C143.972 132.998 143.33 133.182 142.602 133.182C142.042 133.182 141.593 133.089 141.256 132.903C140.919 132.714 140.659 132.5 140.477 132.261C140.295 132.019 140.155 131.818 140.057 131.659H139.943V136.273H138.602ZM139.92 128.636C139.92 129.295 140.017 129.877 140.21 130.381C140.403 130.881 140.686 131.273 141.057 131.557C141.428 131.837 141.883 131.977 142.42 131.977C142.981 131.977 143.449 131.83 143.824 131.534C144.203 131.235 144.487 130.833 144.676 130.33C144.869 129.822 144.966 129.258 144.966 128.636C144.966 128.023 144.871 127.47 144.682 126.977C144.496 126.481 144.214 126.089 143.835 125.801C143.46 125.509 142.989 125.364 142.42 125.364C141.875 125.364 141.417 125.502 141.045 125.778C140.674 126.051 140.394 126.434 140.205 126.926C140.015 127.415 139.92 127.985 139.92 128.636ZM149.693 121.364V133H148.352V121.364H149.693ZM155.695 133.182C154.907 133.182 154.215 132.994 153.621 132.619C153.03 132.244 152.568 131.72 152.234 131.045C151.905 130.371 151.74 129.583 151.74 128.682C151.74 127.773 151.905 126.979 152.234 126.301C152.568 125.623 153.03 125.097 153.621 124.722C154.215 124.347 154.907 124.159 155.695 124.159C156.482 124.159 157.172 124.347 157.763 124.722C158.357 125.097 158.82 125.623 159.149 126.301C159.482 126.979 159.649 127.773 159.649 128.682C159.649 129.583 159.482 130.371 159.149 131.045C158.82 131.72 158.357 132.244 157.763 132.619C157.172 132.994 156.482 133.182 155.695 133.182ZM155.695 131.977C156.293 131.977 156.786 131.824 157.172 131.517C157.558 131.21 157.844 130.807 158.03 130.307C158.215 129.807 158.308 129.265 158.308 128.682C158.308 128.098 158.215 127.555 158.03 127.051C157.844 126.547 157.558 126.14 157.172 125.83C156.786 125.519 156.293 125.364 155.695 125.364C155.096 125.364 154.604 125.519 154.217 125.83C153.831 126.14 153.545 126.547 153.359 127.051C153.174 127.555 153.081 128.098 153.081 128.682C153.081 129.265 153.174 129.807 153.359 130.307C153.545 130.807 153.831 131.21 154.217 131.517C154.604 131.824 155.096 131.977 155.695 131.977ZM161.696 133V124.273H162.991V125.591H163.082C163.241 125.159 163.529 124.809 163.946 124.54C164.363 124.271 164.832 124.136 165.355 124.136C165.454 124.136 165.577 124.138 165.724 124.142C165.872 124.146 165.984 124.152 166.06 124.159V125.523C166.014 125.511 165.91 125.494 165.747 125.472C165.588 125.445 165.42 125.432 165.241 125.432C164.817 125.432 164.438 125.521 164.105 125.699C163.776 125.873 163.514 126.116 163.321 126.426C163.132 126.733 163.037 127.083 163.037 127.477V133H161.696ZM171.043 133.182C170.202 133.182 169.476 132.996 168.866 132.625C168.26 132.25 167.793 131.727 167.463 131.057C167.137 130.383 166.974 129.598 166.974 128.705C166.974 127.811 167.137 127.023 167.463 126.341C167.793 125.655 168.251 125.121 168.838 124.739C169.429 124.352 170.118 124.159 170.906 124.159C171.361 124.159 171.81 124.235 172.253 124.386C172.696 124.538 173.099 124.784 173.463 125.125C173.827 125.462 174.116 125.909 174.332 126.466C174.548 127.023 174.656 127.708 174.656 128.523V129.091H167.929V127.932H173.293C173.293 127.439 173.194 127 172.997 126.614C172.804 126.227 172.527 125.922 172.168 125.699C171.812 125.475 171.391 125.364 170.906 125.364C170.372 125.364 169.91 125.496 169.52 125.761C169.134 126.023 168.836 126.364 168.628 126.784C168.42 127.205 168.315 127.655 168.315 128.136V128.909C168.315 129.568 168.429 130.127 168.656 130.585C168.887 131.04 169.207 131.386 169.616 131.625C170.026 131.86 170.501 131.977 171.043 131.977C171.395 131.977 171.713 131.928 171.997 131.83C172.285 131.727 172.533 131.576 172.741 131.375C172.95 131.17 173.111 130.917 173.224 130.614L174.52 130.977C174.384 131.417 174.154 131.803 173.832 132.136C173.51 132.466 173.113 132.723 172.639 132.909C172.166 133.091 171.634 133.182 171.043 133.182ZM184.741 133.182C183.923 133.182 183.219 132.989 182.628 132.602C182.037 132.216 181.582 131.684 181.264 131.006C180.946 130.328 180.787 129.553 180.787 128.682C180.787 127.795 180.95 127.013 181.276 126.335C181.605 125.653 182.063 125.121 182.651 124.739C183.241 124.352 183.931 124.159 184.719 124.159C185.332 124.159 185.885 124.273 186.378 124.5C186.87 124.727 187.274 125.045 187.588 125.455C187.902 125.864 188.098 126.341 188.173 126.886H186.832C186.73 126.489 186.503 126.136 186.151 125.83C185.802 125.519 185.332 125.364 184.741 125.364C184.219 125.364 183.76 125.5 183.366 125.773C182.976 126.042 182.671 126.422 182.452 126.915C182.236 127.403 182.128 127.977 182.128 128.636C182.128 129.311 182.234 129.898 182.446 130.398C182.662 130.898 182.965 131.286 183.355 131.562C183.749 131.839 184.211 131.977 184.741 131.977C185.09 131.977 185.406 131.917 185.69 131.795C185.974 131.674 186.215 131.5 186.412 131.273C186.609 131.045 186.749 130.773 186.832 130.455H188.173C188.098 130.97 187.91 131.434 187.611 131.847C187.315 132.256 186.923 132.581 186.435 132.824C185.95 133.062 185.385 133.182 184.741 133.182ZM193.679 133.182C192.891 133.182 192.2 132.994 191.605 132.619C191.014 132.244 190.552 131.72 190.219 131.045C189.889 130.371 189.724 129.583 189.724 128.682C189.724 127.773 189.889 126.979 190.219 126.301C190.552 125.623 191.014 125.097 191.605 124.722C192.2 124.347 192.891 124.159 193.679 124.159C194.467 124.159 195.156 124.347 195.747 124.722C196.342 125.097 196.804 125.623 197.134 126.301C197.467 126.979 197.634 127.773 197.634 128.682C197.634 129.583 197.467 130.371 197.134 131.045C196.804 131.72 196.342 132.244 195.747 132.619C195.156 132.994 194.467 133.182 193.679 133.182ZM193.679 131.977C194.277 131.977 194.77 131.824 195.156 131.517C195.543 131.21 195.829 130.807 196.014 130.307C196.2 129.807 196.293 129.265 196.293 128.682C196.293 128.098 196.2 127.555 196.014 127.051C195.829 126.547 195.543 126.14 195.156 125.83C194.77 125.519 194.277 125.364 193.679 125.364C193.08 125.364 192.588 125.519 192.202 125.83C191.815 126.14 191.529 126.547 191.344 127.051C191.158 127.555 191.065 128.098 191.065 128.682C191.065 129.265 191.158 129.807 191.344 130.307C191.529 130.807 191.815 131.21 192.202 131.517C192.588 131.824 193.08 131.977 193.679 131.977ZM201.021 127.75V133H199.68V124.273H200.976V125.636H201.089C201.294 125.193 201.605 124.837 202.021 124.568C202.438 124.295 202.976 124.159 203.635 124.159C204.226 124.159 204.743 124.28 205.186 124.523C205.629 124.761 205.974 125.125 206.22 125.614C206.466 126.098 206.589 126.712 206.589 127.455V133H205.249V127.545C205.249 126.86 205.071 126.326 204.714 125.943C204.358 125.557 203.87 125.364 203.249 125.364C202.821 125.364 202.438 125.456 202.101 125.642C201.768 125.828 201.504 126.098 201.311 126.455C201.118 126.811 201.021 127.242 201.021 127.75ZM212.585 133.182C211.767 133.182 211.063 132.989 210.472 132.602C209.881 132.216 209.426 131.684 209.108 131.006C208.79 130.328 208.631 129.553 208.631 128.682C208.631 127.795 208.794 127.013 209.119 126.335C209.449 125.653 209.907 125.121 210.494 124.739C211.085 124.352 211.775 124.159 212.562 124.159C213.176 124.159 213.729 124.273 214.222 124.5C214.714 124.727 215.117 125.045 215.432 125.455C215.746 125.864 215.941 126.341 216.017 126.886H214.676C214.574 126.489 214.347 126.136 213.994 125.83C213.646 125.519 213.176 125.364 212.585 125.364C212.063 125.364 211.604 125.5 211.21 125.773C210.82 126.042 210.515 126.422 210.295 126.915C210.08 127.403 209.972 127.977 209.972 128.636C209.972 129.311 210.078 129.898 210.29 130.398C210.506 130.898 210.809 131.286 211.199 131.562C211.593 131.839 212.055 131.977 212.585 131.977C212.934 131.977 213.25 131.917 213.534 131.795C213.818 131.674 214.059 131.5 214.256 131.273C214.453 131.045 214.593 130.773 214.676 130.455H216.017C215.941 130.97 215.754 131.434 215.455 131.847C215.159 132.256 214.767 132.581 214.278 132.824C213.794 133.062 213.229 133.182 212.585 133.182ZM221.636 133.182C220.795 133.182 220.07 132.996 219.46 132.625C218.854 132.25 218.386 131.727 218.057 131.057C217.731 130.383 217.568 129.598 217.568 128.705C217.568 127.811 217.731 127.023 218.057 126.341C218.386 125.655 218.845 125.121 219.432 124.739C220.023 124.352 220.712 124.159 221.5 124.159C221.955 124.159 222.403 124.235 222.847 124.386C223.29 124.538 223.693 124.784 224.057 125.125C224.42 125.462 224.71 125.909 224.926 126.466C225.142 127.023 225.25 127.708 225.25 128.523V129.091H218.523V127.932H223.886C223.886 127.439 223.788 127 223.591 126.614C223.398 126.227 223.121 125.922 222.761 125.699C222.405 125.475 221.985 125.364 221.5 125.364C220.966 125.364 220.504 125.496 220.114 125.761C219.727 126.023 219.43 126.364 219.222 126.784C219.013 127.205 218.909 127.655 218.909 128.136V128.909C218.909 129.568 219.023 130.127 219.25 130.585C219.481 131.04 219.801 131.386 220.21 131.625C220.619 131.86 221.095 131.977 221.636 131.977C221.989 131.977 222.307 131.928 222.591 131.83C222.879 131.727 223.127 131.576 223.335 131.375C223.544 131.17 223.705 130.917 223.818 130.614L225.114 130.977C224.977 131.417 224.748 131.803 224.426 132.136C224.104 132.466 223.706 132.723 223.233 132.909C222.759 133.091 222.227 133.182 221.636 133.182ZM227.29 136.273V124.273H228.585V125.659H228.744C228.843 125.508 228.979 125.314 229.153 125.08C229.331 124.841 229.585 124.629 229.915 124.443C230.248 124.254 230.699 124.159 231.267 124.159C232.002 124.159 232.65 124.343 233.21 124.71C233.771 125.078 234.208 125.598 234.523 126.273C234.837 126.947 234.994 127.742 234.994 128.659C234.994 129.583 234.837 130.384 234.523 131.062C234.208 131.737 233.773 132.259 233.216 132.631C232.659 132.998 232.017 133.182 231.29 133.182C230.729 133.182 230.28 133.089 229.943 132.903C229.606 132.714 229.347 132.5 229.165 132.261C228.983 132.019 228.843 131.818 228.744 131.659H228.631V136.273H227.29ZM228.608 128.636C228.608 129.295 228.705 129.877 228.898 130.381C229.091 130.881 229.373 131.273 229.744 131.557C230.116 131.837 230.57 131.977 231.108 131.977C231.669 131.977 232.136 131.83 232.511 131.534C232.89 131.235 233.174 130.833 233.364 130.33C233.557 129.822 233.653 129.258 233.653 128.636C233.653 128.023 233.559 127.47 233.369 126.977C233.184 126.481 232.902 126.089 232.523 125.801C232.148 125.509 231.676 125.364 231.108 125.364C230.563 125.364 230.104 125.502 229.733 125.778C229.362 126.051 229.081 126.434 228.892 126.926C228.703 127.415 228.608 127.985 228.608 128.636ZM240.835 124.273V125.409H236.312V124.273H240.835ZM237.631 122.182H238.972V130.5C238.972 130.879 239.027 131.163 239.136 131.352C239.25 131.538 239.394 131.663 239.568 131.727C239.746 131.788 239.934 131.818 240.131 131.818C240.278 131.818 240.4 131.811 240.494 131.795C240.589 131.777 240.665 131.761 240.722 131.75L240.994 132.955C240.903 132.989 240.777 133.023 240.614 133.057C240.451 133.095 240.244 133.114 239.994 133.114C239.616 133.114 239.244 133.032 238.881 132.869C238.521 132.706 238.222 132.458 237.983 132.125C237.748 131.792 237.631 131.371 237.631 130.864V122.182ZM248.878 126.227L247.673 126.568C247.598 126.367 247.486 126.172 247.338 125.983C247.194 125.79 246.997 125.631 246.747 125.506C246.497 125.381 246.177 125.318 245.787 125.318C245.253 125.318 244.808 125.441 244.452 125.688C244.099 125.93 243.923 126.239 243.923 126.614C243.923 126.947 244.045 127.21 244.287 127.403C244.529 127.597 244.908 127.758 245.423 127.886L246.719 128.205C247.499 128.394 248.08 128.684 248.463 129.074C248.846 129.46 249.037 129.958 249.037 130.568C249.037 131.068 248.893 131.515 248.605 131.909C248.321 132.303 247.923 132.614 247.412 132.841C246.901 133.068 246.306 133.182 245.628 133.182C244.738 133.182 244.001 132.989 243.418 132.602C242.834 132.216 242.465 131.652 242.31 130.909L243.582 130.591C243.704 131.061 243.933 131.413 244.27 131.648C244.611 131.883 245.056 132 245.605 132C246.23 132 246.726 131.867 247.094 131.602C247.465 131.333 247.651 131.011 247.651 130.636C247.651 130.333 247.545 130.08 247.332 129.875C247.12 129.667 246.795 129.511 246.355 129.409L244.901 129.068C244.101 128.879 243.514 128.585 243.139 128.188C242.768 127.786 242.582 127.284 242.582 126.682C242.582 126.189 242.721 125.754 242.997 125.375C243.277 124.996 243.658 124.699 244.139 124.483C244.624 124.267 245.173 124.159 245.787 124.159C246.651 124.159 247.329 124.348 247.821 124.727C248.317 125.106 248.67 125.606 248.878 126.227ZM54.9212 148.273V149.409H50.3984V148.273H54.9212ZM51.7166 146.182H53.0575V154.5C53.0575 154.879 53.1125 155.163 53.2223 155.352C53.3359 155.538 53.4799 155.663 53.6541 155.727C53.8321 155.788 54.0196 155.818 54.2166 155.818C54.3643 155.818 54.4856 155.811 54.5803 155.795C54.675 155.777 54.7507 155.761 54.8075 155.75L55.0803 156.955C54.9893 156.989 54.8625 157.023 54.6996 157.057C54.5367 157.095 54.3303 157.114 54.0803 157.114C53.7015 157.114 53.3303 157.032 52.9666 156.869C52.6068 156.706 52.3075 156.458 52.0689 156.125C51.834 155.792 51.7166 155.371 51.7166 154.864V146.182ZM58.4666 151.75V157H57.1257V145.364H58.4666V149.636H58.5803C58.7848 149.186 59.0916 148.828 59.5007 148.562C59.9136 148.294 60.4628 148.159 61.1484 148.159C61.7431 148.159 62.264 148.278 62.7109 148.517C63.1579 148.752 63.5045 149.114 63.7507 149.602C64.0007 150.087 64.1257 150.705 64.1257 151.455V157H62.7848V151.545C62.7848 150.852 62.6049 150.316 62.245 149.938C61.889 149.555 61.3946 149.364 60.7621 149.364C60.3227 149.364 59.9287 149.456 59.5803 149.642C59.2356 149.828 58.9628 150.098 58.7621 150.455C58.5651 150.811 58.4666 151.242 58.4666 151.75ZM66.5788 157V148.273H67.8743V149.591H67.9652C68.1243 149.159 68.4122 148.809 68.8288 148.54C69.2455 148.271 69.7152 148.136 70.2379 148.136C70.3364 148.136 70.4595 148.138 70.6072 148.142C70.755 148.146 70.8667 148.152 70.9425 148.159V149.523C70.897 149.511 70.7929 149.494 70.63 149.472C70.4709 149.445 70.3023 149.432 70.1243 149.432C69.7 149.432 69.3213 149.521 68.9879 149.699C68.6584 149.873 68.397 150.116 68.2038 150.426C68.0144 150.733 67.9197 151.083 67.9197 151.477V157H66.5788ZM75.8118 157.182C75.0239 157.182 74.3326 156.994 73.7379 156.619C73.147 156.244 72.6849 155.72 72.3516 155.045C72.022 154.371 71.8572 153.583 71.8572 152.682C71.8572 151.773 72.022 150.979 72.3516 150.301C72.6849 149.623 73.147 149.097 73.7379 148.722C74.3326 148.347 75.0239 148.159 75.8118 148.159C76.5997 148.159 77.2891 148.347 77.88 148.722C78.4747 149.097 78.9368 149.623 79.2663 150.301C79.5997 150.979 79.7663 151.773 79.7663 152.682C79.7663 153.583 79.5997 154.371 79.2663 155.045C78.9368 155.72 78.4747 156.244 77.88 156.619C77.2891 156.994 76.5997 157.182 75.8118 157.182ZM75.8118 155.977C76.4103 155.977 76.9027 155.824 77.2891 155.517C77.6754 155.21 77.9614 154.807 78.147 154.307C78.3326 153.807 78.4254 153.265 78.4254 152.682C78.4254 152.098 78.3326 151.555 78.147 151.051C77.9614 150.547 77.6754 150.14 77.2891 149.83C76.9027 149.519 76.4103 149.364 75.8118 149.364C75.2133 149.364 74.7209 149.519 74.3345 149.83C73.9482 150.14 73.6622 150.547 73.4766 151.051C73.291 151.555 73.1982 152.098 73.1982 152.682C73.1982 153.265 73.291 153.807 73.4766 154.307C73.6622 154.807 73.9482 155.21 74.3345 155.517C74.7209 155.824 75.2133 155.977 75.8118 155.977ZM87.3132 153.432V148.273H88.6541V157H87.3132V155.523H87.2223C87.0178 155.966 86.6996 156.343 86.2678 156.653C85.8359 156.96 85.2905 157.114 84.6314 157.114C84.0859 157.114 83.6011 156.994 83.1768 156.756C82.7526 156.513 82.4193 156.15 82.1768 155.665C81.9344 155.176 81.8132 154.561 81.8132 153.818V148.273H83.1541V153.727C83.1541 154.364 83.3321 154.871 83.6882 155.25C84.0481 155.629 84.5064 155.818 85.0632 155.818C85.3965 155.818 85.7356 155.733 86.0803 155.562C86.4287 155.392 86.7204 155.131 86.9553 154.778C87.1939 154.426 87.3132 153.977 87.3132 153.432ZM94.6328 160.455C93.9851 160.455 93.4283 160.371 92.9624 160.205C92.4964 160.042 92.1082 159.826 91.7976 159.557C91.4908 159.292 91.2464 159.008 91.0646 158.705L92.1328 157.955C92.254 158.114 92.4074 158.295 92.593 158.5C92.7786 158.708 93.0324 158.888 93.3544 159.04C93.6802 159.195 94.1063 159.273 94.6328 159.273C95.3374 159.273 95.9188 159.102 96.3771 158.761C96.8355 158.42 97.0646 157.886 97.0646 157.159V155.386H96.951C96.8525 155.545 96.7124 155.742 96.5305 155.977C96.3525 156.208 96.0949 156.415 95.7578 156.597C95.4245 156.775 94.9737 156.864 94.4055 156.864C93.701 156.864 93.0684 156.697 92.5078 156.364C91.951 156.03 91.5097 155.545 91.1839 154.909C90.862 154.273 90.701 153.5 90.701 152.591C90.701 151.697 90.8582 150.919 91.1726 150.256C91.487 149.589 91.9245 149.074 92.4851 148.71C93.0457 148.343 93.6934 148.159 94.4283 148.159C94.9964 148.159 95.4472 148.254 95.7805 148.443C96.1177 148.629 96.3752 148.841 96.5533 149.08C96.7351 149.314 96.8752 149.508 96.9737 149.659H97.1101V148.273H98.4055V157.25C98.4055 158 98.2351 158.61 97.8942 159.08C97.5571 159.553 97.1025 159.9 96.5305 160.119C95.9624 160.343 95.3298 160.455 94.6328 160.455ZM94.5874 155.659C95.1252 155.659 95.5798 155.536 95.951 155.29C96.3222 155.044 96.6044 154.689 96.7976 154.227C96.9908 153.765 97.0874 153.212 97.0874 152.568C97.0874 151.939 96.9927 151.384 96.8033 150.903C96.6139 150.422 96.3336 150.045 95.9624 149.773C95.5911 149.5 95.1328 149.364 94.5874 149.364C94.0192 149.364 93.5457 149.508 93.1669 149.795C92.7919 150.083 92.5097 150.47 92.3203 150.955C92.1347 151.439 92.0419 151.977 92.0419 152.568C92.0419 153.174 92.1366 153.71 92.326 154.176C92.5192 154.638 92.8033 155.002 93.1783 155.267C93.5571 155.528 94.0268 155.659 94.5874 155.659ZM102.201 151.75V157H100.86V145.364H102.201V149.636H102.315C102.519 149.186 102.826 148.828 103.235 148.562C103.648 148.294 104.197 148.159 104.883 148.159C105.478 148.159 105.998 148.278 106.445 148.517C106.892 148.752 107.239 149.114 107.485 149.602C107.735 150.087 107.86 150.705 107.86 151.455V157H106.519V151.545C106.519 150.852 106.339 150.316 105.979 149.938C105.623 149.555 105.129 149.364 104.496 149.364C104.057 149.364 103.663 149.456 103.315 149.642C102.97 149.828 102.697 150.098 102.496 150.455C102.299 150.811 102.201 151.242 102.201 151.75ZM120.995 150.227L119.79 150.568C119.715 150.367 119.603 150.172 119.455 149.983C119.311 149.79 119.114 149.631 118.864 149.506C118.614 149.381 118.294 149.318 117.904 149.318C117.37 149.318 116.925 149.441 116.569 149.688C116.217 149.93 116.04 150.239 116.04 150.614C116.04 150.947 116.162 151.21 116.404 151.403C116.647 151.597 117.025 151.758 117.54 151.886L118.836 152.205C119.616 152.394 120.198 152.684 120.58 153.074C120.963 153.46 121.154 153.958 121.154 154.568C121.154 155.068 121.01 155.515 120.722 155.909C120.438 156.303 120.04 156.614 119.529 156.841C119.018 157.068 118.423 157.182 117.745 157.182C116.855 157.182 116.118 156.989 115.535 156.602C114.951 156.216 114.582 155.652 114.427 154.909L115.7 154.591C115.821 155.061 116.05 155.413 116.387 155.648C116.728 155.883 117.173 156 117.722 156C118.347 156 118.844 155.867 119.211 155.602C119.582 155.333 119.768 155.011 119.768 154.636C119.768 154.333 119.662 154.08 119.45 153.875C119.237 153.667 118.912 153.511 118.472 153.409L117.018 153.068C116.219 152.879 115.631 152.585 115.256 152.188C114.885 151.786 114.7 151.284 114.7 150.682C114.7 150.189 114.838 149.754 115.114 149.375C115.395 148.996 115.775 148.699 116.256 148.483C116.741 148.267 117.29 148.159 117.904 148.159C118.768 148.159 119.446 148.348 119.938 148.727C120.434 149.106 120.787 149.606 120.995 150.227ZM126.718 157.182C125.93 157.182 125.239 156.994 124.644 156.619C124.053 156.244 123.591 155.72 123.258 155.045C122.928 154.371 122.763 153.583 122.763 152.682C122.763 151.773 122.928 150.979 123.258 150.301C123.591 149.623 124.053 149.097 124.644 148.722C125.239 148.347 125.93 148.159 126.718 148.159C127.506 148.159 128.195 148.347 128.786 148.722C129.381 149.097 129.843 149.623 130.173 150.301C130.506 150.979 130.673 151.773 130.673 152.682C130.673 153.583 130.506 154.371 130.173 155.045C129.843 155.72 129.381 156.244 128.786 156.619C128.195 156.994 127.506 157.182 126.718 157.182ZM126.718 155.977C127.317 155.977 127.809 155.824 128.195 155.517C128.582 155.21 128.868 154.807 129.053 154.307C129.239 153.807 129.332 153.265 129.332 152.682C129.332 152.098 129.239 151.555 129.053 151.051C128.868 150.547 128.582 150.14 128.195 149.83C127.809 149.519 127.317 149.364 126.718 149.364C126.12 149.364 125.627 149.519 125.241 149.83C124.854 150.14 124.568 150.547 124.383 151.051C124.197 151.555 124.104 152.098 124.104 152.682C124.104 153.265 124.197 153.807 124.383 154.307C124.568 154.807 124.854 155.21 125.241 155.517C125.627 155.824 126.12 155.977 126.718 155.977ZM138.219 153.432V148.273H139.56V157H138.219V155.523H138.129C137.924 155.966 137.606 156.343 137.174 156.653C136.742 156.96 136.197 157.114 135.538 157.114C134.992 157.114 134.507 156.994 134.083 156.756C133.659 156.513 133.326 156.15 133.083 155.665C132.841 155.176 132.719 154.561 132.719 153.818V148.273H134.06V153.727C134.06 154.364 134.238 154.871 134.594 155.25C134.954 155.629 135.413 155.818 135.969 155.818C136.303 155.818 136.642 155.733 136.987 155.562C137.335 155.392 137.627 155.131 137.862 154.778C138.1 154.426 138.219 153.977 138.219 153.432ZM143.357 151.75V157H142.016V148.273H143.312V149.636H143.425C143.63 149.193 143.941 148.837 144.357 148.568C144.774 148.295 145.312 148.159 145.971 148.159C146.562 148.159 147.079 148.28 147.522 148.523C147.965 148.761 148.31 149.125 148.556 149.614C148.802 150.098 148.925 150.712 148.925 151.455V157H147.585V151.545C147.585 150.86 147.406 150.326 147.05 149.943C146.694 149.557 146.206 149.364 145.585 149.364C145.156 149.364 144.774 149.456 144.437 149.642C144.103 149.828 143.84 150.098 143.647 150.455C143.454 150.811 143.357 151.242 143.357 151.75ZM154.671 157.182C153.944 157.182 153.302 156.998 152.745 156.631C152.188 156.259 151.753 155.737 151.438 155.062C151.124 154.384 150.967 153.583 150.967 152.659C150.967 151.742 151.124 150.947 151.438 150.273C151.753 149.598 152.19 149.078 152.751 148.71C153.311 148.343 153.959 148.159 154.694 148.159C155.262 148.159 155.711 148.254 156.04 148.443C156.374 148.629 156.628 148.841 156.802 149.08C156.98 149.314 157.118 149.508 157.217 149.659H157.33V145.364H158.671V157H157.376V155.659H157.217C157.118 155.818 156.978 156.019 156.796 156.261C156.614 156.5 156.355 156.714 156.018 156.903C155.681 157.089 155.232 157.182 154.671 157.182ZM154.853 155.977C155.391 155.977 155.845 155.837 156.217 155.557C156.588 155.273 156.87 154.881 157.063 154.381C157.256 153.877 157.353 153.295 157.353 152.636C157.353 151.985 157.258 151.415 157.069 150.926C156.879 150.434 156.599 150.051 156.228 149.778C155.857 149.502 155.398 149.364 154.853 149.364C154.285 149.364 153.811 149.509 153.433 149.801C153.058 150.089 152.775 150.481 152.586 150.977C152.4 151.47 152.308 152.023 152.308 152.636C152.308 153.258 152.402 153.822 152.592 154.33C152.785 154.833 153.069 155.235 153.444 155.534C153.823 155.83 154.292 155.977 154.853 155.977ZM167.495 150.227L166.29 150.568C166.215 150.367 166.103 150.172 165.955 149.983C165.811 149.79 165.614 149.631 165.364 149.506C165.114 149.381 164.794 149.318 164.404 149.318C163.87 149.318 163.425 149.441 163.069 149.688C162.717 149.93 162.54 150.239 162.54 150.614C162.54 150.947 162.662 151.21 162.904 151.403C163.147 151.597 163.525 151.758 164.04 151.886L165.336 152.205C166.116 152.394 166.698 152.684 167.08 153.074C167.463 153.46 167.654 153.958 167.654 154.568C167.654 155.068 167.51 155.515 167.222 155.909C166.938 156.303 166.54 156.614 166.029 156.841C165.518 157.068 164.923 157.182 164.245 157.182C163.355 157.182 162.618 156.989 162.035 156.602C161.451 156.216 161.082 155.652 160.927 154.909L162.2 154.591C162.321 155.061 162.55 155.413 162.887 155.648C163.228 155.883 163.673 156 164.222 156C164.847 156 165.344 155.867 165.711 155.602C166.082 155.333 166.268 155.011 166.268 154.636C166.268 154.333 166.162 154.08 165.95 153.875C165.737 153.667 165.412 153.511 164.972 153.409L163.518 153.068C162.719 152.879 162.131 152.585 161.756 152.188C161.385 151.786 161.2 151.284 161.2 150.682C161.2 150.189 161.338 149.754 161.614 149.375C161.895 148.996 162.275 148.699 162.756 148.483C163.241 148.267 163.79 148.159 164.404 148.159C165.268 148.159 165.946 148.348 166.438 148.727C166.934 149.106 167.287 149.606 167.495 150.227ZM176.741 157.205C176.188 157.205 175.686 157.1 175.235 156.892C174.784 156.68 174.426 156.375 174.161 155.977C173.896 155.576 173.763 155.091 173.763 154.523C173.763 154.023 173.862 153.617 174.059 153.307C174.256 152.992 174.519 152.746 174.849 152.568C175.178 152.39 175.542 152.258 175.94 152.17C176.341 152.08 176.745 152.008 177.15 151.955C177.68 151.886 178.11 151.835 178.44 151.801C178.773 151.763 179.015 151.701 179.167 151.614C179.322 151.527 179.4 151.375 179.4 151.159V151.114C179.4 150.553 179.246 150.117 178.94 149.807C178.637 149.496 178.176 149.341 177.559 149.341C176.919 149.341 176.417 149.481 176.053 149.761C175.69 150.042 175.434 150.341 175.286 150.659L174.013 150.205C174.241 149.674 174.544 149.261 174.923 148.966C175.305 148.667 175.722 148.458 176.173 148.341C176.627 148.22 177.074 148.159 177.513 148.159C177.794 148.159 178.116 148.193 178.479 148.261C178.847 148.326 179.201 148.46 179.542 148.665C179.887 148.869 180.173 149.178 180.4 149.591C180.627 150.004 180.741 150.557 180.741 151.25V157H179.4V155.818H179.332C179.241 156.008 179.089 156.21 178.877 156.426C178.665 156.642 178.383 156.826 178.031 156.977C177.678 157.129 177.248 157.205 176.741 157.205ZM176.945 156C177.476 156 177.923 155.896 178.286 155.688C178.654 155.479 178.93 155.21 179.116 154.881C179.305 154.551 179.4 154.205 179.4 153.841V152.614C179.343 152.682 179.218 152.744 179.025 152.801C178.835 152.854 178.616 152.902 178.366 152.943C178.12 152.981 177.879 153.015 177.644 153.045C177.413 153.072 177.226 153.095 177.082 153.114C176.733 153.159 176.407 153.233 176.104 153.335C175.805 153.434 175.563 153.583 175.377 153.784C175.195 153.981 175.104 154.25 175.104 154.591C175.104 155.057 175.277 155.409 175.621 155.648C175.97 155.883 176.411 156 176.945 156ZM184.529 151.75V157H183.188V148.273H184.484V149.636H184.597C184.802 149.193 185.112 148.837 185.529 148.568C185.946 148.295 186.484 148.159 187.143 148.159C187.734 148.159 188.251 148.28 188.694 148.523C189.137 148.761 189.482 149.125 189.728 149.614C189.974 150.098 190.097 150.712 190.097 151.455V157H188.756V151.545C188.756 150.86 188.578 150.326 188.222 149.943C187.866 149.557 187.378 149.364 186.756 149.364C186.328 149.364 185.946 149.456 185.609 149.642C185.275 149.828 185.012 150.098 184.819 150.455C184.626 150.811 184.529 151.242 184.529 151.75ZM195.843 157.182C195.116 157.182 194.474 156.998 193.917 156.631C193.36 156.259 192.924 155.737 192.61 155.062C192.296 154.384 192.138 153.583 192.138 152.659C192.138 151.742 192.296 150.947 192.61 150.273C192.924 149.598 193.362 149.078 193.923 148.71C194.483 148.343 195.131 148.159 195.866 148.159C196.434 148.159 196.883 148.254 197.212 148.443C197.546 148.629 197.799 148.841 197.974 149.08C198.152 149.314 198.29 149.508 198.388 149.659H198.502V145.364H199.843V157H198.548V155.659H198.388C198.29 155.818 198.15 156.019 197.968 156.261C197.786 156.5 197.527 156.714 197.19 156.903C196.853 157.089 196.404 157.182 195.843 157.182ZM196.025 155.977C196.563 155.977 197.017 155.837 197.388 155.557C197.76 155.273 198.042 154.881 198.235 154.381C198.428 153.877 198.525 153.295 198.525 152.636C198.525 151.985 198.43 151.415 198.241 150.926C198.051 150.434 197.771 150.051 197.4 149.778C197.029 149.502 196.57 149.364 196.025 149.364C195.457 149.364 194.983 149.509 194.604 149.801C194.229 150.089 193.947 150.481 193.758 150.977C193.572 151.47 193.479 152.023 193.479 152.636C193.479 153.258 193.574 153.822 193.763 154.33C193.957 154.833 194.241 155.235 194.616 155.534C194.995 155.83 195.464 155.977 196.025 155.977ZM210.531 157.182C209.712 157.182 209.008 156.989 208.417 156.602C207.826 156.216 207.371 155.684 207.053 155.006C206.735 154.328 206.576 153.553 206.576 152.682C206.576 151.795 206.739 151.013 207.065 150.335C207.394 149.653 207.853 149.121 208.44 148.739C209.031 148.352 209.72 148.159 210.508 148.159C211.121 148.159 211.674 148.273 212.167 148.5C212.659 148.727 213.063 149.045 213.377 149.455C213.692 149.864 213.887 150.341 213.962 150.886H212.621C212.519 150.489 212.292 150.136 211.94 149.83C211.591 149.519 211.121 149.364 210.531 149.364C210.008 149.364 209.549 149.5 209.156 149.773C208.765 150.042 208.46 150.422 208.241 150.915C208.025 151.403 207.917 151.977 207.917 152.636C207.917 153.311 208.023 153.898 208.235 154.398C208.451 154.898 208.754 155.286 209.144 155.562C209.538 155.839 210 155.977 210.531 155.977C210.879 155.977 211.195 155.917 211.479 155.795C211.763 155.674 212.004 155.5 212.201 155.273C212.398 155.045 212.538 154.773 212.621 154.455H213.962C213.887 154.97 213.699 155.434 213.4 155.847C213.104 156.256 212.712 156.581 212.224 156.824C211.739 157.062 211.174 157.182 210.531 157.182ZM218.491 157.205C217.938 157.205 217.436 157.1 216.985 156.892C216.534 156.68 216.176 156.375 215.911 155.977C215.646 155.576 215.513 155.091 215.513 154.523C215.513 154.023 215.612 153.617 215.809 153.307C216.006 152.992 216.269 152.746 216.599 152.568C216.928 152.39 217.292 152.258 217.69 152.17C218.091 152.08 218.495 152.008 218.9 151.955C219.43 151.886 219.86 151.835 220.19 151.801C220.523 151.763 220.765 151.701 220.917 151.614C221.072 151.527 221.15 151.375 221.15 151.159V151.114C221.15 150.553 220.996 150.117 220.69 149.807C220.387 149.496 219.926 149.341 219.309 149.341C218.669 149.341 218.167 149.481 217.803 149.761C217.44 150.042 217.184 150.341 217.036 150.659L215.763 150.205C215.991 149.674 216.294 149.261 216.673 148.966C217.055 148.667 217.472 148.458 217.923 148.341C218.377 148.22 218.824 148.159 219.263 148.159C219.544 148.159 219.866 148.193 220.229 148.261C220.597 148.326 220.951 148.46 221.292 148.665C221.637 148.869 221.923 149.178 222.15 149.591C222.377 150.004 222.491 150.557 222.491 151.25V157H221.15V155.818H221.082C220.991 156.008 220.839 156.21 220.627 156.426C220.415 156.642 220.133 156.826 219.781 156.977C219.428 157.129 218.998 157.205 218.491 157.205ZM218.695 156C219.226 156 219.673 155.896 220.036 155.688C220.404 155.479 220.68 155.21 220.866 154.881C221.055 154.551 221.15 154.205 221.15 153.841V152.614C221.093 152.682 220.968 152.744 220.775 152.801C220.585 152.854 220.366 152.902 220.116 152.943C219.87 152.981 219.629 153.015 219.394 153.045C219.163 153.072 218.976 153.095 218.832 153.114C218.483 153.159 218.157 153.233 217.854 153.335C217.555 153.434 217.313 153.583 217.127 153.784C216.945 153.981 216.854 154.25 216.854 154.591C216.854 155.057 217.027 155.409 217.371 155.648C217.72 155.883 218.161 156 218.695 156ZM224.938 157V148.273H226.234V149.591H226.325C226.484 149.159 226.772 148.809 227.188 148.54C227.605 148.271 228.075 148.136 228.597 148.136C228.696 148.136 228.819 148.138 228.967 148.142C229.114 148.146 229.226 148.152 229.302 148.159V149.523C229.256 149.511 229.152 149.494 228.989 149.472C228.83 149.445 228.662 149.432 228.484 149.432C228.059 149.432 227.681 149.521 227.347 149.699C227.018 149.873 226.756 150.116 226.563 150.426C226.374 150.733 226.279 151.083 226.279 151.477V157H224.938ZM233.921 157.182C233.194 157.182 232.552 156.998 231.995 156.631C231.438 156.259 231.003 155.737 230.688 155.062C230.374 154.384 230.217 153.583 230.217 152.659C230.217 151.742 230.374 150.947 230.688 150.273C231.003 149.598 231.44 149.078 232.001 148.71C232.561 148.343 233.209 148.159 233.944 148.159C234.512 148.159 234.961 148.254 235.29 148.443C235.624 148.629 235.878 148.841 236.052 149.08C236.23 149.314 236.368 149.508 236.467 149.659H236.58V145.364H237.921V157H236.626V155.659H236.467C236.368 155.818 236.228 156.019 236.046 156.261C235.864 156.5 235.605 156.714 235.268 156.903C234.931 157.089 234.482 157.182 233.921 157.182ZM234.103 155.977C234.641 155.977 235.095 155.837 235.467 155.557C235.838 155.273 236.12 154.881 236.313 154.381C236.506 153.877 236.603 153.295 236.603 152.636C236.603 151.985 236.508 151.415 236.319 150.926C236.129 150.434 235.849 150.051 235.478 149.778C235.107 149.502 234.648 149.364 234.103 149.364C233.535 149.364 233.061 149.509 232.683 149.801C232.308 150.089 232.025 150.481 231.836 150.977C231.65 151.47 231.558 152.023 231.558 152.636C231.558 153.258 231.652 153.822 231.842 154.33C232.035 154.833 232.319 155.235 232.694 155.534C233.073 155.83 233.542 155.977 234.103 155.977ZM246.745 150.227L245.54 150.568C245.465 150.367 245.353 150.172 245.205 149.983C245.061 149.79 244.864 149.631 244.614 149.506C244.364 149.381 244.044 149.318 243.654 149.318C243.12 149.318 242.675 149.441 242.319 149.688C241.967 149.93 241.79 150.239 241.79 150.614C241.79 150.947 241.912 151.21 242.154 151.403C242.397 151.597 242.775 151.758 243.29 151.886L244.586 152.205C245.366 152.394 245.948 152.684 246.33 153.074C246.713 153.46 246.904 153.958 246.904 154.568C246.904 155.068 246.76 155.515 246.472 155.909C246.188 156.303 245.79 156.614 245.279 156.841C244.768 157.068 244.173 157.182 243.495 157.182C242.605 157.182 241.868 156.989 241.285 156.602C240.701 156.216 240.332 155.652 240.177 154.909L241.45 154.591C241.571 155.061 241.8 155.413 242.137 155.648C242.478 155.883 242.923 156 243.472 156C244.097 156 244.594 155.867 244.961 155.602C245.332 155.333 245.518 155.011 245.518 154.636C245.518 154.333 245.412 154.08 245.2 153.875C244.987 153.667 244.662 153.511 244.222 153.409L242.768 153.068C241.969 152.879 241.381 152.585 241.006 152.188C240.635 151.786 240.45 151.284 240.45 150.682C240.45 150.189 240.588 149.754 240.864 149.375C241.145 148.996 241.525 148.699 242.006 148.483C242.491 148.267 243.04 148.159 243.654 148.159C244.518 148.159 245.196 148.348 245.688 148.727C246.184 149.106 246.537 149.606 246.745 150.227ZM249.9 157.091C249.62 157.091 249.379 156.991 249.178 156.79C248.978 156.589 248.877 156.348 248.877 156.068C248.877 155.788 248.978 155.547 249.178 155.347C249.379 155.146 249.62 155.045 249.9 155.045C250.18 155.045 250.421 155.146 250.621 155.347C250.822 155.547 250.923 155.788 250.923 156.068C250.923 156.254 250.875 156.424 250.781 156.58C250.69 156.735 250.567 156.86 250.411 156.955C250.26 157.045 250.089 157.091 249.9 157.091Z" fill="#DFEBF3"/>
<circle cx="151" cy="36" r="33.5" fill="#A2BD6C" stroke="#DFEBF3" stroke-width="5"/>
<path d="M161.651 22.0374C161.243 22.0957 160.489 22.2819 160.103 22.4209C159.917 22.4876 159.355 22.7183 158.853 22.9323C158.351 23.1436 157.798 23.3798 157.621 23.4521C157.445 23.5244 156.66 23.8746 155.872 24.2303C155.088 24.5833 154.212 24.9724 153.926 25.092C152.895 25.5283 151.736 26.0759 151.371 26.2955C150.964 26.5428 150.45 26.9486 150.219 27.2099C150.133 27.3044 150.054 27.3822 150.042 27.3822C150.03 27.385 149.92 27.3155 149.799 27.2294C149.641 27.1181 149.267 26.9347 148.482 26.5845C147.88 26.3121 146.663 25.759 145.775 25.3504C143.637 24.3693 142.171 23.7523 140.133 22.9851C138.835 22.496 138.43 22.3876 138.017 22.4209C137.749 22.4404 137.378 22.5293 137.275 22.5988C137.153 22.6794 137.068 22.8712 137.031 23.1464C137.013 23.2825 136.952 23.566 136.894 23.7717C136.764 24.247 136.697 24.5778 136.545 25.4811C136.347 26.6651 136.307 27.0126 136.21 28.4273C136.052 30.7342 136.003 32.4074 136 35.8206C135.994 39.7229 136.082 42.3356 136.274 43.7225C136.365 44.4007 136.444 44.6425 136.694 45.0205C136.755 45.1123 136.843 45.2568 136.888 45.3429C136.995 45.5459 137.165 45.7182 137.433 45.9016C137.551 45.9822 137.719 46.0962 137.804 46.1546C138.041 46.3185 138.427 46.4853 138.996 46.6687C139.653 46.8828 139.96 46.9939 140.985 47.397C141.736 47.6916 143.275 48.2725 145.653 49.1535C146.472 49.4565 147.755 49.8651 148.452 50.0402C148.801 50.1291 148.838 50.1347 149.364 50.1347C149.665 50.1347 149.969 50.1264 150.039 50.1153C150.149 50.0958 150.176 50.1013 150.264 50.1681C150.319 50.2097 150.404 50.2598 150.456 50.2764C150.507 50.2959 150.66 50.3515 150.793 50.3988C151.526 50.6683 152.445 50.8073 153.023 50.7323C153.527 50.6683 155.325 50.1597 156.982 49.6121C158.001 49.2731 158.458 49.1147 159.701 48.6588C161.511 47.9945 162.32 47.7639 163.658 47.5359C164.026 47.4748 164.403 47.4025 164.495 47.3803C164.957 47.258 165.246 47.0245 165.425 46.6132C165.468 46.5214 165.535 46.4019 165.574 46.3463C165.614 46.288 165.662 46.1823 165.681 46.1101C165.699 46.035 165.732 45.9489 165.757 45.9155C165.781 45.8822 165.845 45.6904 165.9 45.493L166 45.1317L165.997 43.9783C165.997 43.3445 165.979 42.5691 165.957 42.255C165.912 41.5185 165.766 39.5728 165.65 38.1414C165.599 37.5216 165.526 36.4404 165.483 35.7372C165.331 33.1607 165.246 32.2963 164.936 30.1644C164.844 29.5446 164.729 28.733 164.677 28.3578C164.498 27.0543 164.343 26.2009 164.081 25.1031C163.853 24.1331 163.619 23.4715 163.29 22.8712C163.056 22.4376 162.87 22.2403 162.639 22.1736C162.597 22.1624 162.53 22.1291 162.484 22.0985C162.323 21.9901 162.104 21.9734 161.651 22.0374ZM162.092 23.5827C162.335 24.1886 162.448 24.5972 162.594 25.3699C162.816 26.5734 162.956 27.8853 163.108 30.22C163.217 31.8821 163.229 32.4769 163.232 37.0019C163.232 41.2988 163.239 41.5713 163.302 42.6163C163.339 43.2195 163.384 43.8949 163.4 44.1172C163.418 44.3396 163.442 44.6453 163.451 44.8009L163.47 45.0817L163.336 45.14C163.263 45.1734 162.84 45.2679 162.396 45.3568C161.474 45.5347 160.45 45.7682 159.096 46.1073C158.579 46.2379 157.469 46.4992 156.633 46.6882C153.984 47.2858 152.031 47.8027 151.557 48.0307C151.472 48.0724 151.392 48.1085 151.383 48.1141C151.371 48.1196 151.353 48.0251 151.344 47.9056C151.332 47.7861 151.268 47.3386 151.204 46.9105C150.882 44.8121 150.83 44.2812 150.763 42.3384C150.739 41.5963 150.687 40.3844 150.65 39.6423C150.574 38.1414 150.556 35.5704 150.608 33.5831C150.635 32.4464 150.617 31.8349 150.501 30.3312C150.471 29.8949 150.434 29.325 150.422 29.0638L150.404 28.5913L150.553 28.5385C150.769 28.4662 151.344 28.1994 151.782 27.9687C151.992 27.8603 152.804 27.4767 153.591 27.1154C155.285 26.3399 155.675 26.1509 156.481 25.7173C157.591 25.1225 158.388 24.7501 160.297 23.9385C160.954 23.6605 161.523 23.5021 161.885 23.4966C162.049 23.4938 162.055 23.4966 162.092 23.5827ZM138.178 23.605C138.452 23.6856 138.762 23.8134 139.616 24.197C140.386 24.5416 142.129 25.2559 143.525 25.8007C143.926 25.9591 144.632 26.2426 145.091 26.4316C146.925 27.1904 147.402 27.3766 148.816 27.8853C149.169 28.0103 149.467 28.1216 149.48 28.1327C149.492 28.1438 149.483 28.2661 149.455 28.4023C149.361 28.9248 149.346 29.2028 149.318 30.9844C149.303 31.9933 149.27 33.144 149.245 33.5415C149.163 34.8005 149.136 35.601 149.105 37.6967C149.09 38.8196 149.054 40.3344 149.023 41.0599C148.95 43.0027 148.953 44.6509 149.038 45.8127C149.075 46.3241 149.115 46.9801 149.124 47.2691C149.145 47.7805 149.145 47.7944 149.087 47.775C148.865 47.6916 148.181 47.4692 147.889 47.3858C147.697 47.3274 146.986 47.1162 146.307 46.9105C145.629 46.7076 144.571 46.3964 143.95 46.2185C142.296 45.7487 141.821 45.5959 140.666 45.1734C140.365 45.0622 139.866 44.8871 139.556 44.7787C138.932 44.5647 138.82 44.5119 138.549 44.3062C138.333 44.1422 138.281 44.0533 138.172 43.6419C138.017 43.0555 137.938 42.4051 137.792 40.49C137.658 38.7251 137.637 38.2526 137.548 35.3481C137.53 34.7811 137.497 34.0251 137.472 33.6665C137.366 32.1406 137.357 27.6073 137.457 26.4956C137.564 25.3199 137.676 24.4972 137.813 23.9051C137.904 23.5021 137.886 23.516 138.178 23.605Z" fill="#DFEBF3"/>
</svg>
