<svg width="302" height="190" viewBox="0 0 302 190" fill="none" xmlns="http://www.w3.org/2000/svg">
<rect y="43" width="302" height="147" rx="20" fill="#3B68AB"/>
<path d="M64.6934 104C64.1867 104 63.7934 103.86 63.5134 103.58C63.2467 103.3 63.1134 102.913 63.1134 102.42V91.44C63.1134 90.92 63.2467 90.5267 63.5134 90.26C63.78 89.9933 64.1667 89.86 64.6734 89.86C65.1667 89.86 65.5467 89.9933 65.8134 90.26C66.08 90.5267 66.2134 90.92 66.2134 91.44V101.38H71.5734C72 101.38 72.3267 101.493 72.5534 101.72C72.7934 101.947 72.9134 102.267 72.9134 102.68C72.9134 103.107 72.7934 103.433 72.5534 103.66C72.3267 103.887 72 104 71.5734 104H64.6934ZM75.8382 104.16C75.3449 104.16 74.9649 104.02 74.6982 103.74C74.4449 103.447 74.3182 103.04 74.3182 102.52V95.68C74.3182 95.1467 74.4449 94.74 74.6982 94.46C74.9649 94.1667 75.3449 94.02 75.8382 94.02C76.3182 94.02 76.6849 94.1667 76.9382 94.46C77.2049 94.74 77.3382 95.1467 77.3382 95.68V102.52C77.3382 103.04 77.2115 103.447 76.9582 103.74C76.7049 104.02 76.3315 104.16 75.8382 104.16ZM75.8382 92.38C75.2782 92.38 74.8449 92.2533 74.5382 92C74.2449 91.7333 74.0982 91.36 74.0982 90.88C74.0982 90.3867 74.2449 90.0133 74.5382 89.76C74.8449 89.4933 75.2782 89.36 75.8382 89.36C76.3982 89.36 76.8249 89.4933 77.1182 89.76C77.4115 90.0133 77.5582 90.3867 77.5582 90.88C77.5582 91.36 77.4115 91.7333 77.1182 92C76.8249 92.2533 76.3982 92.38 75.8382 92.38ZM83.4298 104.22C82.8431 104.22 82.2364 104.167 81.6098 104.06C80.9964 103.953 80.4364 103.773 79.9298 103.52C79.6631 103.387 79.4698 103.22 79.3498 103.02C79.2431 102.807 79.1964 102.593 79.2098 102.38C79.2231 102.167 79.2898 101.973 79.4098 101.8C79.5431 101.627 79.7098 101.513 79.9098 101.46C80.1231 101.393 80.3564 101.413 80.6098 101.52C81.1564 101.747 81.6564 101.907 82.1098 102C82.5631 102.093 83.0098 102.14 83.4498 102.14C84.0231 102.14 84.4364 102.053 84.6898 101.88C84.9564 101.693 85.0898 101.453 85.0898 101.16C85.0898 100.893 85.0031 100.693 84.8298 100.56C84.6564 100.427 84.4031 100.333 84.0698 100.28L81.9698 99.9C81.1431 99.7533 80.5031 99.4533 80.0498 99C79.6098 98.5333 79.3898 97.94 79.3898 97.22C79.3898 96.5533 79.5764 95.98 79.9498 95.5C80.3231 95.0067 80.8364 94.6333 81.4898 94.38C82.1564 94.1133 82.9098 93.98 83.7498 93.98C84.3498 93.98 84.9031 94.0333 85.4098 94.14C85.9164 94.2467 86.4031 94.42 86.8698 94.66C87.1098 94.78 87.2764 94.94 87.3698 95.14C87.4764 95.34 87.5098 95.5467 87.4698 95.76C87.4431 95.9733 87.3631 96.1667 87.2298 96.34C87.0964 96.5133 86.9231 96.6267 86.7098 96.68C86.5098 96.7333 86.2764 96.7067 86.0098 96.6C85.5831 96.4 85.1898 96.26 84.8298 96.18C84.4698 96.0867 84.1231 96.04 83.7898 96.04C83.1898 96.04 82.7564 96.14 82.4898 96.34C82.2231 96.5267 82.0898 96.7667 82.0898 97.06C82.0898 97.2867 82.1631 97.48 82.3098 97.64C82.4698 97.7867 82.7098 97.8867 83.0298 97.94L85.1298 98.32C85.9964 98.4667 86.6564 98.76 87.1098 99.2C87.5631 99.6267 87.7898 100.213 87.7898 100.96C87.7898 101.973 87.3898 102.773 86.5898 103.36C85.8031 103.933 84.7498 104.22 83.4298 104.22ZM94.2359 104.22C93.3159 104.22 92.5425 104.067 91.9159 103.76C91.3025 103.453 90.8425 103.007 90.5359 102.42C90.2425 101.833 90.0959 101.093 90.0959 100.2V96.44H89.2559C88.8825 96.44 88.5892 96.34 88.3759 96.14C88.1759 95.94 88.0759 95.6667 88.0759 95.32C88.0759 94.9467 88.1759 94.6667 88.3759 94.48C88.5892 94.28 88.8825 94.18 89.2559 94.18H90.0959V92.66C90.0959 92.1533 90.2292 91.7733 90.4959 91.52C90.7625 91.2533 91.1359 91.12 91.6159 91.12C92.1092 91.12 92.4825 91.2533 92.7359 91.52C92.9892 91.7733 93.1159 92.1533 93.1159 92.66V94.18H95.0159C95.3892 94.18 95.6759 94.28 95.8759 94.48C96.0759 94.6667 96.1759 94.9467 96.1759 95.32C96.1759 95.6667 96.0759 95.94 95.8759 96.14C95.6759 96.34 95.3892 96.44 95.0159 96.44H93.1159V100.08C93.1159 100.64 93.2425 101.06 93.4959 101.34C93.7625 101.62 94.1825 101.76 94.7559 101.76C94.9559 101.76 95.1425 101.74 95.3159 101.7C95.4892 101.66 95.6492 101.633 95.7959 101.62C95.9825 101.607 96.1359 101.667 96.2559 101.8C96.3759 101.92 96.4359 102.193 96.4359 102.62C96.4359 102.94 96.3825 103.22 96.2759 103.46C96.1692 103.7 95.9825 103.873 95.7159 103.98C95.5425 104.047 95.3025 104.1 94.9959 104.14C94.7025 104.193 94.4492 104.22 94.2359 104.22ZM102.504 104.22C101.344 104.22 100.344 104.013 99.5041 103.6C98.6775 103.173 98.0375 102.58 97.5841 101.82C97.1441 101.047 96.9241 100.14 96.9241 99.1C96.9241 98.0867 97.1375 97.2 97.5641 96.44C97.9908 95.6667 98.5841 95.0667 99.3441 94.64C100.117 94.2 100.991 93.98 101.964 93.98C102.671 93.98 103.311 94.1 103.884 94.34C104.457 94.5667 104.951 94.9 105.364 95.34C105.777 95.7667 106.091 96.2933 106.304 96.92C106.517 97.5333 106.624 98.22 106.624 98.98C106.624 99.2333 106.544 99.4267 106.384 99.56C106.224 99.68 105.991 99.74 105.684 99.74H99.4041V98.18H104.444L104.124 98.46C104.124 97.9133 104.044 97.46 103.884 97.1C103.724 96.7267 103.491 96.4467 103.184 96.26C102.891 96.0733 102.524 95.98 102.084 95.98C101.591 95.98 101.171 96.0933 100.824 96.32C100.477 96.5467 100.211 96.8733 100.024 97.3C99.8375 97.7267 99.7441 98.24 99.7441 98.84V99C99.7441 100.013 99.9775 100.76 100.444 101.24C100.924 101.72 101.631 101.96 102.564 101.96C102.884 101.96 103.251 101.92 103.664 101.84C104.077 101.76 104.464 101.633 104.824 101.46C105.131 101.313 105.404 101.267 105.644 101.32C105.884 101.36 106.071 101.467 106.204 101.64C106.337 101.813 106.411 102.013 106.424 102.24C106.451 102.467 106.404 102.693 106.284 102.92C106.164 103.133 105.964 103.313 105.684 103.46C105.231 103.713 104.717 103.9 104.144 104.02C103.584 104.153 103.037 104.22 102.504 104.22ZM109.901 104.18C109.407 104.18 109.027 104.047 108.761 103.78C108.507 103.513 108.381 103.133 108.381 102.64V95.54C108.381 95.0467 108.507 94.6733 108.761 94.42C109.027 94.1533 109.394 94.02 109.861 94.02C110.341 94.02 110.707 94.1533 110.961 94.42C111.214 94.6733 111.341 95.0467 111.341 95.54V96.68L111.121 96.02C111.427 95.3667 111.881 94.8667 112.481 94.52C113.094 94.16 113.787 93.98 114.561 93.98C115.347 93.98 115.994 94.1333 116.501 94.44C117.007 94.7333 117.387 95.1867 117.641 95.8C117.894 96.4 118.021 97.1667 118.021 98.1V102.64C118.021 103.133 117.887 103.513 117.621 103.78C117.367 104.047 116.994 104.18 116.501 104.18C116.021 104.18 115.647 104.047 115.381 103.78C115.127 103.513 115.001 103.133 115.001 102.64V98.24C115.001 97.56 114.874 97.0733 114.621 96.78C114.381 96.4733 114.007 96.32 113.501 96.32C112.861 96.32 112.347 96.52 111.961 96.92C111.587 97.32 111.401 97.8533 111.401 98.52V102.64C111.401 103.667 110.901 104.18 109.901 104.18ZM129.181 104.22C128.461 104.22 127.815 104.08 127.241 103.8C126.668 103.52 126.221 103.14 125.901 102.66C125.581 102.18 125.421 101.64 125.421 101.04C125.421 100.32 125.608 99.7533 125.981 99.34C126.355 98.9133 126.961 98.6133 127.801 98.44C128.641 98.2533 129.755 98.16 131.141 98.16H132.201V99.72H131.161C130.481 99.72 129.928 99.76 129.501 99.84C129.088 99.9067 128.788 100.027 128.601 100.2C128.428 100.373 128.341 100.613 128.341 100.92C128.341 101.293 128.468 101.6 128.721 101.84C128.988 102.08 129.368 102.2 129.861 102.2C130.248 102.2 130.588 102.113 130.881 101.94C131.188 101.753 131.428 101.507 131.601 101.2C131.775 100.88 131.861 100.52 131.861 100.12V97.82C131.861 97.2333 131.728 96.82 131.461 96.58C131.195 96.3267 130.741 96.2 130.101 96.2C129.741 96.2 129.348 96.2467 128.921 96.34C128.508 96.42 128.048 96.56 127.541 96.76C127.248 96.8933 126.988 96.9267 126.761 96.86C126.535 96.78 126.361 96.6467 126.241 96.46C126.121 96.26 126.061 96.0467 126.061 95.82C126.061 95.58 126.128 95.3533 126.261 95.14C126.395 94.9133 126.615 94.7467 126.921 94.64C127.548 94.3867 128.135 94.2133 128.681 94.12C129.241 94.0267 129.755 93.98 130.221 93.98C131.248 93.98 132.088 94.1333 132.741 94.44C133.408 94.7333 133.908 95.1933 134.241 95.82C134.575 96.4333 134.741 97.2267 134.741 98.2V102.64C134.741 103.133 134.621 103.513 134.381 103.78C134.141 104.047 133.795 104.18 133.341 104.18C132.888 104.18 132.535 104.047 132.281 103.78C132.041 103.513 131.921 103.133 131.921 102.64V101.9L132.061 102.02C131.981 102.473 131.808 102.867 131.541 103.2C131.288 103.52 130.961 103.773 130.561 103.96C130.161 104.133 129.701 104.22 129.181 104.22ZM138.514 104.18C138.021 104.18 137.641 104.047 137.374 103.78C137.121 103.513 136.994 103.133 136.994 102.64V95.54C136.994 95.0467 137.121 94.6733 137.374 94.42C137.641 94.1533 138.007 94.02 138.474 94.02C138.954 94.02 139.321 94.1533 139.574 94.42C139.827 94.6733 139.954 95.0467 139.954 95.54V96.68L139.734 96.02C140.041 95.3667 140.494 94.8667 141.094 94.52C141.707 94.16 142.401 93.98 143.174 93.98C143.961 93.98 144.607 94.1333 145.114 94.44C145.621 94.7333 146.001 95.1867 146.254 95.8C146.507 96.4 146.634 97.1667 146.634 98.1V102.64C146.634 103.133 146.501 103.513 146.234 103.78C145.981 104.047 145.607 104.18 145.114 104.18C144.634 104.18 144.261 104.047 143.994 103.78C143.741 103.513 143.614 103.133 143.614 102.64V98.24C143.614 97.56 143.487 97.0733 143.234 96.78C142.994 96.4733 142.621 96.32 142.114 96.32C141.474 96.32 140.961 96.52 140.574 96.92C140.201 97.32 140.014 97.8533 140.014 98.52V102.64C140.014 103.667 139.514 104.18 138.514 104.18ZM152.709 104.22C151.855 104.22 151.102 104.013 150.449 103.6C149.809 103.187 149.309 102.593 148.949 101.82C148.589 101.047 148.409 100.133 148.409 99.08C148.409 98.0267 148.589 97.12 148.949 96.36C149.309 95.6 149.809 95.0133 150.449 94.6C151.102 94.1867 151.855 93.98 152.709 93.98C153.482 93.98 154.162 94.1667 154.749 94.54C155.349 94.9133 155.755 95.4 155.969 96H155.749V91.26C155.749 90.7533 155.875 90.3733 156.129 90.12C156.382 89.8533 156.755 89.72 157.249 89.72C157.729 89.72 158.102 89.8533 158.369 90.12C158.635 90.3733 158.769 90.7533 158.769 91.26V102.64C158.769 103.133 158.635 103.513 158.369 103.78C158.115 104.047 157.749 104.18 157.269 104.18C156.789 104.18 156.415 104.047 156.149 103.78C155.895 103.513 155.769 103.133 155.769 102.64V101.28L155.989 102.06C155.802 102.713 155.402 103.24 154.789 103.64C154.189 104.027 153.495 104.22 152.709 104.22ZM153.609 101.96C154.049 101.96 154.429 101.853 154.749 101.64C155.069 101.427 155.322 101.113 155.509 100.7C155.695 100.273 155.789 99.7333 155.789 99.08C155.789 98.1067 155.589 97.3933 155.189 96.94C154.789 96.4733 154.262 96.24 153.609 96.24C153.182 96.24 152.802 96.34 152.469 96.54C152.149 96.74 151.895 97.0533 151.709 97.48C151.535 97.8933 151.449 98.4267 151.449 99.08C151.449 100.053 151.649 100.78 152.049 101.26C152.449 101.727 152.969 101.96 153.609 101.96ZM168.201 104.16C167.708 104.16 167.328 104.02 167.061 103.74C166.808 103.447 166.681 103.04 166.681 102.52V95.68C166.681 95.1467 166.808 94.74 167.061 94.46C167.328 94.1667 167.708 94.02 168.201 94.02C168.681 94.02 169.048 94.1667 169.301 94.46C169.568 94.74 169.701 95.1467 169.701 95.68V102.52C169.701 103.04 169.575 103.447 169.321 103.74C169.068 104.02 168.695 104.16 168.201 104.16ZM168.201 92.38C167.641 92.38 167.208 92.2533 166.901 92C166.608 91.7333 166.461 91.36 166.461 90.88C166.461 90.3867 166.608 90.0133 166.901 89.76C167.208 89.4933 167.641 89.36 168.201 89.36C168.761 89.36 169.188 89.4933 169.481 89.76C169.775 90.0133 169.921 90.3867 169.921 90.88C169.921 91.36 169.775 91.7333 169.481 92C169.188 92.2533 168.761 92.38 168.201 92.38ZM173.593 104.18C173.1 104.18 172.72 104.047 172.453 103.78C172.2 103.513 172.073 103.133 172.073 102.64V95.54C172.073 95.0467 172.2 94.6733 172.453 94.42C172.72 94.1533 173.086 94.02 173.553 94.02C174.033 94.02 174.4 94.1533 174.653 94.42C174.906 94.6733 175.033 95.0467 175.033 95.54V96.82L174.813 96.02C175.08 95.4067 175.493 94.9133 176.053 94.54C176.613 94.1667 177.273 93.98 178.033 93.98C178.793 93.98 179.426 94.16 179.933 94.52C180.44 94.88 180.8 95.4333 181.013 96.18H180.733C181.026 95.5 181.473 94.9667 182.073 94.58C182.686 94.18 183.386 93.98 184.173 93.98C184.933 93.98 185.553 94.1333 186.033 94.44C186.526 94.7333 186.893 95.1867 187.133 95.8C187.373 96.4 187.493 97.1667 187.493 98.1V102.64C187.493 103.133 187.36 103.513 187.093 103.78C186.84 104.047 186.473 104.18 185.993 104.18C185.5 104.18 185.12 104.047 184.853 103.78C184.6 103.513 184.473 103.133 184.473 102.64V98.2C184.473 97.5467 184.366 97.0733 184.153 96.78C183.953 96.4733 183.606 96.32 183.113 96.32C182.54 96.32 182.093 96.52 181.773 96.92C181.453 97.32 181.293 97.8867 181.293 98.62V102.64C181.293 103.133 181.16 103.513 180.893 103.78C180.64 104.047 180.273 104.18 179.793 104.18C179.313 104.18 178.94 104.047 178.673 103.78C178.406 103.513 178.273 103.133 178.273 102.64V98.2C178.273 97.5467 178.166 97.0733 177.953 96.78C177.753 96.4733 177.406 96.32 176.913 96.32C176.34 96.32 175.893 96.52 175.573 96.92C175.253 97.32 175.093 97.8867 175.093 98.62V102.64C175.093 103.667 174.593 104.18 173.593 104.18ZM193.126 104.22C192.406 104.22 191.76 104.08 191.186 103.8C190.613 103.52 190.166 103.14 189.846 102.66C189.526 102.18 189.366 101.64 189.366 101.04C189.366 100.32 189.553 99.7533 189.926 99.34C190.3 98.9133 190.906 98.6133 191.746 98.44C192.586 98.2533 193.7 98.16 195.086 98.16H196.146V99.72H195.106C194.426 99.72 193.873 99.76 193.446 99.84C193.033 99.9067 192.733 100.027 192.546 100.2C192.373 100.373 192.286 100.613 192.286 100.92C192.286 101.293 192.413 101.6 192.666 101.84C192.933 102.08 193.313 102.2 193.806 102.2C194.193 102.2 194.533 102.113 194.826 101.94C195.133 101.753 195.373 101.507 195.546 101.2C195.72 100.88 195.806 100.52 195.806 100.12V97.82C195.806 97.2333 195.673 96.82 195.406 96.58C195.14 96.3267 194.686 96.2 194.046 96.2C193.686 96.2 193.293 96.2467 192.866 96.34C192.453 96.42 191.993 96.56 191.486 96.76C191.193 96.8933 190.933 96.9267 190.706 96.86C190.48 96.78 190.306 96.6467 190.186 96.46C190.066 96.26 190.006 96.0467 190.006 95.82C190.006 95.58 190.073 95.3533 190.206 95.14C190.34 94.9133 190.56 94.7467 190.866 94.64C191.493 94.3867 192.08 94.2133 192.626 94.12C193.186 94.0267 193.7 93.98 194.166 93.98C195.193 93.98 196.033 94.1333 196.686 94.44C197.353 94.7333 197.853 95.1933 198.186 95.82C198.52 96.4333 198.686 97.2267 198.686 98.2V102.64C198.686 103.133 198.566 103.513 198.326 103.78C198.086 104.047 197.74 104.18 197.286 104.18C196.833 104.18 196.48 104.047 196.226 103.78C195.986 103.513 195.866 103.133 195.866 102.64V101.9L196.006 102.02C195.926 102.473 195.753 102.867 195.486 103.2C195.233 103.52 194.906 103.773 194.506 103.96C194.106 104.133 193.646 104.22 193.126 104.22ZM205.659 107.82C204.939 107.82 204.246 107.76 203.579 107.64C202.926 107.52 202.346 107.34 201.839 107.1C201.533 106.967 201.313 106.793 201.179 106.58C201.059 106.367 201.006 106.14 201.019 105.9C201.046 105.66 201.126 105.447 201.259 105.26C201.406 105.073 201.586 104.94 201.799 104.86C202.013 104.793 202.239 104.813 202.479 104.92C203.066 105.187 203.606 105.36 204.099 105.44C204.606 105.52 205.039 105.56 205.399 105.56C206.253 105.56 206.893 105.367 207.319 104.98C207.746 104.593 207.959 104 207.959 103.2V101.68H208.139C207.939 102.293 207.526 102.793 206.899 103.18C206.273 103.567 205.579 103.76 204.819 103.76C203.939 103.76 203.173 103.56 202.519 103.16C201.866 102.747 201.359 102.173 200.999 101.44C200.639 100.693 200.459 99.8333 200.459 98.86C200.459 98.1267 200.559 97.46 200.759 96.86C200.973 96.26 201.266 95.7467 201.639 95.32C202.026 94.8933 202.486 94.5667 203.019 94.34C203.566 94.1 204.166 93.98 204.819 93.98C205.606 93.98 206.299 94.1733 206.899 94.56C207.513 94.9333 207.919 95.4267 208.119 96.04L207.919 96.68V95.54C207.919 95.0467 208.046 94.6733 208.299 94.42C208.566 94.1533 208.939 94.02 209.419 94.02C209.899 94.02 210.266 94.1533 210.519 94.42C210.773 94.6733 210.899 95.0467 210.899 95.54V102.86C210.899 104.5 210.446 105.733 209.539 106.56C208.646 107.4 207.353 107.82 205.659 107.82ZM205.719 101.5C206.173 101.5 206.559 101.393 206.879 101.18C207.213 100.967 207.473 100.667 207.659 100.28C207.846 99.88 207.939 99.4067 207.939 98.86C207.939 98.0333 207.733 97.3933 207.319 96.94C206.919 96.4733 206.386 96.24 205.719 96.24C205.266 96.24 204.873 96.3467 204.539 96.56C204.206 96.76 203.946 97.06 203.759 97.46C203.586 97.8467 203.499 98.3133 203.499 98.86C203.499 99.6867 203.699 100.333 204.099 100.8C204.499 101.267 205.039 101.5 205.719 101.5ZM214.764 104.16C214.271 104.16 213.891 104.02 213.624 103.74C213.371 103.447 213.244 103.04 213.244 102.52V95.68C213.244 95.1467 213.371 94.74 213.624 94.46C213.891 94.1667 214.271 94.02 214.764 94.02C215.244 94.02 215.611 94.1667 215.864 94.46C216.131 94.74 216.264 95.1467 216.264 95.68V102.52C216.264 103.04 216.137 103.447 215.884 103.74C215.631 104.02 215.257 104.16 214.764 104.16ZM214.764 92.38C214.204 92.38 213.771 92.2533 213.464 92C213.171 91.7333 213.024 91.36 213.024 90.88C213.024 90.3867 213.171 90.0133 213.464 89.76C213.771 89.4933 214.204 89.36 214.764 89.36C215.324 89.36 215.751 89.4933 216.044 89.76C216.337 90.0133 216.484 90.3867 216.484 90.88C216.484 91.36 216.337 91.7333 216.044 92C215.751 92.2533 215.324 92.38 214.764 92.38ZM220.116 104.18C219.622 104.18 219.242 104.047 218.976 103.78C218.722 103.513 218.596 103.133 218.596 102.64V95.54C218.596 95.0467 218.722 94.6733 218.976 94.42C219.242 94.1533 219.609 94.02 220.076 94.02C220.556 94.02 220.922 94.1533 221.176 94.42C221.429 94.6733 221.556 95.0467 221.556 95.54V96.68L221.336 96.02C221.642 95.3667 222.096 94.8667 222.696 94.52C223.309 94.16 224.002 93.98 224.776 93.98C225.562 93.98 226.209 94.1333 226.716 94.44C227.222 94.7333 227.602 95.1867 227.856 95.8C228.109 96.4 228.236 97.1667 228.236 98.1V102.64C228.236 103.133 228.102 103.513 227.836 103.78C227.582 104.047 227.209 104.18 226.716 104.18C226.236 104.18 225.862 104.047 225.596 103.78C225.342 103.513 225.216 103.133 225.216 102.64V98.24C225.216 97.56 225.089 97.0733 224.836 96.78C224.596 96.4733 224.222 96.32 223.716 96.32C223.076 96.32 222.562 96.52 222.176 96.92C221.802 97.32 221.616 97.8533 221.616 98.52V102.64C221.616 103.667 221.116 104.18 220.116 104.18ZM235.59 104.22C234.43 104.22 233.43 104.013 232.59 103.6C231.763 103.173 231.123 102.58 230.67 101.82C230.23 101.047 230.01 100.14 230.01 99.1C230.01 98.0867 230.223 97.2 230.65 96.44C231.077 95.6667 231.67 95.0667 232.43 94.64C233.203 94.2 234.077 93.98 235.05 93.98C235.757 93.98 236.397 94.1 236.97 94.34C237.543 94.5667 238.037 94.9 238.45 95.34C238.863 95.7667 239.177 96.2933 239.39 96.92C239.603 97.5333 239.71 98.22 239.71 98.98C239.71 99.2333 239.63 99.4267 239.47 99.56C239.31 99.68 239.077 99.74 238.77 99.74H232.49V98.18H237.53L237.21 98.46C237.21 97.9133 237.13 97.46 236.97 97.1C236.81 96.7267 236.577 96.4467 236.27 96.26C235.977 96.0733 235.61 95.98 235.17 95.98C234.677 95.98 234.257 96.0933 233.91 96.32C233.563 96.5467 233.297 96.8733 233.11 97.3C232.923 97.7267 232.83 98.24 232.83 98.84V99C232.83 100.013 233.063 100.76 233.53 101.24C234.01 101.72 234.717 101.96 235.65 101.96C235.97 101.96 236.337 101.92 236.75 101.84C237.163 101.76 237.55 101.633 237.91 101.46C238.217 101.313 238.49 101.267 238.73 101.32C238.97 101.36 239.157 101.467 239.29 101.64C239.423 101.813 239.497 102.013 239.51 102.24C239.537 102.467 239.49 102.693 239.37 102.92C239.25 103.133 239.05 103.313 238.77 103.46C238.317 103.713 237.803 103.9 237.23 104.02C236.67 104.153 236.123 104.22 235.59 104.22Z" fill="#DFEBF3"/>
<path d="M15.8707 133H14.3935L18.6662 121.364H20.1207L24.3935 133H22.9162L19.4389 123.205H19.348L15.8707 133ZM16.4162 128.455H22.3707V129.705H16.4162V128.455ZM31.5241 129.432V124.273H32.8651V133H31.5241V131.523H31.4332C31.2287 131.966 30.9105 132.343 30.4787 132.653C30.0469 132.96 29.5014 133.114 28.8423 133.114C28.2969 133.114 27.812 132.994 27.3878 132.756C26.9635 132.513 26.6302 132.15 26.3878 131.665C26.1454 131.176 26.0241 130.561 26.0241 129.818V124.273H27.3651V129.727C27.3651 130.364 27.5431 130.871 27.8991 131.25C28.259 131.629 28.7173 131.818 29.2741 131.818C29.6075 131.818 29.9465 131.733 30.2912 131.562C30.6397 131.392 30.9313 131.131 31.1662 130.778C31.4048 130.426 31.5241 129.977 31.5241 129.432ZM38.6165 133.182C37.8892 133.182 37.2472 132.998 36.6903 132.631C36.1335 132.259 35.6979 131.737 35.3835 131.062C35.0691 130.384 34.9119 129.583 34.9119 128.659C34.9119 127.742 35.0691 126.947 35.3835 126.273C35.6979 125.598 36.1354 125.078 36.696 124.71C37.2566 124.343 37.9044 124.159 38.6392 124.159C39.2074 124.159 39.6563 124.254 39.9858 124.443C40.3191 124.629 40.5729 124.841 40.7472 125.08C40.9252 125.314 41.0634 125.508 41.1619 125.659H41.2756V121.364H42.6165V133H41.321V131.659H41.1619C41.0634 131.818 40.9233 132.019 40.7415 132.261C40.5597 132.5 40.3002 132.714 39.9631 132.903C39.6259 133.089 39.1771 133.182 38.6165 133.182ZM38.7983 131.977C39.3362 131.977 39.7907 131.837 40.1619 131.557C40.5331 131.273 40.8153 130.881 41.0085 130.381C41.2017 129.877 41.2983 129.295 41.2983 128.636C41.2983 127.985 41.2036 127.415 41.0142 126.926C40.8248 126.434 40.5445 126.051 40.1733 125.778C39.8021 125.502 39.3438 125.364 38.7983 125.364C38.2301 125.364 37.7566 125.509 37.3778 125.801C37.0028 126.089 36.7206 126.481 36.5312 126.977C36.3456 127.47 36.2528 128.023 36.2528 128.636C36.2528 129.258 36.3475 129.822 36.5369 130.33C36.7301 130.833 37.0142 131.235 37.3892 131.534C37.768 131.83 38.2377 131.977 38.7983 131.977ZM45.2585 133V124.273H46.5994V133H45.2585ZM45.9403 122.818C45.679 122.818 45.4536 122.729 45.2642 122.551C45.0786 122.373 44.9858 122.159 44.9858 121.909C44.9858 121.659 45.0786 121.445 45.2642 121.267C45.4536 121.089 45.679 121 45.9403 121C46.2017 121 46.4252 121.089 46.6108 121.267C46.8002 121.445 46.8949 121.659 46.8949 121.909C46.8949 122.159 46.8002 122.373 46.6108 122.551C46.4252 122.729 46.2017 122.818 45.9403 122.818ZM52.6009 133.182C51.813 133.182 51.1217 132.994 50.527 132.619C49.9361 132.244 49.474 131.72 49.1406 131.045C48.8111 130.371 48.6463 129.583 48.6463 128.682C48.6463 127.773 48.8111 126.979 49.1406 126.301C49.474 125.623 49.9361 125.097 50.527 124.722C51.1217 124.347 51.813 124.159 52.6009 124.159C53.3887 124.159 54.0781 124.347 54.669 124.722C55.2637 125.097 55.7259 125.623 56.0554 126.301C56.3887 126.979 56.5554 127.773 56.5554 128.682C56.5554 129.583 56.3887 130.371 56.0554 131.045C55.7259 131.72 55.2637 132.244 54.669 132.619C54.0781 132.994 53.3887 133.182 52.6009 133.182ZM52.6009 131.977C53.1993 131.977 53.6918 131.824 54.0781 131.517C54.4645 131.21 54.7505 130.807 54.9361 130.307C55.1217 129.807 55.2145 129.265 55.2145 128.682C55.2145 128.098 55.1217 127.555 54.9361 127.051C54.7505 126.547 54.4645 126.14 54.0781 125.83C53.6918 125.519 53.1993 125.364 52.6009 125.364C52.0024 125.364 51.5099 125.519 51.1236 125.83C50.7372 126.14 50.4512 126.547 50.2656 127.051C50.08 127.555 49.9872 128.098 49.9872 128.682C49.9872 129.265 50.08 129.807 50.2656 130.307C50.4512 130.807 50.7372 131.21 51.1236 131.517C51.5099 131.824 52.0024 131.977 52.6009 131.977ZM69.2841 126.227L68.0795 126.568C68.0038 126.367 67.892 126.172 67.7443 125.983C67.6004 125.79 67.4034 125.631 67.1534 125.506C66.9034 125.381 66.5833 125.318 66.1932 125.318C65.6591 125.318 65.214 125.441 64.858 125.688C64.5057 125.93 64.3295 126.239 64.3295 126.614C64.3295 126.947 64.4508 127.21 64.6932 127.403C64.9356 127.597 65.3144 127.758 65.8295 127.886L67.125 128.205C67.9053 128.394 68.4867 128.684 68.8693 129.074C69.2519 129.46 69.4432 129.958 69.4432 130.568C69.4432 131.068 69.2992 131.515 69.0114 131.909C68.7273 132.303 68.3295 132.614 67.8182 132.841C67.3068 133.068 66.7121 133.182 66.0341 133.182C65.1439 133.182 64.4072 132.989 63.8239 132.602C63.2405 132.216 62.8712 131.652 62.7159 130.909L63.9886 130.591C64.1098 131.061 64.339 131.413 64.6761 131.648C65.017 131.883 65.4621 132 66.0114 132C66.6364 132 67.1326 131.867 67.5 131.602C67.8712 131.333 68.0568 131.011 68.0568 130.636C68.0568 130.333 67.9508 130.08 67.7386 129.875C67.5265 129.667 67.2008 129.511 66.7614 129.409L65.3068 129.068C64.5076 128.879 63.9205 128.585 63.5455 128.188C63.1742 127.786 62.9886 127.284 62.9886 126.682C62.9886 126.189 63.1269 125.754 63.4034 125.375C63.6837 124.996 64.0644 124.699 64.5455 124.483C65.0303 124.267 65.5795 124.159 66.1932 124.159C67.0568 124.159 67.7348 124.348 68.2273 124.727C68.7235 125.106 69.0758 125.606 69.2841 126.227ZM75.2571 124.273V125.409H70.7344V124.273H75.2571ZM72.0526 122.182H73.3935V130.5C73.3935 130.879 73.4484 131.163 73.5582 131.352C73.6719 131.538 73.8158 131.663 73.9901 131.727C74.1681 131.788 74.3556 131.818 74.5526 131.818C74.7003 131.818 74.8215 131.811 74.9162 131.795C75.0109 131.777 75.0866 131.761 75.1435 131.75L75.4162 132.955C75.3253 132.989 75.1984 133.023 75.0355 133.057C74.8726 133.095 74.6662 133.114 74.4162 133.114C74.0374 133.114 73.6662 133.032 73.3026 132.869C72.9427 132.706 72.6435 132.458 72.4048 132.125C72.17 131.792 72.0526 131.371 72.0526 130.864V122.182ZM80.7259 133.182C79.938 133.182 79.2467 132.994 78.652 132.619C78.0611 132.244 77.599 131.72 77.2656 131.045C76.9361 130.371 76.7713 129.583 76.7713 128.682C76.7713 127.773 76.9361 126.979 77.2656 126.301C77.599 125.623 78.0611 125.097 78.652 124.722C79.2467 124.347 79.938 124.159 80.7259 124.159C81.5137 124.159 82.2031 124.347 82.794 124.722C83.3887 125.097 83.8509 125.623 84.1804 126.301C84.5137 126.979 84.6804 127.773 84.6804 128.682C84.6804 129.583 84.5137 130.371 84.1804 131.045C83.8509 131.72 83.3887 132.244 82.794 132.619C82.2031 132.994 81.5137 133.182 80.7259 133.182ZM80.7259 131.977C81.3243 131.977 81.8168 131.824 82.2031 131.517C82.5895 131.21 82.8755 130.807 83.0611 130.307C83.2467 129.807 83.3395 129.265 83.3395 128.682C83.3395 128.098 83.2467 127.555 83.0611 127.051C82.8755 126.547 82.5895 126.14 82.2031 125.83C81.8168 125.519 81.3243 125.364 80.7259 125.364C80.1274 125.364 79.6349 125.519 79.2486 125.83C78.8622 126.14 78.5762 126.547 78.3906 127.051C78.205 127.555 78.1122 128.098 78.1122 128.682C78.1122 129.265 78.205 129.807 78.3906 130.307C78.5762 130.807 78.8622 131.21 79.2486 131.517C79.6349 131.824 80.1274 131.977 80.7259 131.977ZM86.7273 133V124.273H88.0227V125.591H88.1136C88.2727 125.159 88.5606 124.809 88.9773 124.54C89.3939 124.271 89.8636 124.136 90.3864 124.136C90.4848 124.136 90.608 124.138 90.7557 124.142C90.9034 124.146 91.0152 124.152 91.0909 124.159V125.523C91.0455 125.511 90.9413 125.494 90.7784 125.472C90.6193 125.445 90.4508 125.432 90.2727 125.432C89.8485 125.432 89.4697 125.521 89.1364 125.699C88.8068 125.873 88.5455 126.116 88.3523 126.426C88.1629 126.733 88.0682 127.083 88.0682 127.477V133H86.7273ZM92.6804 133V124.273H94.0213V133H92.6804ZM93.3622 122.818C93.1009 122.818 92.8755 122.729 92.6861 122.551C92.5005 122.373 92.4077 122.159 92.4077 121.909C92.4077 121.659 92.5005 121.445 92.6861 121.267C92.8755 121.089 93.1009 121 93.3622 121C93.6236 121 93.8471 121.089 94.0327 121.267C94.2221 121.445 94.3168 121.659 94.3168 121.909C94.3168 122.159 94.2221 122.373 94.0327 122.551C93.8471 122.729 93.6236 122.818 93.3622 122.818ZM100.136 133.182C99.2955 133.182 98.5701 132.996 97.9602 132.625C97.3542 132.25 96.8864 131.727 96.5568 131.057C96.2311 130.383 96.0682 129.598 96.0682 128.705C96.0682 127.811 96.2311 127.023 96.5568 126.341C96.8864 125.655 97.3447 125.121 97.9318 124.739C98.5227 124.352 99.2121 124.159 100 124.159C100.455 124.159 100.903 124.235 101.347 124.386C101.79 124.538 102.193 124.784 102.557 125.125C102.92 125.462 103.21 125.909 103.426 126.466C103.642 127.023 103.75 127.708 103.75 128.523V129.091H97.0227V127.932H102.386C102.386 127.439 102.288 127 102.091 126.614C101.898 126.227 101.621 125.922 101.261 125.699C100.905 125.475 100.485 125.364 100 125.364C99.4659 125.364 99.0038 125.496 98.6136 125.761C98.2273 126.023 97.9299 126.364 97.7216 126.784C97.5133 127.205 97.4091 127.655 97.4091 128.136V128.909C97.4091 129.568 97.5227 130.127 97.75 130.585C97.9811 131.04 98.3011 131.386 98.7102 131.625C99.1193 131.86 99.5947 131.977 100.136 131.977C100.489 131.977 100.807 131.928 101.091 131.83C101.379 131.727 101.627 131.576 101.835 131.375C102.044 131.17 102.205 130.917 102.318 130.614L103.614 130.977C103.477 131.417 103.248 131.803 102.926 132.136C102.604 132.466 102.206 132.723 101.733 132.909C101.259 133.091 100.727 133.182 100.136 133.182ZM111.972 126.227L110.767 126.568C110.691 126.367 110.58 126.172 110.432 125.983C110.288 125.79 110.091 125.631 109.841 125.506C109.591 125.381 109.271 125.318 108.881 125.318C108.347 125.318 107.902 125.441 107.545 125.688C107.193 125.93 107.017 126.239 107.017 126.614C107.017 126.947 107.138 127.21 107.381 127.403C107.623 127.597 108.002 127.758 108.517 127.886L109.812 128.205C110.593 128.394 111.174 128.684 111.557 129.074C111.939 129.46 112.131 129.958 112.131 130.568C112.131 131.068 111.987 131.515 111.699 131.909C111.415 132.303 111.017 132.614 110.506 132.841C109.994 133.068 109.4 133.182 108.722 133.182C107.831 133.182 107.095 132.989 106.511 132.602C105.928 132.216 105.559 131.652 105.403 130.909L106.676 130.591C106.797 131.061 107.027 131.413 107.364 131.648C107.705 131.883 108.15 132 108.699 132C109.324 132 109.82 131.867 110.188 131.602C110.559 131.333 110.744 131.011 110.744 130.636C110.744 130.333 110.638 130.08 110.426 129.875C110.214 129.667 109.888 129.511 109.449 129.409L107.994 129.068C107.195 128.879 106.608 128.585 106.233 128.188C105.862 127.786 105.676 127.284 105.676 126.682C105.676 126.189 105.814 125.754 106.091 125.375C106.371 124.996 106.752 124.699 107.233 124.483C107.718 124.267 108.267 124.159 108.881 124.159C109.744 124.159 110.422 124.348 110.915 124.727C111.411 125.106 111.763 125.606 111.972 126.227ZM119.99 127.75V133H118.649V121.364H119.99V125.636H120.104C120.308 125.186 120.615 124.828 121.024 124.562C121.437 124.294 121.986 124.159 122.672 124.159C123.267 124.159 123.787 124.278 124.234 124.517C124.681 124.752 125.028 125.114 125.274 125.602C125.524 126.087 125.649 126.705 125.649 127.455V133H124.308V127.545C124.308 126.852 124.128 126.316 123.768 125.938C123.412 125.555 122.918 125.364 122.286 125.364C121.846 125.364 121.452 125.456 121.104 125.642C120.759 125.828 120.486 126.098 120.286 126.455C120.089 126.811 119.99 127.242 119.99 127.75ZM131.761 133.182C130.92 133.182 130.195 132.996 129.585 132.625C128.979 132.25 128.511 131.727 128.182 131.057C127.856 130.383 127.693 129.598 127.693 128.705C127.693 127.811 127.856 127.023 128.182 126.341C128.511 125.655 128.97 125.121 129.557 124.739C130.148 124.352 130.837 124.159 131.625 124.159C132.08 124.159 132.528 124.235 132.972 124.386C133.415 124.538 133.818 124.784 134.182 125.125C134.545 125.462 134.835 125.909 135.051 126.466C135.267 127.023 135.375 127.708 135.375 128.523V129.091H128.648V127.932H134.011C134.011 127.439 133.913 127 133.716 126.614C133.523 126.227 133.246 125.922 132.886 125.699C132.53 125.475 132.11 125.364 131.625 125.364C131.091 125.364 130.629 125.496 130.239 125.761C129.852 126.023 129.555 126.364 129.347 126.784C129.138 127.205 129.034 127.655 129.034 128.136V128.909C129.034 129.568 129.148 130.127 129.375 130.585C129.606 131.04 129.926 131.386 130.335 131.625C130.744 131.86 131.22 131.977 131.761 131.977C132.114 131.977 132.432 131.928 132.716 131.83C133.004 131.727 133.252 131.576 133.46 131.375C133.669 131.17 133.83 130.917 133.943 130.614L135.239 130.977C135.102 131.417 134.873 131.803 134.551 132.136C134.229 132.466 133.831 132.723 133.358 132.909C132.884 133.091 132.352 133.182 131.761 133.182ZM138.756 121.364V133H137.415V121.364H138.756ZM141.212 136.273V124.273H142.507V125.659H142.666C142.765 125.508 142.901 125.314 143.075 125.08C143.253 124.841 143.507 124.629 143.837 124.443C144.17 124.254 144.621 124.159 145.189 124.159C145.924 124.159 146.571 124.343 147.132 124.71C147.693 125.078 148.13 125.598 148.445 126.273C148.759 126.947 148.916 127.742 148.916 128.659C148.916 129.583 148.759 130.384 148.445 131.062C148.13 131.737 147.695 132.259 147.138 132.631C146.581 132.998 145.939 133.182 145.212 133.182C144.651 133.182 144.202 133.089 143.865 132.903C143.528 132.714 143.268 132.5 143.087 132.261C142.905 132.019 142.765 131.818 142.666 131.659H142.553V136.273H141.212ZM142.53 128.636C142.53 129.295 142.626 129.877 142.82 130.381C143.013 130.881 143.295 131.273 143.666 131.557C144.037 131.837 144.492 131.977 145.03 131.977C145.59 131.977 146.058 131.83 146.433 131.534C146.812 131.235 147.096 130.833 147.286 130.33C147.479 129.822 147.575 129.258 147.575 128.636C147.575 128.023 147.481 127.47 147.291 126.977C147.106 126.481 146.823 126.089 146.445 125.801C146.07 125.509 145.598 125.364 145.03 125.364C144.484 125.364 144.026 125.502 143.655 125.778C143.284 126.051 143.003 126.434 142.814 126.926C142.625 127.415 142.53 127.985 142.53 128.636ZM158.757 133.182C158.03 133.182 157.388 132.998 156.831 132.631C156.274 132.259 155.839 131.737 155.524 131.062C155.21 130.384 155.053 129.583 155.053 128.659C155.053 127.742 155.21 126.947 155.524 126.273C155.839 125.598 156.276 125.078 156.837 124.71C157.397 124.343 158.045 124.159 158.78 124.159C159.348 124.159 159.797 124.254 160.126 124.443C160.46 124.629 160.714 124.841 160.888 125.08C161.066 125.314 161.204 125.508 161.303 125.659H161.416V121.364H162.757V133H161.462V131.659H161.303C161.204 131.818 161.064 132.019 160.882 132.261C160.7 132.5 160.441 132.714 160.104 132.903C159.767 133.089 159.318 133.182 158.757 133.182ZM158.939 131.977C159.477 131.977 159.931 131.837 160.303 131.557C160.674 131.273 160.956 130.881 161.149 130.381C161.342 129.877 161.439 129.295 161.439 128.636C161.439 127.985 161.344 127.415 161.155 126.926C160.965 126.434 160.685 126.051 160.314 125.778C159.943 125.502 159.484 125.364 158.939 125.364C158.371 125.364 157.897 125.509 157.518 125.801C157.143 126.089 156.861 126.481 156.672 126.977C156.486 127.47 156.393 128.023 156.393 128.636C156.393 129.258 156.488 129.822 156.678 130.33C156.871 130.833 157.155 131.235 157.53 131.534C157.909 131.83 158.378 131.977 158.939 131.977ZM169.058 133.182C168.217 133.182 167.492 132.996 166.882 132.625C166.276 132.25 165.808 131.727 165.479 131.057C165.153 130.383 164.99 129.598 164.99 128.705C164.99 127.811 165.153 127.023 165.479 126.341C165.808 125.655 166.267 125.121 166.854 124.739C167.445 124.352 168.134 124.159 168.922 124.159C169.376 124.159 169.825 124.235 170.268 124.386C170.712 124.538 171.115 124.784 171.479 125.125C171.842 125.462 172.132 125.909 172.348 126.466C172.564 127.023 172.672 127.708 172.672 128.523V129.091H165.945V127.932H171.308C171.308 127.439 171.21 127 171.013 126.614C170.82 126.227 170.543 125.922 170.183 125.699C169.827 125.475 169.407 125.364 168.922 125.364C168.388 125.364 167.926 125.496 167.536 125.761C167.149 126.023 166.852 126.364 166.643 126.784C166.435 127.205 166.331 127.655 166.331 128.136V128.909C166.331 129.568 166.445 130.127 166.672 130.585C166.903 131.04 167.223 131.386 167.632 131.625C168.041 131.86 168.517 131.977 169.058 131.977C169.411 131.977 169.729 131.928 170.013 131.83C170.301 131.727 170.549 131.576 170.757 131.375C170.965 131.17 171.126 130.917 171.24 130.614L172.536 130.977C172.399 131.417 172.17 131.803 171.848 132.136C171.526 132.466 171.128 132.723 170.655 132.909C170.181 133.091 169.649 133.182 169.058 133.182ZM181.582 124.273L178.355 133H176.991L173.764 124.273H175.219L177.628 131.227H177.719L180.128 124.273H181.582ZM186.699 133.182C185.858 133.182 185.133 132.996 184.523 132.625C183.917 132.25 183.449 131.727 183.119 131.057C182.794 130.383 182.631 129.598 182.631 128.705C182.631 127.811 182.794 127.023 183.119 126.341C183.449 125.655 183.907 125.121 184.494 124.739C185.085 124.352 185.775 124.159 186.562 124.159C187.017 124.159 187.466 124.235 187.909 124.386C188.352 124.538 188.756 124.784 189.119 125.125C189.483 125.462 189.773 125.909 189.989 126.466C190.205 127.023 190.312 127.708 190.312 128.523V129.091H183.585V127.932H188.949C188.949 127.439 188.85 127 188.653 126.614C188.46 126.227 188.184 125.922 187.824 125.699C187.468 125.475 187.047 125.364 186.562 125.364C186.028 125.364 185.566 125.496 185.176 125.761C184.79 126.023 184.492 126.364 184.284 126.784C184.076 127.205 183.972 127.655 183.972 128.136V128.909C183.972 129.568 184.085 130.127 184.312 130.585C184.544 131.04 184.864 131.386 185.273 131.625C185.682 131.86 186.157 131.977 186.699 131.977C187.051 131.977 187.369 131.928 187.653 131.83C187.941 131.727 188.189 131.576 188.398 131.375C188.606 131.17 188.767 130.917 188.881 130.614L190.176 130.977C190.04 131.417 189.811 131.803 189.489 132.136C189.167 132.466 188.769 132.723 188.295 132.909C187.822 133.091 187.29 133.182 186.699 133.182ZM193.693 121.364V133H192.352V121.364H193.693ZM199.695 133.182C198.907 133.182 198.215 132.994 197.621 132.619C197.03 132.244 196.568 131.72 196.234 131.045C195.905 130.371 195.74 129.583 195.74 128.682C195.74 127.773 195.905 126.979 196.234 126.301C196.568 125.623 197.03 125.097 197.621 124.722C198.215 124.347 198.907 124.159 199.695 124.159C200.482 124.159 201.172 124.347 201.763 124.722C202.357 125.097 202.82 125.623 203.149 126.301C203.482 126.979 203.649 127.773 203.649 128.682C203.649 129.583 203.482 130.371 203.149 131.045C202.82 131.72 202.357 132.244 201.763 132.619C201.172 132.994 200.482 133.182 199.695 133.182ZM199.695 131.977C200.293 131.977 200.786 131.824 201.172 131.517C201.558 131.21 201.844 130.807 202.03 130.307C202.215 129.807 202.308 129.265 202.308 128.682C202.308 128.098 202.215 127.555 202.03 127.051C201.844 126.547 201.558 126.14 201.172 125.83C200.786 125.519 200.293 125.364 199.695 125.364C199.096 125.364 198.604 125.519 198.217 125.83C197.831 126.14 197.545 126.547 197.359 127.051C197.174 127.555 197.081 128.098 197.081 128.682C197.081 129.265 197.174 129.807 197.359 130.307C197.545 130.807 197.831 131.21 198.217 131.517C198.604 131.824 199.096 131.977 199.695 131.977ZM205.696 136.273V124.273H206.991V125.659H207.151C207.249 125.508 207.385 125.314 207.56 125.08C207.738 124.841 207.991 124.629 208.321 124.443C208.654 124.254 209.105 124.159 209.673 124.159C210.408 124.159 211.056 124.343 211.616 124.71C212.177 125.078 212.615 125.598 212.929 126.273C213.243 126.947 213.401 127.742 213.401 128.659C213.401 129.583 213.243 130.384 212.929 131.062C212.615 131.737 212.179 132.259 211.622 132.631C211.065 132.998 210.423 133.182 209.696 133.182C209.135 133.182 208.687 133.089 208.349 132.903C208.012 132.714 207.753 132.5 207.571 132.261C207.389 132.019 207.249 131.818 207.151 131.659H207.037V136.273H205.696ZM207.014 128.636C207.014 129.295 207.111 129.877 207.304 130.381C207.497 130.881 207.779 131.273 208.151 131.557C208.522 131.837 208.976 131.977 209.514 131.977C210.075 131.977 210.543 131.83 210.918 131.534C211.296 131.235 211.58 130.833 211.77 130.33C211.963 129.822 212.06 129.258 212.06 128.636C212.06 128.023 211.965 127.47 211.776 126.977C211.59 126.481 211.308 126.089 210.929 125.801C210.554 125.509 210.082 125.364 209.514 125.364C208.969 125.364 208.51 125.502 208.139 125.778C207.768 126.051 207.488 126.434 207.298 126.926C207.109 127.415 207.014 127.985 207.014 128.636ZM221.287 121.364V133H219.946V121.364H221.287ZM226.311 133.205C225.758 133.205 225.256 133.1 224.805 132.892C224.355 132.68 223.997 132.375 223.732 131.977C223.466 131.576 223.334 131.091 223.334 130.523C223.334 130.023 223.432 129.617 223.629 129.307C223.826 128.992 224.089 128.746 224.419 128.568C224.749 128.39 225.112 128.258 225.51 128.17C225.911 128.08 226.315 128.008 226.72 127.955C227.25 127.886 227.68 127.835 228.01 127.801C228.343 127.763 228.586 127.701 228.737 127.614C228.893 127.527 228.97 127.375 228.97 127.159V127.114C228.97 126.553 228.817 126.117 228.51 125.807C228.207 125.496 227.747 125.341 227.129 125.341C226.489 125.341 225.987 125.481 225.624 125.761C225.26 126.042 225.004 126.341 224.857 126.659L223.584 126.205C223.811 125.674 224.114 125.261 224.493 124.966C224.875 124.667 225.292 124.458 225.743 124.341C226.197 124.22 226.644 124.159 227.084 124.159C227.364 124.159 227.686 124.193 228.05 124.261C228.417 124.326 228.771 124.46 229.112 124.665C229.457 124.869 229.743 125.178 229.97 125.591C230.197 126.004 230.311 126.557 230.311 127.25V133H228.97V131.818H228.902C228.811 132.008 228.66 132.21 228.447 132.426C228.235 132.642 227.953 132.826 227.601 132.977C227.249 133.129 226.819 133.205 226.311 133.205ZM226.516 132C227.046 132 227.493 131.896 227.857 131.688C228.224 131.479 228.5 131.21 228.686 130.881C228.875 130.551 228.97 130.205 228.97 129.841V128.614C228.913 128.682 228.788 128.744 228.595 128.801C228.406 128.854 228.186 128.902 227.936 128.943C227.69 128.981 227.449 129.015 227.214 129.045C226.983 129.072 226.796 129.095 226.652 129.114C226.304 129.159 225.978 129.233 225.675 129.335C225.375 129.434 225.133 129.583 224.947 129.784C224.766 129.981 224.675 130.25 224.675 130.591C224.675 131.057 224.847 131.409 225.192 131.648C225.54 131.883 225.982 132 226.516 132ZM234.099 127.75V133H232.759V124.273H234.054V125.636H234.168C234.372 125.193 234.683 124.837 235.099 124.568C235.516 124.295 236.054 124.159 236.713 124.159C237.304 124.159 237.821 124.28 238.264 124.523C238.707 124.761 239.052 125.125 239.298 125.614C239.545 126.098 239.668 126.712 239.668 127.455V133H238.327V127.545C238.327 126.86 238.149 126.326 237.793 125.943C237.437 125.557 236.948 125.364 236.327 125.364C235.899 125.364 235.516 125.456 235.179 125.642C234.846 125.828 234.582 126.098 234.389 126.455C234.196 126.811 234.099 127.242 234.099 127.75ZM245.641 136.455C244.993 136.455 244.436 136.371 243.97 136.205C243.504 136.042 243.116 135.826 242.805 135.557C242.499 135.292 242.254 135.008 242.072 134.705L243.141 133.955C243.262 134.114 243.415 134.295 243.601 134.5C243.786 134.708 244.04 134.888 244.362 135.04C244.688 135.195 245.114 135.273 245.641 135.273C246.345 135.273 246.927 135.102 247.385 134.761C247.843 134.42 248.072 133.886 248.072 133.159V131.386H247.959C247.86 131.545 247.72 131.742 247.538 131.977C247.36 132.208 247.103 132.415 246.766 132.597C246.432 132.775 245.982 132.864 245.413 132.864C244.709 132.864 244.076 132.697 243.516 132.364C242.959 132.03 242.518 131.545 242.192 130.909C241.87 130.273 241.709 129.5 241.709 128.591C241.709 127.697 241.866 126.919 242.18 126.256C242.495 125.589 242.932 125.074 243.493 124.71C244.054 124.343 244.701 124.159 245.436 124.159C246.004 124.159 246.455 124.254 246.788 124.443C247.125 124.629 247.383 124.841 247.561 125.08C247.743 125.314 247.883 125.508 247.982 125.659H248.118V124.273H249.413V133.25C249.413 134 249.243 134.61 248.902 135.08C248.565 135.553 248.11 135.9 247.538 136.119C246.97 136.343 246.338 136.455 245.641 136.455ZM245.595 131.659C246.133 131.659 246.588 131.536 246.959 131.29C247.33 131.044 247.612 130.689 247.805 130.227C247.999 129.765 248.095 129.212 248.095 128.568C248.095 127.939 248 127.384 247.811 126.903C247.622 126.422 247.341 126.045 246.97 125.773C246.599 125.5 246.141 125.364 245.595 125.364C245.027 125.364 244.554 125.508 244.175 125.795C243.8 126.083 243.518 126.47 243.328 126.955C243.143 127.439 243.05 127.977 243.05 128.568C243.05 129.174 243.144 129.71 243.334 130.176C243.527 130.638 243.811 131.002 244.186 131.267C244.565 131.528 245.035 131.659 245.595 131.659ZM257.368 129.432V124.273H258.709V133H257.368V131.523H257.277C257.072 131.966 256.754 132.343 256.322 132.653C255.891 132.96 255.345 133.114 254.686 133.114C254.141 133.114 253.656 132.994 253.232 132.756C252.807 132.513 252.474 132.15 252.232 131.665C251.989 131.176 251.868 130.561 251.868 129.818V124.273H253.209V129.727C253.209 130.364 253.387 130.871 253.743 131.25C254.103 131.629 254.561 131.818 255.118 131.818C255.451 131.818 255.79 131.733 256.135 131.562C256.483 131.392 256.775 131.131 257.01 130.778C257.249 130.426 257.368 129.977 257.368 129.432ZM263.733 133.205C263.18 133.205 262.678 133.1 262.227 132.892C261.777 132.68 261.419 132.375 261.153 131.977C260.888 131.576 260.756 131.091 260.756 130.523C260.756 130.023 260.854 129.617 261.051 129.307C261.248 128.992 261.511 128.746 261.841 128.568C262.17 128.39 262.534 128.258 262.932 128.17C263.333 128.08 263.737 128.008 264.142 127.955C264.672 127.886 265.102 127.835 265.432 127.801C265.765 127.763 266.008 127.701 266.159 127.614C266.314 127.527 266.392 127.375 266.392 127.159V127.114C266.392 126.553 266.239 126.117 265.932 125.807C265.629 125.496 265.169 125.341 264.551 125.341C263.911 125.341 263.409 125.481 263.045 125.761C262.682 126.042 262.426 126.341 262.278 126.659L261.006 126.205C261.233 125.674 261.536 125.261 261.915 124.966C262.297 124.667 262.714 124.458 263.165 124.341C263.619 124.22 264.066 124.159 264.506 124.159C264.786 124.159 265.108 124.193 265.472 124.261C265.839 124.326 266.193 124.46 266.534 124.665C266.879 124.869 267.165 125.178 267.392 125.591C267.619 126.004 267.733 126.557 267.733 127.25V133H266.392V131.818H266.324C266.233 132.008 266.081 132.21 265.869 132.426C265.657 132.642 265.375 132.826 265.023 132.977C264.67 133.129 264.241 133.205 263.733 133.205ZM263.938 132C264.468 132 264.915 131.896 265.278 131.688C265.646 131.479 265.922 131.21 266.108 130.881C266.297 130.551 266.392 130.205 266.392 129.841V128.614C266.335 128.682 266.21 128.744 266.017 128.801C265.828 128.854 265.608 128.902 265.358 128.943C265.112 128.981 264.871 129.015 264.636 129.045C264.405 129.072 264.218 129.095 264.074 129.114C263.725 129.159 263.4 129.233 263.097 129.335C262.797 129.434 262.555 129.583 262.369 129.784C262.188 129.981 262.097 130.25 262.097 130.591C262.097 131.057 262.269 131.409 262.614 131.648C262.962 131.883 263.403 132 263.938 132ZM273.703 136.455C273.055 136.455 272.499 136.371 272.033 136.205C271.567 136.042 271.179 135.826 270.868 135.557C270.561 135.292 270.317 135.008 270.135 134.705L271.203 133.955C271.324 134.114 271.478 134.295 271.663 134.5C271.849 134.708 272.103 134.888 272.425 135.04C272.75 135.195 273.177 135.273 273.703 135.273C274.408 135.273 274.989 135.102 275.447 134.761C275.906 134.42 276.135 133.886 276.135 133.159V131.386H276.021C275.923 131.545 275.783 131.742 275.601 131.977C275.423 132.208 275.165 132.415 274.828 132.597C274.495 132.775 274.044 132.864 273.476 132.864C272.771 132.864 272.139 132.697 271.578 132.364C271.021 132.03 270.58 131.545 270.254 130.909C269.932 130.273 269.771 129.5 269.771 128.591C269.771 127.697 269.929 126.919 270.243 126.256C270.557 125.589 270.995 125.074 271.555 124.71C272.116 124.343 272.764 124.159 273.499 124.159C274.067 124.159 274.518 124.254 274.851 124.443C275.188 124.629 275.446 124.841 275.624 125.08C275.805 125.314 275.946 125.508 276.044 125.659H276.18V124.273H277.476V133.25C277.476 134 277.305 134.61 276.964 135.08C276.627 135.553 276.173 135.9 275.601 136.119C275.033 136.343 274.4 136.455 273.703 136.455ZM273.658 131.659C274.196 131.659 274.65 131.536 275.021 131.29C275.393 131.044 275.675 130.689 275.868 130.227C276.061 129.765 276.158 129.212 276.158 128.568C276.158 127.939 276.063 127.384 275.874 126.903C275.684 126.422 275.404 126.045 275.033 125.773C274.661 125.5 274.203 125.364 273.658 125.364C273.089 125.364 272.616 125.508 272.237 125.795C271.862 126.083 271.58 126.47 271.391 126.955C271.205 127.439 271.112 127.977 271.112 128.568C271.112 129.174 271.207 129.71 271.396 130.176C271.589 130.638 271.874 131.002 272.249 131.267C272.627 131.528 273.097 131.659 273.658 131.659ZM283.589 133.182C282.749 133.182 282.023 132.996 281.413 132.625C280.807 132.25 280.339 131.727 280.01 131.057C279.684 130.383 279.521 129.598 279.521 128.705C279.521 127.811 279.684 127.023 280.01 126.341C280.339 125.655 280.798 125.121 281.385 124.739C281.976 124.352 282.665 124.159 283.453 124.159C283.908 124.159 284.357 124.235 284.8 124.386C285.243 124.538 285.646 124.784 286.01 125.125C286.374 125.462 286.663 125.909 286.879 126.466C287.095 127.023 287.203 127.708 287.203 128.523V129.091H280.476V127.932H285.839C285.839 127.439 285.741 127 285.544 126.614C285.351 126.227 285.074 125.922 284.714 125.699C284.358 125.475 283.938 125.364 283.453 125.364C282.919 125.364 282.457 125.496 282.067 125.761C281.68 126.023 281.383 126.364 281.175 126.784C280.966 127.205 280.862 127.655 280.862 128.136V128.909C280.862 129.568 280.976 130.127 281.203 130.585C281.434 131.04 281.754 131.386 282.163 131.625C282.572 131.86 283.048 131.977 283.589 131.977C283.942 131.977 284.26 131.928 284.544 131.83C284.832 131.727 285.08 131.576 285.288 131.375C285.497 131.17 285.658 130.917 285.771 130.614L287.067 130.977C286.93 131.417 286.701 131.803 286.379 132.136C286.057 132.466 285.66 132.723 285.186 132.909C284.713 133.091 284.18 133.182 283.589 133.182ZM75.5653 150.227L74.3608 150.568C74.285 150.367 74.1733 150.172 74.0256 149.983C73.8816 149.79 73.6847 149.631 73.4347 149.506C73.1847 149.381 72.8646 149.318 72.4744 149.318C71.9403 149.318 71.4953 149.441 71.1392 149.688C70.7869 149.93 70.6108 150.239 70.6108 150.614C70.6108 150.947 70.732 151.21 70.9744 151.403C71.2169 151.597 71.5956 151.758 72.1108 151.886L73.4062 152.205C74.1866 152.394 74.768 152.684 75.1506 153.074C75.5331 153.46 75.7244 153.958 75.7244 154.568C75.7244 155.068 75.5805 155.515 75.2926 155.909C75.0085 156.303 74.6108 156.614 74.0994 156.841C73.5881 157.068 72.9934 157.182 72.3153 157.182C71.4252 157.182 70.6884 156.989 70.1051 156.602C69.5218 156.216 69.1525 155.652 68.9972 154.909L70.2699 154.591C70.3911 155.061 70.6203 155.413 70.9574 155.648C71.2983 155.883 71.7434 156 72.2926 156C72.9176 156 73.4138 155.867 73.7812 155.602C74.1525 155.333 74.3381 155.011 74.3381 154.636C74.3381 154.333 74.232 154.08 74.0199 153.875C73.8078 153.667 73.482 153.511 73.0426 153.409L71.5881 153.068C70.7888 152.879 70.2017 152.585 69.8267 152.188C69.4555 151.786 69.2699 151.284 69.2699 150.682C69.2699 150.189 69.4081 149.754 69.6847 149.375C69.965 148.996 70.3456 148.699 70.8267 148.483C71.3116 148.267 71.8608 148.159 72.4744 148.159C73.3381 148.159 74.0161 148.348 74.5085 148.727C75.0047 149.106 75.357 149.606 75.5653 150.227ZM78.9929 153.818L78.9702 152.159H79.2429L83.0611 148.273H84.7202L80.652 152.386H80.5384L78.9929 153.818ZM77.7429 157V145.364H79.0838V157H77.7429ZM83.2884 157L79.8793 152.682L80.8338 151.75L84.9929 157H83.2884ZM86.446 157V148.273H87.7869V157H86.446ZM87.1278 146.818C86.8665 146.818 86.6411 146.729 86.4517 146.551C86.2661 146.373 86.1733 146.159 86.1733 145.909C86.1733 145.659 86.2661 145.445 86.4517 145.267C86.6411 145.089 86.8665 145 87.1278 145C87.3892 145 87.6127 145.089 87.7983 145.267C87.9877 145.445 88.0824 145.659 88.0824 145.909C88.0824 146.159 87.9877 146.373 87.7983 146.551C87.6127 146.729 87.3892 146.818 87.1278 146.818ZM91.5838 145.364V157H90.2429V145.364H91.5838ZM95.3807 145.364V157H94.0398V145.364H95.3807ZM104.018 150.227L102.814 150.568C102.738 150.367 102.626 150.172 102.479 149.983C102.335 149.79 102.138 149.631 101.888 149.506C101.638 149.381 101.318 149.318 100.928 149.318C100.393 149.318 99.9484 149.441 99.5923 149.688C99.2401 149.93 99.0639 150.239 99.0639 150.614C99.0639 150.947 99.1851 151.21 99.4276 151.403C99.67 151.597 100.049 151.758 100.564 151.886L101.859 152.205C102.64 152.394 103.221 152.684 103.604 153.074C103.986 153.46 104.178 153.958 104.178 154.568C104.178 155.068 104.034 155.515 103.746 155.909C103.462 156.303 103.064 156.614 102.553 156.841C102.041 157.068 101.446 157.182 100.768 157.182C99.8783 157.182 99.1416 156.989 98.5582 156.602C97.9749 156.216 97.6056 155.652 97.4503 154.909L98.723 154.591C98.8442 155.061 99.0734 155.413 99.4105 155.648C99.7514 155.883 100.196 156 100.746 156C101.371 156 101.867 155.867 102.234 155.602C102.606 155.333 102.791 155.011 102.791 154.636C102.791 154.333 102.685 154.08 102.473 153.875C102.261 153.667 101.935 153.511 101.496 153.409L100.041 153.068C99.242 152.879 98.6548 152.585 98.2798 152.188C97.9086 151.786 97.723 151.284 97.723 150.682C97.723 150.189 97.8613 149.754 98.1378 149.375C98.4181 148.996 98.7988 148.699 99.2798 148.483C99.7647 148.267 100.314 148.159 100.928 148.159C101.791 148.159 102.469 148.348 102.962 148.727C103.458 149.106 103.81 149.606 104.018 150.227ZM113.264 157.205C112.711 157.205 112.209 157.1 111.759 156.892C111.308 156.68 110.95 156.375 110.685 155.977C110.42 155.576 110.287 155.091 110.287 154.523C110.287 154.023 110.385 153.617 110.582 153.307C110.779 152.992 111.043 152.746 111.372 152.568C111.702 152.39 112.065 152.258 112.463 152.17C112.865 152.08 113.268 152.008 113.673 151.955C114.204 151.886 114.634 151.835 114.963 151.801C115.296 151.763 115.539 151.701 115.69 151.614C115.846 151.527 115.923 151.375 115.923 151.159V151.114C115.923 150.553 115.77 150.117 115.463 149.807C115.16 149.496 114.7 149.341 114.082 149.341C113.442 149.341 112.94 149.481 112.577 149.761C112.213 150.042 111.957 150.341 111.81 150.659L110.537 150.205C110.764 149.674 111.067 149.261 111.446 148.966C111.829 148.667 112.245 148.458 112.696 148.341C113.151 148.22 113.598 148.159 114.037 148.159C114.317 148.159 114.639 148.193 115.003 148.261C115.37 148.326 115.724 148.46 116.065 148.665C116.41 148.869 116.696 149.178 116.923 149.591C117.151 150.004 117.264 150.557 117.264 151.25V157H115.923V155.818H115.855C115.764 156.008 115.613 156.21 115.401 156.426C115.188 156.642 114.906 156.826 114.554 156.977C114.202 157.129 113.772 157.205 113.264 157.205ZM113.469 156C113.999 156 114.446 155.896 114.81 155.688C115.177 155.479 115.454 155.21 115.639 154.881C115.829 154.551 115.923 154.205 115.923 153.841V152.614C115.866 152.682 115.741 152.744 115.548 152.801C115.359 152.854 115.139 152.902 114.889 152.943C114.643 152.981 114.402 153.015 114.168 153.045C113.937 153.072 113.749 153.095 113.605 153.114C113.257 153.159 112.931 153.233 112.628 153.335C112.329 153.434 112.086 153.583 111.901 153.784C111.719 153.981 111.628 154.25 111.628 154.591C111.628 155.057 111.8 155.409 112.145 155.648C112.493 155.883 112.935 156 113.469 156ZM121.053 151.75V157H119.712V148.273H121.007V149.636H121.121C121.325 149.193 121.636 148.837 122.053 148.568C122.469 148.295 123.007 148.159 123.666 148.159C124.257 148.159 124.774 148.28 125.217 148.523C125.661 148.761 126.005 149.125 126.251 149.614C126.498 150.098 126.621 150.712 126.621 151.455V157H125.28V151.545C125.28 150.86 125.102 150.326 124.746 149.943C124.39 149.557 123.901 149.364 123.28 149.364C122.852 149.364 122.469 149.456 122.132 149.642C121.799 149.828 121.536 150.098 121.342 150.455C121.149 150.811 121.053 151.242 121.053 151.75ZM132.366 157.182C131.639 157.182 130.997 156.998 130.44 156.631C129.884 156.259 129.448 155.737 129.134 155.062C128.819 154.384 128.662 153.583 128.662 152.659C128.662 151.742 128.819 150.947 129.134 150.273C129.448 149.598 129.885 149.078 130.446 148.71C131.007 148.343 131.654 148.159 132.389 148.159C132.957 148.159 133.406 148.254 133.736 148.443C134.069 148.629 134.323 148.841 134.497 149.08C134.675 149.314 134.813 149.508 134.912 149.659H135.026V145.364H136.366V157H135.071V155.659H134.912C134.813 155.818 134.673 156.019 134.491 156.261C134.31 156.5 134.05 156.714 133.713 156.903C133.376 157.089 132.927 157.182 132.366 157.182ZM132.548 155.977C133.086 155.977 133.541 155.837 133.912 155.557C134.283 155.273 134.565 154.881 134.759 154.381C134.952 153.877 135.048 153.295 135.048 152.636C135.048 151.985 134.954 151.415 134.764 150.926C134.575 150.434 134.295 150.051 133.923 149.778C133.552 149.502 133.094 149.364 132.548 149.364C131.98 149.364 131.507 149.509 131.128 149.801C130.753 150.089 130.471 150.481 130.281 150.977C130.096 151.47 130.003 152.023 130.003 152.636C130.003 153.258 130.098 153.822 130.287 154.33C130.48 154.833 130.764 155.235 131.139 155.534C131.518 155.83 131.988 155.977 132.548 155.977ZM143.509 157V148.273H144.849V157H143.509ZM144.19 146.818C143.929 146.818 143.704 146.729 143.514 146.551C143.329 146.373 143.236 146.159 143.236 145.909C143.236 145.659 143.329 145.445 143.514 145.267C143.704 145.089 143.929 145 144.19 145C144.452 145 144.675 145.089 144.861 145.267C145.05 145.445 145.145 145.659 145.145 145.909C145.145 146.159 145.05 146.373 144.861 146.551C144.675 146.729 144.452 146.818 144.19 146.818ZM147.305 157V148.273H148.601V149.636H148.714C148.896 149.17 149.19 148.809 149.595 148.551C150 148.29 150.487 148.159 151.055 148.159C151.631 148.159 152.11 148.29 152.493 148.551C152.879 148.809 153.18 149.17 153.396 149.636H153.487C153.711 149.186 154.046 148.828 154.493 148.562C154.94 148.294 155.476 148.159 156.101 148.159C156.881 148.159 157.519 148.403 158.016 148.892C158.512 149.377 158.76 150.133 158.76 151.159V157H157.419V151.159C157.419 150.515 157.243 150.055 156.891 149.778C156.538 149.502 156.124 149.364 155.646 149.364C155.033 149.364 154.557 149.549 154.22 149.92C153.883 150.288 153.714 150.754 153.714 151.318V157H152.351V151.023C152.351 150.527 152.19 150.127 151.868 149.824C151.546 149.517 151.131 149.364 150.624 149.364C150.275 149.364 149.949 149.456 149.646 149.642C149.347 149.828 149.105 150.085 148.919 150.415C148.737 150.741 148.646 151.117 148.646 151.545V157H147.305ZM163.78 157.205C163.227 157.205 162.725 157.1 162.274 156.892C161.823 156.68 161.465 156.375 161.2 155.977C160.935 155.576 160.803 155.091 160.803 154.523C160.803 154.023 160.901 153.617 161.098 153.307C161.295 152.992 161.558 152.746 161.888 152.568C162.217 152.39 162.581 152.258 162.979 152.17C163.38 152.08 163.784 152.008 164.189 151.955C164.719 151.886 165.149 151.835 165.479 151.801C165.812 151.763 166.054 151.701 166.206 151.614C166.361 151.527 166.439 151.375 166.439 151.159V151.114C166.439 150.553 166.286 150.117 165.979 149.807C165.676 149.496 165.215 149.341 164.598 149.341C163.958 149.341 163.456 149.481 163.092 149.761C162.729 150.042 162.473 150.341 162.325 150.659L161.053 150.205C161.28 149.674 161.583 149.261 161.962 148.966C162.344 148.667 162.761 148.458 163.212 148.341C163.666 148.22 164.113 148.159 164.553 148.159C164.833 148.159 165.155 148.193 165.518 148.261C165.886 148.326 166.24 148.46 166.581 148.665C166.926 148.869 167.212 149.178 167.439 149.591C167.666 150.004 167.78 150.557 167.78 151.25V157H166.439V155.818H166.371C166.28 156.008 166.128 156.21 165.916 156.426C165.704 156.642 165.422 156.826 165.07 156.977C164.717 157.129 164.287 157.205 163.78 157.205ZM163.984 156C164.515 156 164.962 155.896 165.325 155.688C165.693 155.479 165.969 155.21 166.155 154.881C166.344 154.551 166.439 154.205 166.439 153.841V152.614C166.382 152.682 166.257 152.744 166.064 152.801C165.875 152.854 165.655 152.902 165.405 152.943C165.159 152.981 164.918 153.015 164.683 153.045C164.452 153.072 164.265 153.095 164.121 153.114C163.772 153.159 163.446 153.233 163.143 153.335C162.844 153.434 162.602 153.583 162.416 153.784C162.234 153.981 162.143 154.25 162.143 154.591C162.143 155.057 162.316 155.409 162.661 155.648C163.009 155.883 163.45 156 163.984 156ZM173.75 160.455C173.102 160.455 172.545 160.371 172.08 160.205C171.614 160.042 171.225 159.826 170.915 159.557C170.608 159.292 170.364 159.008 170.182 158.705L171.25 157.955C171.371 158.114 171.525 158.295 171.71 158.5C171.896 158.708 172.15 158.888 172.472 159.04C172.797 159.195 173.223 159.273 173.75 159.273C174.455 159.273 175.036 159.102 175.494 158.761C175.953 158.42 176.182 157.886 176.182 157.159V155.386H176.068C175.97 155.545 175.83 155.742 175.648 155.977C175.47 156.208 175.212 156.415 174.875 156.597C174.542 156.775 174.091 156.864 173.523 156.864C172.818 156.864 172.186 156.697 171.625 156.364C171.068 156.03 170.627 155.545 170.301 154.909C169.979 154.273 169.818 153.5 169.818 152.591C169.818 151.697 169.975 150.919 170.29 150.256C170.604 149.589 171.042 149.074 171.602 148.71C172.163 148.343 172.811 148.159 173.545 148.159C174.114 148.159 174.564 148.254 174.898 148.443C175.235 148.629 175.492 148.841 175.67 149.08C175.852 149.314 175.992 149.508 176.091 149.659H176.227V148.273H177.523V157.25C177.523 158 177.352 158.61 177.011 159.08C176.674 159.553 176.22 159.9 175.648 160.119C175.08 160.343 174.447 160.455 173.75 160.455ZM173.705 155.659C174.242 155.659 174.697 155.536 175.068 155.29C175.439 155.044 175.722 154.689 175.915 154.227C176.108 153.765 176.205 153.212 176.205 152.568C176.205 151.939 176.11 151.384 175.92 150.903C175.731 150.422 175.451 150.045 175.08 149.773C174.708 149.5 174.25 149.364 173.705 149.364C173.136 149.364 172.663 149.508 172.284 149.795C171.909 150.083 171.627 150.47 171.438 150.955C171.252 151.439 171.159 151.977 171.159 152.568C171.159 153.174 171.254 153.71 171.443 154.176C171.636 154.638 171.92 155.002 172.295 155.267C172.674 155.528 173.144 155.659 173.705 155.659ZM179.977 157V148.273H181.318V157H179.977ZM180.659 146.818C180.398 146.818 180.172 146.729 179.983 146.551C179.797 146.373 179.705 146.159 179.705 145.909C179.705 145.659 179.797 145.445 179.983 145.267C180.172 145.089 180.398 145 180.659 145C180.92 145 181.144 145.089 181.33 145.267C181.519 145.445 181.614 145.659 181.614 145.909C181.614 146.159 181.519 146.373 181.33 146.551C181.144 146.729 180.92 146.818 180.659 146.818ZM185.115 151.75V157H183.774V148.273H185.07V149.636H185.183C185.388 149.193 185.698 148.837 186.115 148.568C186.532 148.295 187.07 148.159 187.729 148.159C188.32 148.159 188.837 148.28 189.28 148.523C189.723 148.761 190.068 149.125 190.314 149.614C190.56 150.098 190.683 150.712 190.683 151.455V157H189.342V151.545C189.342 150.86 189.164 150.326 188.808 149.943C188.452 149.557 187.964 149.364 187.342 149.364C186.914 149.364 186.532 149.456 186.195 149.642C185.861 149.828 185.598 150.098 185.405 150.455C185.212 150.811 185.115 151.242 185.115 151.75ZM195.702 157.205C195.149 157.205 194.647 157.1 194.196 156.892C193.745 156.68 193.387 156.375 193.122 155.977C192.857 155.576 192.724 155.091 192.724 154.523C192.724 154.023 192.823 153.617 193.02 153.307C193.217 152.992 193.48 152.746 193.81 152.568C194.139 152.39 194.503 152.258 194.901 152.17C195.302 152.08 195.705 152.008 196.111 151.955C196.641 151.886 197.071 151.835 197.401 151.801C197.734 151.763 197.976 151.701 198.128 151.614C198.283 151.527 198.361 151.375 198.361 151.159V151.114C198.361 150.553 198.207 150.117 197.901 149.807C197.598 149.496 197.137 149.341 196.52 149.341C195.88 149.341 195.378 149.481 195.014 149.761C194.651 150.042 194.395 150.341 194.247 150.659L192.974 150.205C193.202 149.674 193.505 149.261 193.884 148.966C194.266 148.667 194.683 148.458 195.134 148.341C195.588 148.22 196.035 148.159 196.474 148.159C196.755 148.159 197.077 148.193 197.44 148.261C197.808 148.326 198.162 148.46 198.503 148.665C198.848 148.869 199.134 149.178 199.361 149.591C199.588 150.004 199.702 150.557 199.702 151.25V157H198.361V155.818H198.293C198.202 156.008 198.05 156.21 197.838 156.426C197.626 156.642 197.344 156.826 196.991 156.977C196.639 157.129 196.209 157.205 195.702 157.205ZM195.906 156C196.437 156 196.884 155.896 197.247 155.688C197.615 155.479 197.891 155.21 198.077 154.881C198.266 154.551 198.361 154.205 198.361 153.841V152.614C198.304 152.682 198.179 152.744 197.986 152.801C197.796 152.854 197.577 152.902 197.327 152.943C197.08 152.981 196.84 153.015 196.605 153.045C196.374 153.072 196.187 153.095 196.043 153.114C195.694 153.159 195.368 153.233 195.065 153.335C194.766 153.434 194.524 153.583 194.338 153.784C194.156 153.981 194.065 154.25 194.065 154.591C194.065 155.057 194.238 155.409 194.582 155.648C194.931 155.883 195.372 156 195.906 156ZM205.945 148.273V149.409H201.422V148.273H205.945ZM202.74 146.182H204.081V154.5C204.081 154.879 204.136 155.163 204.246 155.352C204.359 155.538 204.503 155.663 204.678 155.727C204.856 155.788 205.043 155.818 205.24 155.818C205.388 155.818 205.509 155.811 205.604 155.795C205.698 155.777 205.774 155.761 205.831 155.75L206.104 156.955C206.013 156.989 205.886 157.023 205.723 157.057C205.56 157.095 205.354 157.114 205.104 157.114C204.725 157.114 204.354 157.032 203.99 156.869C203.63 156.706 203.331 156.458 203.092 156.125C202.857 155.792 202.74 155.371 202.74 154.864V146.182ZM207.962 157V148.273H209.303V157H207.962ZM208.643 146.818C208.382 146.818 208.157 146.729 207.967 146.551C207.782 146.373 207.689 146.159 207.689 145.909C207.689 145.659 207.782 145.445 207.967 145.267C208.157 145.089 208.382 145 208.643 145C208.905 145 209.128 145.089 209.314 145.267C209.503 145.445 209.598 145.659 209.598 145.909C209.598 146.159 209.503 146.373 209.314 146.551C209.128 146.729 208.905 146.818 208.643 146.818ZM215.304 157.182C214.516 157.182 213.825 156.994 213.23 156.619C212.639 156.244 212.177 155.72 211.844 155.045C211.514 154.371 211.349 153.583 211.349 152.682C211.349 151.773 211.514 150.979 211.844 150.301C212.177 149.623 212.639 149.097 213.23 148.722C213.825 148.347 214.516 148.159 215.304 148.159C216.092 148.159 216.781 148.347 217.372 148.722C217.967 149.097 218.429 149.623 218.759 150.301C219.092 150.979 219.259 151.773 219.259 152.682C219.259 153.583 219.092 154.371 218.759 155.045C218.429 155.72 217.967 156.244 217.372 156.619C216.781 156.994 216.092 157.182 215.304 157.182ZM215.304 155.977C215.902 155.977 216.395 155.824 216.781 155.517C217.168 155.21 217.454 154.807 217.639 154.307C217.825 153.807 217.918 153.265 217.918 152.682C217.918 152.098 217.825 151.555 217.639 151.051C217.454 150.547 217.168 150.14 216.781 149.83C216.395 149.519 215.902 149.364 215.304 149.364C214.705 149.364 214.213 149.519 213.827 149.83C213.44 150.14 213.154 150.547 212.969 151.051C212.783 151.555 212.69 152.098 212.69 152.682C212.69 153.265 212.783 153.807 212.969 154.307C213.154 154.807 213.44 155.21 213.827 155.517C214.213 155.824 214.705 155.977 215.304 155.977ZM222.646 151.75V157H221.305V148.273H222.601V149.636H222.714C222.919 149.193 223.23 148.837 223.646 148.568C224.063 148.295 224.601 148.159 225.26 148.159C225.851 148.159 226.368 148.28 226.811 148.523C227.254 148.761 227.599 149.125 227.845 149.614C228.091 150.098 228.214 150.712 228.214 151.455V157H226.874V151.545C226.874 150.86 226.696 150.326 226.339 149.943C225.983 149.557 225.495 149.364 224.874 149.364C224.446 149.364 224.063 149.456 223.726 149.642C223.393 149.828 223.129 150.098 222.936 150.455C222.743 150.811 222.646 151.242 222.646 151.75ZM231.642 157.091C231.362 157.091 231.121 156.991 230.92 156.79C230.72 156.589 230.619 156.348 230.619 156.068C230.619 155.788 230.72 155.547 230.92 155.347C231.121 155.146 231.362 155.045 231.642 155.045C231.922 155.045 232.163 155.146 232.364 155.347C232.564 155.547 232.665 155.788 232.665 156.068C232.665 156.254 232.617 156.424 232.523 156.58C232.432 156.735 232.309 156.86 232.153 156.955C232.002 157.045 231.831 157.091 231.642 157.091Z" fill="#DFEBF3"/>
<circle cx="151" cy="36" r="33.5" fill="#3B68AB" stroke="#DFEBF3" stroke-width="5"/>
<path d="M165.66 22.0259C165.172 22.1164 165.013 22.1867 164.964 22.3341C164.953 22.3643 164.6 22.3542 163.553 22.3006C161.302 22.18 160.966 22.1934 156.363 22.5452C155.763 22.5888 154.734 22.6592 154.083 22.696C153.433 22.7329 152.503 22.7865 152.016 22.8167C148.41 23.0244 146.144 23.2891 144.592 23.6812C144.094 23.8085 143.829 23.9023 143.401 24.1068C142.768 24.4084 142.249 24.7669 142.132 24.978L142.065 25.1087L142.139 25.2494C142.181 25.3265 142.249 25.417 142.291 25.4505C142.383 25.5242 142.825 25.6582 143.263 25.742C143.443 25.7789 143.599 25.8158 143.61 25.8258C143.62 25.8359 143.602 26.134 143.571 26.4893C143.433 28.0508 143.369 28.9656 143.267 30.7717C143.21 31.8306 143.154 32.8124 143.143 32.9498C143.132 33.0872 143.111 34.5348 143.09 36.1666C143.058 38.8406 142.984 41.3706 142.927 41.585C142.91 41.6521 142.888 41.6621 142.828 41.6453C142.789 41.6353 142.454 41.6152 142.082 41.6051C141.163 41.5817 140.375 41.6755 139.237 41.9536C138.399 42.1547 138.063 42.2653 137.522 42.5166C136.172 43.1399 135.419 43.8938 135.101 44.946C134.991 45.3079 134.967 45.9077 135.048 46.3567C135.172 47.0571 135.338 47.4558 135.949 48.5147C136.363 49.2285 136.639 49.5501 137.151 49.9154C137.296 50.0192 137.487 50.16 137.575 50.227C137.798 50.3946 138.244 50.6023 138.562 50.6827C138.908 50.7699 139.523 50.7766 139.926 50.6962C140.948 50.4917 142.252 49.8819 143.09 49.2184C143.45 48.9335 143.896 48.4846 144.076 48.2232C144.324 47.868 144.843 46.8325 145.034 46.3198C145.564 44.8924 145.628 43.7598 145.207 43.1801C145.077 42.9991 144.956 42.922 144.84 42.9421C144.737 42.9622 144.73 42.9355 144.801 42.8081C144.886 42.6506 145.031 41.9939 145.073 41.5784C145.126 41.0522 145.13 38.5425 145.077 37.44C144.988 35.6003 144.953 33.764 144.974 32.0283C144.995 30.2523 144.953 26.4155 144.907 26.0938L144.886 25.9229L145.161 25.9028C145.317 25.8895 145.759 25.8191 146.148 25.7454C147.781 25.4304 149.025 25.2561 152.669 24.8239C155.049 24.5424 156.183 24.3916 159.103 23.9526C161.068 23.6611 161.694 23.5874 162.85 23.517C163.175 23.4969 164.161 23.4198 164.667 23.3763L164.911 23.3562L164.89 23.4366C164.738 24.0398 164.49 25.7353 164.37 27.002C164.091 30.0077 163.875 34.4812 163.918 36.5051C163.928 37.0312 163.921 37.2724 163.896 37.2724C163.875 37.2724 163.723 37.249 163.557 37.2222C163.023 37.1317 161.977 37.0881 161.348 37.1317C159.962 37.2222 158.329 37.5875 157.353 38.023C156.017 38.6229 155.07 39.5008 154.674 40.5061C154.508 40.9283 154.462 41.1763 154.458 41.6621C154.458 42.4864 154.624 43.0226 155.155 43.9072C155.282 44.1183 155.437 44.3797 155.501 44.4869C155.646 44.7282 155.936 45.0365 156.18 45.204C156.279 45.271 156.455 45.4017 156.565 45.4889C157.473 46.1959 158.969 46.4037 160.499 46.0317C161.471 45.7971 162.373 45.3045 163.204 44.554C163.702 44.1049 163.978 43.7162 164.529 42.6707C164.893 41.9771 164.964 41.8196 165.233 41.1059L165.448 40.5329L165.572 40.63C165.717 40.744 165.823 40.7339 166.049 40.5932C166.166 40.5194 166.229 40.429 166.427 40.0537C166.562 39.8091 166.668 39.5644 166.668 39.5108C166.668 39.4573 166.699 39.3734 166.742 39.3198C166.781 39.2696 166.855 39.0786 166.908 38.8943C166.989 38.6028 167 38.4988 167 38.0599C167 37.7617 166.968 37.3126 166.922 36.9541C166.88 36.6224 166.83 36.1097 166.809 35.8148C166.696 34.1092 166.685 33.5697 166.682 28.3423C166.678 22.8368 166.678 22.7865 166.537 22.4548C166.48 22.3174 166.275 22.1264 166.187 22.1264C166.155 22.1264 166.092 22.0963 166.042 22.0594C165.947 21.989 165.89 21.9857 165.66 22.0259ZM163.239 40.0202C163.914 40.0771 163.907 40.0637 163.426 40.2849C162.493 40.7138 161.772 41.1595 161.217 41.6521C160.524 42.2653 159.983 42.644 159.453 42.8852C159.213 42.9958 159.17 43.0025 158.856 43.0025C158.499 43.0025 157.951 42.912 157.774 42.8249C157.516 42.6975 157.194 42.2318 157.138 41.9067C157.116 41.776 157.12 41.7727 157.399 41.5482C158.226 40.8747 159.305 40.3922 160.457 40.1743C161.288 40.0168 162.422 39.9532 163.239 40.0202ZM143.426 44.0346L143.567 44.058L142.984 44.507C142.022 45.2476 141.842 45.3984 141.581 45.6765C141.036 46.2428 140.315 46.7488 139.449 47.1576C139.057 47.3452 138.951 47.362 138.661 47.2883C138.364 47.2112 137.929 46.6985 137.749 46.2059C137.604 45.8139 137.607 45.777 137.851 45.5592C138.169 45.2677 138.802 44.8521 139.272 44.6277C139.894 44.3294 140.753 44.0915 141.52 44.0077C141.828 43.9742 143.199 43.9943 143.426 44.0346Z" fill="#DFEBF3"/>
</svg>
