<svg width="302" height="190" viewBox="0 0 302 190" fill="none" xmlns="http://www.w3.org/2000/svg">
<rect y="43" width="302" height="147" rx="20" fill="#E8B534"/>
<path d="M48.1793 104.22C46.5926 104.22 45.246 103.92 44.1393 103.32C43.046 102.72 42.2126 101.88 41.6393 100.8C41.066 99.72 40.7793 98.4533 40.7793 97C40.7793 95.88 40.946 94.8733 41.2793 93.98C41.626 93.0733 42.1193 92.3067 42.7593 91.68C43.4126 91.04 44.1993 90.5467 45.1193 90.2C46.0526 89.8533 47.106 89.68 48.2793 89.68C48.9993 89.68 49.7193 89.76 50.4393 89.92C51.1593 90.08 51.8526 90.3467 52.5193 90.72C52.7993 90.88 52.986 91.0867 53.0793 91.34C53.186 91.58 53.2126 91.84 53.1593 92.12C53.1193 92.3867 53.0126 92.6267 52.8393 92.84C52.6793 93.04 52.466 93.1733 52.1993 93.24C51.946 93.2933 51.6526 93.24 51.3193 93.08C50.8793 92.84 50.4126 92.6667 49.9193 92.56C49.426 92.44 48.886 92.38 48.2993 92.38C47.3526 92.38 46.5593 92.56 45.9193 92.92C45.2793 93.2667 44.7993 93.7867 44.4793 94.48C44.1726 95.16 44.0193 96 44.0193 97C44.0193 98.5067 44.3793 99.6467 45.0993 100.42C45.8326 101.193 46.9126 101.58 48.3393 101.58C48.8193 101.58 49.3126 101.533 49.8193 101.44C50.326 101.347 50.826 101.213 51.3193 101.04L50.7393 102.3V98.46H48.9393C48.5393 98.46 48.2326 98.36 48.0193 98.16C47.806 97.96 47.6993 97.6867 47.6993 97.34C47.6993 96.98 47.806 96.7067 48.0193 96.52C48.2326 96.32 48.5393 96.22 48.9393 96.22H52.0793C52.4793 96.22 52.7793 96.3267 52.9793 96.54C53.1926 96.7533 53.2993 97.06 53.2993 97.46V102.1C53.2993 102.447 53.2326 102.74 53.0993 102.98C52.966 103.22 52.7393 103.393 52.4193 103.5C51.8193 103.713 51.146 103.887 50.3993 104.02C49.6526 104.153 48.9126 104.22 48.1793 104.22ZM57.343 104.18C56.8364 104.18 56.4497 104.047 56.183 103.78C55.9164 103.513 55.783 103.133 55.783 102.64V95.54C55.783 95.0467 55.9097 94.6733 56.163 94.42C56.4297 94.1533 56.7964 94.02 57.263 94.02C57.743 94.02 58.1097 94.1533 58.363 94.42C58.6164 94.6733 58.743 95.0467 58.743 95.54V96.58H58.543C58.703 95.78 59.0564 95.16 59.603 94.72C60.1497 94.28 60.8564 94.0333 61.723 93.98C62.0564 93.9533 62.3097 94.04 62.483 94.24C62.6697 94.4267 62.7697 94.74 62.783 95.18C62.8097 95.5933 62.723 95.92 62.523 96.16C62.3364 96.4 62.0164 96.5467 61.563 96.6L61.103 96.64C60.343 96.7067 59.7764 96.9267 59.403 97.3C59.043 97.6733 58.863 98.2133 58.863 98.92V102.64C58.863 103.133 58.7297 103.513 58.463 103.78C58.2097 104.047 57.8364 104.18 57.343 104.18ZM68.5695 104.22C67.5161 104.22 66.5961 104.013 65.8095 103.6C65.0361 103.187 64.4361 102.593 64.0095 101.82C63.5828 101.047 63.3695 100.133 63.3695 99.08C63.3695 98.2933 63.4895 97.5867 63.7295 96.96C63.9695 96.3333 64.3161 95.8 64.7695 95.36C65.2361 94.9067 65.7895 94.5667 66.4295 94.34C67.0695 94.1 67.7828 93.98 68.5695 93.98C69.6228 93.98 70.5361 94.1867 71.3095 94.6C72.0961 95.0133 72.7028 95.6 73.1295 96.36C73.5695 97.12 73.7895 98.0267 73.7895 99.08C73.7895 99.88 73.6628 100.593 73.4095 101.22C73.1695 101.847 72.8228 102.387 72.3695 102.84C71.9161 103.293 71.3628 103.64 70.7095 103.88C70.0695 104.107 69.3561 104.22 68.5695 104.22ZM68.5695 101.96C69.0095 101.96 69.3895 101.853 69.7095 101.64C70.0295 101.427 70.2828 101.113 70.4695 100.7C70.6561 100.273 70.7495 99.7333 70.7495 99.08C70.7495 98.1067 70.5495 97.3933 70.1495 96.94C69.7495 96.4733 69.2228 96.24 68.5695 96.24C68.1428 96.24 67.7628 96.34 67.4295 96.54C67.1095 96.74 66.8561 97.0533 66.6695 97.48C66.4961 97.8933 66.4095 98.4267 66.4095 99.08C66.4095 100.053 66.6095 100.78 67.0095 101.26C67.4095 101.727 67.9295 101.96 68.5695 101.96ZM79.4324 104.18C79.0324 104.18 78.6924 104.087 78.4124 103.9C78.1324 103.7 77.9058 103.387 77.7324 102.96L74.9124 95.98C74.7658 95.6067 74.7191 95.28 74.7724 95C74.8258 94.7067 74.9658 94.4733 75.1924 94.3C75.4324 94.1133 75.7591 94.02 76.1724 94.02C76.5191 94.02 76.8058 94.1067 77.0324 94.28C77.2591 94.44 77.4524 94.7533 77.6124 95.22L79.8124 101.08H79.3524L81.6324 94.96C81.7391 94.64 81.8924 94.4067 82.0924 94.26C82.3058 94.1 82.5791 94.02 82.9124 94.02C83.2458 94.02 83.5124 94.1 83.7124 94.26C83.9258 94.42 84.0924 94.6533 84.2124 94.96L86.4524 101.08H86.0724L88.2524 95.14C88.4124 94.7133 88.6191 94.42 88.8724 94.26C89.1258 94.1 89.3991 94.02 89.6924 94.02C90.0658 94.02 90.3524 94.1133 90.5524 94.3C90.7658 94.4867 90.8858 94.7267 90.9124 95.02C90.9524 95.3133 90.8991 95.6333 90.7524 95.98L87.9524 102.96C87.7924 103.373 87.5658 103.68 87.2724 103.88C86.9924 104.08 86.6524 104.18 86.2524 104.18C85.8658 104.18 85.5258 104.08 85.2324 103.88C84.9524 103.68 84.7258 103.373 84.5524 102.96L82.1524 96.72H83.4524L81.1124 102.94C80.9524 103.353 80.7324 103.667 80.4524 103.88C80.1724 104.08 79.8324 104.18 79.4324 104.18ZM101.525 104.22C100.805 104.22 100.158 104.08 99.5849 103.8C99.0116 103.52 98.5649 103.14 98.2449 102.66C97.9249 102.18 97.7649 101.64 97.7649 101.04C97.7649 100.32 97.9516 99.7533 98.3249 99.34C98.6983 98.9133 99.3049 98.6133 100.145 98.44C100.985 98.2533 102.098 98.16 103.485 98.16H104.545V99.72H103.505C102.825 99.72 102.272 99.76 101.845 99.84C101.432 99.9067 101.132 100.027 100.945 100.2C100.772 100.373 100.685 100.613 100.685 100.92C100.685 101.293 100.812 101.6 101.065 101.84C101.332 102.08 101.712 102.2 102.205 102.2C102.592 102.2 102.932 102.113 103.225 101.94C103.532 101.753 103.772 101.507 103.945 101.2C104.118 100.88 104.205 100.52 104.205 100.12V97.82C104.205 97.2333 104.072 96.82 103.805 96.58C103.538 96.3267 103.085 96.2 102.445 96.2C102.085 96.2 101.692 96.2467 101.265 96.34C100.852 96.42 100.392 96.56 99.8849 96.76C99.5916 96.8933 99.3316 96.9267 99.1049 96.86C98.8783 96.78 98.7049 96.6467 98.5849 96.46C98.4649 96.26 98.4049 96.0467 98.4049 95.82C98.4049 95.58 98.4716 95.3533 98.6049 95.14C98.7383 94.9133 98.9583 94.7467 99.2649 94.64C99.8916 94.3867 100.478 94.2133 101.025 94.12C101.585 94.0267 102.098 93.98 102.565 93.98C103.592 93.98 104.432 94.1333 105.085 94.44C105.752 94.7333 106.252 95.1933 106.585 95.82C106.918 96.4333 107.085 97.2267 107.085 98.2V102.64C107.085 103.133 106.965 103.513 106.725 103.78C106.485 104.047 106.138 104.18 105.685 104.18C105.232 104.18 104.878 104.047 104.625 103.78C104.385 103.513 104.265 103.133 104.265 102.64V101.9L104.405 102.02C104.325 102.473 104.152 102.867 103.885 103.2C103.632 103.52 103.305 103.773 102.905 103.96C102.505 104.133 102.045 104.22 101.525 104.22ZM114.158 104.22C113.238 104.22 112.464 104.067 111.838 103.76C111.224 103.453 110.764 103.007 110.458 102.42C110.164 101.833 110.018 101.093 110.018 100.2V96.44H109.178C108.804 96.44 108.511 96.34 108.298 96.14C108.098 95.94 107.998 95.6667 107.998 95.32C107.998 94.9467 108.098 94.6667 108.298 94.48C108.511 94.28 108.804 94.18 109.178 94.18H110.018V92.66C110.018 92.1533 110.151 91.7733 110.418 91.52C110.684 91.2533 111.058 91.12 111.538 91.12C112.031 91.12 112.404 91.2533 112.658 91.52C112.911 91.7733 113.038 92.1533 113.038 92.66V94.18H114.938C115.311 94.18 115.598 94.28 115.798 94.48C115.998 94.6667 116.098 94.9467 116.098 95.32C116.098 95.6667 115.998 95.94 115.798 96.14C115.598 96.34 115.311 96.44 114.938 96.44H113.038V100.08C113.038 100.64 113.164 101.06 113.418 101.34C113.684 101.62 114.104 101.76 114.678 101.76C114.878 101.76 115.064 101.74 115.238 101.7C115.411 101.66 115.571 101.633 115.718 101.62C115.904 101.607 116.058 101.667 116.178 101.8C116.298 101.92 116.358 102.193 116.358 102.62C116.358 102.94 116.304 103.22 116.198 103.46C116.091 103.7 115.904 103.873 115.638 103.98C115.464 104.047 115.224 104.1 114.918 104.14C114.624 104.193 114.371 104.22 114.158 104.22ZM127.83 104.22C126.91 104.22 126.136 104.067 125.51 103.76C124.896 103.453 124.436 103.007 124.13 102.42C123.836 101.833 123.69 101.093 123.69 100.2V96.44H122.85C122.476 96.44 122.183 96.34 121.97 96.14C121.77 95.94 121.67 95.6667 121.67 95.32C121.67 94.9467 121.77 94.6667 121.97 94.48C122.183 94.28 122.476 94.18 122.85 94.18H123.69V92.66C123.69 92.1533 123.823 91.7733 124.09 91.52C124.356 91.2533 124.73 91.12 125.21 91.12C125.703 91.12 126.076 91.2533 126.33 91.52C126.583 91.7733 126.71 92.1533 126.71 92.66V94.18H128.61C128.983 94.18 129.27 94.28 129.47 94.48C129.67 94.6667 129.77 94.9467 129.77 95.32C129.77 95.6667 129.67 95.94 129.47 96.14C129.27 96.34 128.983 96.44 128.61 96.44H126.71V100.08C126.71 100.64 126.836 101.06 127.09 101.34C127.356 101.62 127.776 101.76 128.35 101.76C128.55 101.76 128.736 101.74 128.91 101.7C129.083 101.66 129.243 101.633 129.39 101.62C129.576 101.607 129.73 101.667 129.85 101.8C129.97 101.92 130.03 102.193 130.03 102.62C130.03 102.94 129.976 103.22 129.87 103.46C129.763 103.7 129.576 103.873 129.31 103.98C129.136 104.047 128.896 104.1 128.59 104.14C128.296 104.193 128.043 104.22 127.83 104.22ZM132.928 104.18C132.435 104.18 132.055 104.047 131.788 103.78C131.535 103.513 131.408 103.133 131.408 102.64V91.26C131.408 90.7533 131.535 90.3733 131.788 90.12C132.055 89.8533 132.435 89.72 132.928 89.72C133.408 89.72 133.775 89.8533 134.028 90.12C134.295 90.3733 134.428 90.7533 134.428 91.26V96.02H134.148C134.455 95.3667 134.908 94.8667 135.508 94.52C136.121 94.16 136.815 93.98 137.588 93.98C138.375 93.98 139.021 94.1333 139.528 94.44C140.035 94.7333 140.415 95.1867 140.668 95.8C140.921 96.4 141.048 97.1667 141.048 98.1V102.64C141.048 103.133 140.915 103.513 140.648 103.78C140.395 104.047 140.021 104.18 139.528 104.18C139.048 104.18 138.675 104.047 138.408 103.78C138.155 103.513 138.028 103.133 138.028 102.64V98.24C138.028 97.56 137.901 97.0733 137.648 96.78C137.408 96.4733 137.035 96.32 136.528 96.32C135.888 96.32 135.375 96.52 134.988 96.92C134.615 97.32 134.428 97.8533 134.428 98.52V102.64C134.428 103.667 133.928 104.18 132.928 104.18ZM148.403 104.22C147.243 104.22 146.243 104.013 145.403 103.6C144.576 103.173 143.936 102.58 143.483 101.82C143.043 101.047 142.823 100.14 142.823 99.1C142.823 98.0867 143.036 97.2 143.463 96.44C143.889 95.6667 144.483 95.0667 145.243 94.64C146.016 94.2 146.889 93.98 147.863 93.98C148.569 93.98 149.209 94.1 149.783 94.34C150.356 94.5667 150.849 94.9 151.263 95.34C151.676 95.7667 151.989 96.2933 152.203 96.92C152.416 97.5333 152.523 98.22 152.523 98.98C152.523 99.2333 152.443 99.4267 152.283 99.56C152.123 99.68 151.889 99.74 151.583 99.74H145.303V98.18H150.343L150.023 98.46C150.023 97.9133 149.943 97.46 149.783 97.1C149.623 96.7267 149.389 96.4467 149.083 96.26C148.789 96.0733 148.423 95.98 147.983 95.98C147.489 95.98 147.069 96.0933 146.723 96.32C146.376 96.5467 146.109 96.8733 145.923 97.3C145.736 97.7267 145.643 98.24 145.643 98.84V99C145.643 100.013 145.876 100.76 146.343 101.24C146.823 101.72 147.529 101.96 148.463 101.96C148.783 101.96 149.149 101.92 149.563 101.84C149.976 101.76 150.363 101.633 150.723 101.46C151.029 101.313 151.303 101.267 151.543 101.32C151.783 101.36 151.969 101.467 152.103 101.64C152.236 101.813 152.309 102.013 152.323 102.24C152.349 102.467 152.303 102.693 152.183 102.92C152.063 103.133 151.863 103.313 151.583 103.46C151.129 103.713 150.616 103.9 150.043 104.02C149.483 104.153 148.936 104.22 148.403 104.22ZM155.799 104.16C155.306 104.16 154.926 104.02 154.659 103.74C154.406 103.447 154.279 103.04 154.279 102.52V95.68C154.279 95.1467 154.406 94.74 154.659 94.46C154.926 94.1667 155.306 94.02 155.799 94.02C156.279 94.02 156.646 94.1667 156.899 94.46C157.166 94.74 157.299 95.1467 157.299 95.68V102.52C157.299 103.04 157.172 103.447 156.919 103.74C156.666 104.02 156.292 104.16 155.799 104.16ZM155.799 92.38C155.239 92.38 154.806 92.2533 154.499 92C154.206 91.7333 154.059 91.36 154.059 90.88C154.059 90.3867 154.206 90.0133 154.499 89.76C154.806 89.4933 155.239 89.36 155.799 89.36C156.359 89.36 156.786 89.4933 157.079 89.76C157.372 90.0133 157.519 90.3867 157.519 90.88C157.519 91.36 157.372 91.7333 157.079 92C156.786 92.2533 156.359 92.38 155.799 92.38ZM161.191 104.18C160.684 104.18 160.297 104.047 160.031 103.78C159.764 103.513 159.631 103.133 159.631 102.64V95.54C159.631 95.0467 159.757 94.6733 160.011 94.42C160.277 94.1533 160.644 94.02 161.111 94.02C161.591 94.02 161.957 94.1533 162.211 94.42C162.464 94.6733 162.591 95.0467 162.591 95.54V96.58H162.391C162.551 95.78 162.904 95.16 163.451 94.72C163.997 94.28 164.704 94.0333 165.571 93.98C165.904 93.9533 166.157 94.04 166.331 94.24C166.517 94.4267 166.617 94.74 166.631 95.18C166.657 95.5933 166.571 95.92 166.371 96.16C166.184 96.4 165.864 96.5467 165.411 96.6L164.951 96.64C164.191 96.7067 163.624 96.9267 163.251 97.3C162.891 97.6733 162.711 98.2133 162.711 98.92V102.64C162.711 103.133 162.577 103.513 162.311 103.78C162.057 104.047 161.684 104.18 161.191 104.18ZM178.179 104.22C177.125 104.22 176.205 104.013 175.419 103.6C174.645 103.187 174.045 102.593 173.619 101.82C173.192 101.047 172.979 100.133 172.979 99.08C172.979 98.2933 173.099 97.5867 173.339 96.96C173.579 96.3333 173.925 95.8 174.379 95.36C174.845 94.9067 175.399 94.5667 176.039 94.34C176.679 94.1 177.392 93.98 178.179 93.98C179.232 93.98 180.145 94.1867 180.919 94.6C181.705 95.0133 182.312 95.6 182.739 96.36C183.179 97.12 183.399 98.0267 183.399 99.08C183.399 99.88 183.272 100.593 183.019 101.22C182.779 101.847 182.432 102.387 181.979 102.84C181.525 103.293 180.972 103.64 180.319 103.88C179.679 104.107 178.965 104.22 178.179 104.22ZM178.179 101.96C178.619 101.96 178.999 101.853 179.319 101.64C179.639 101.427 179.892 101.113 180.079 100.7C180.265 100.273 180.359 99.7333 180.359 99.08C180.359 98.1067 180.159 97.3933 179.759 96.94C179.359 96.4733 178.832 96.24 178.179 96.24C177.752 96.24 177.372 96.34 177.039 96.54C176.719 96.74 176.465 97.0533 176.279 97.48C176.105 97.8933 176.019 98.4267 176.019 99.08C176.019 100.053 176.219 100.78 176.619 101.26C177.019 101.727 177.539 101.96 178.179 101.96ZM189.042 104.18C188.642 104.18 188.302 104.087 188.022 103.9C187.742 103.7 187.515 103.387 187.342 102.96L184.522 95.98C184.375 95.6067 184.328 95.28 184.382 95C184.435 94.7067 184.575 94.4733 184.802 94.3C185.042 94.1133 185.368 94.02 185.782 94.02C186.128 94.02 186.415 94.1067 186.642 94.28C186.868 94.44 187.062 94.7533 187.222 95.22L189.422 101.08H188.962L191.242 94.96C191.348 94.64 191.502 94.4067 191.702 94.26C191.915 94.1 192.188 94.02 192.522 94.02C192.855 94.02 193.122 94.1 193.322 94.26C193.535 94.42 193.702 94.6533 193.822 94.96L196.062 101.08H195.682L197.862 95.14C198.022 94.7133 198.228 94.42 198.482 94.26C198.735 94.1 199.008 94.02 199.302 94.02C199.675 94.02 199.962 94.1133 200.162 94.3C200.375 94.4867 200.495 94.7267 200.522 95.02C200.562 95.3133 200.508 95.6333 200.362 95.98L197.562 102.96C197.402 103.373 197.175 103.68 196.882 103.88C196.602 104.08 196.262 104.18 195.862 104.18C195.475 104.18 195.135 104.08 194.842 103.88C194.562 103.68 194.335 103.373 194.162 102.96L191.762 96.72H193.062L190.722 102.94C190.562 103.353 190.342 103.667 190.062 103.88C189.782 104.08 189.442 104.18 189.042 104.18ZM203.748 104.18C203.255 104.18 202.875 104.047 202.608 103.78C202.355 103.513 202.228 103.133 202.228 102.64V95.54C202.228 95.0467 202.355 94.6733 202.608 94.42C202.875 94.1533 203.242 94.02 203.708 94.02C204.188 94.02 204.555 94.1533 204.808 94.42C205.062 94.6733 205.188 95.0467 205.188 95.54V96.68L204.968 96.02C205.275 95.3667 205.728 94.8667 206.328 94.52C206.942 94.16 207.635 93.98 208.408 93.98C209.195 93.98 209.842 94.1333 210.348 94.44C210.855 94.7333 211.235 95.1867 211.488 95.8C211.742 96.4 211.868 97.1667 211.868 98.1V102.64C211.868 103.133 211.735 103.513 211.468 103.78C211.215 104.047 210.842 104.18 210.348 104.18C209.868 104.18 209.495 104.047 209.228 103.78C208.975 103.513 208.848 103.133 208.848 102.64V98.24C208.848 97.56 208.722 97.0733 208.468 96.78C208.228 96.4733 207.855 96.32 207.348 96.32C206.708 96.32 206.195 96.52 205.808 96.92C205.435 97.32 205.248 97.8533 205.248 98.52V102.64C205.248 103.667 204.748 104.18 203.748 104.18ZM221.229 107.78C220.735 107.78 220.355 107.647 220.089 107.38C219.835 107.127 219.709 106.747 219.709 106.24V95.54C219.709 95.0467 219.835 94.6733 220.089 94.42C220.355 94.1533 220.722 94.02 221.189 94.02C221.682 94.02 222.055 94.1533 222.309 94.42C222.562 94.6733 222.689 95.0467 222.689 95.54V96.9L222.469 96.12C222.669 95.48 223.069 94.9667 223.669 94.58C224.282 94.18 224.982 93.98 225.769 93.98C226.622 93.98 227.369 94.1867 228.009 94.6C228.662 95.0133 229.169 95.6 229.529 96.36C229.889 97.12 230.069 98.0267 230.069 99.08C230.069 100.133 229.889 101.047 229.529 101.82C229.169 102.593 228.669 103.187 228.029 103.6C227.389 104.013 226.635 104.22 225.769 104.22C224.995 104.22 224.309 104.033 223.709 103.66C223.109 103.273 222.702 102.773 222.489 102.16H222.729V106.24C222.729 106.747 222.595 107.127 222.329 107.38C222.075 107.647 221.709 107.78 221.229 107.78ZM224.869 101.96C225.295 101.96 225.669 101.853 225.989 101.64C226.322 101.427 226.575 101.113 226.749 100.7C226.935 100.273 227.029 99.7333 227.029 99.08C227.029 98.1067 226.829 97.3933 226.429 96.94C226.029 96.4733 225.509 96.24 224.869 96.24C224.442 96.24 224.062 96.34 223.729 96.54C223.409 96.74 223.155 97.0533 222.969 97.48C222.782 97.8933 222.689 98.4267 222.689 99.08C222.689 100.053 222.889 100.78 223.289 101.26C223.689 101.727 224.215 101.96 224.869 101.96ZM235.236 104.22C234.516 104.22 233.869 104.08 233.296 103.8C232.723 103.52 232.276 103.14 231.956 102.66C231.636 102.18 231.476 101.64 231.476 101.04C231.476 100.32 231.663 99.7533 232.036 99.34C232.409 98.9133 233.016 98.6133 233.856 98.44C234.696 98.2533 235.809 98.16 237.196 98.16H238.256V99.72H237.216C236.536 99.72 235.983 99.76 235.556 99.84C235.143 99.9067 234.843 100.027 234.656 100.2C234.483 100.373 234.396 100.613 234.396 100.92C234.396 101.293 234.523 101.6 234.776 101.84C235.043 102.08 235.423 102.2 235.916 102.2C236.303 102.2 236.643 102.113 236.936 101.94C237.243 101.753 237.483 101.507 237.656 101.2C237.829 100.88 237.916 100.52 237.916 100.12V97.82C237.916 97.2333 237.783 96.82 237.516 96.58C237.249 96.3267 236.796 96.2 236.156 96.2C235.796 96.2 235.403 96.2467 234.976 96.34C234.563 96.42 234.103 96.56 233.596 96.76C233.303 96.8933 233.043 96.9267 232.816 96.86C232.589 96.78 232.416 96.6467 232.296 96.46C232.176 96.26 232.116 96.0467 232.116 95.82C232.116 95.58 232.183 95.3533 232.316 95.14C232.449 94.9133 232.669 94.7467 232.976 94.64C233.603 94.3867 234.189 94.2133 234.736 94.12C235.296 94.0267 235.809 93.98 236.276 93.98C237.303 93.98 238.143 94.1333 238.796 94.44C239.463 94.7333 239.963 95.1933 240.296 95.82C240.629 96.4333 240.796 97.2267 240.796 98.2V102.64C240.796 103.133 240.676 103.513 240.436 103.78C240.196 104.047 239.849 104.18 239.396 104.18C238.943 104.18 238.589 104.047 238.336 103.78C238.096 103.513 237.976 103.133 237.976 102.64V101.9L238.116 102.02C238.036 102.473 237.863 102.867 237.596 103.2C237.343 103.52 237.016 103.773 236.616 103.96C236.216 104.133 235.756 104.22 235.236 104.22ZM247.829 104.22C246.762 104.22 245.829 104.013 245.029 103.6C244.242 103.173 243.635 102.573 243.209 101.8C242.782 101.027 242.569 100.113 242.569 99.06C242.569 98.2733 242.689 97.5667 242.929 96.94C243.169 96.3133 243.515 95.78 243.969 95.34C244.435 94.9 244.995 94.5667 245.649 94.34C246.302 94.1 247.029 93.98 247.829 93.98C248.242 93.98 248.682 94.0333 249.149 94.14C249.615 94.2333 250.075 94.4 250.529 94.64C250.795 94.76 250.975 94.9333 251.069 95.16C251.175 95.3733 251.215 95.6 251.189 95.84C251.162 96.0667 251.075 96.2733 250.929 96.46C250.795 96.6333 250.622 96.7533 250.409 96.82C250.195 96.8733 249.955 96.8333 249.689 96.7C249.435 96.5533 249.169 96.4467 248.889 96.38C248.622 96.3133 248.369 96.28 248.129 96.28C247.729 96.28 247.375 96.3467 247.069 96.48C246.762 96.6 246.502 96.78 246.289 97.02C246.089 97.2467 245.929 97.5333 245.809 97.88C245.702 98.2267 245.649 98.6267 245.649 99.08C245.649 99.96 245.862 100.653 246.289 101.16C246.729 101.653 247.342 101.9 248.129 101.9C248.369 101.9 248.622 101.873 248.889 101.82C249.155 101.753 249.422 101.647 249.689 101.5C249.955 101.367 250.195 101.333 250.409 101.4C250.622 101.467 250.789 101.593 250.909 101.78C251.042 101.953 251.115 102.16 251.129 102.4C251.155 102.627 251.115 102.853 251.009 103.08C250.915 103.293 250.742 103.46 250.489 103.58C250.035 103.807 249.582 103.967 249.129 104.06C248.675 104.167 248.242 104.22 247.829 104.22ZM257.504 104.22C256.344 104.22 255.344 104.013 254.504 103.6C253.677 103.173 253.037 102.58 252.584 101.82C252.144 101.047 251.924 100.14 251.924 99.1C251.924 98.0867 252.137 97.2 252.564 96.44C252.991 95.6667 253.584 95.0667 254.344 94.64C255.117 94.2 255.991 93.98 256.964 93.98C257.671 93.98 258.311 94.1 258.884 94.34C259.457 94.5667 259.951 94.9 260.364 95.34C260.777 95.7667 261.091 96.2933 261.304 96.92C261.517 97.5333 261.624 98.22 261.624 98.98C261.624 99.2333 261.544 99.4267 261.384 99.56C261.224 99.68 260.991 99.74 260.684 99.74H254.404V98.18H259.444L259.124 98.46C259.124 97.9133 259.044 97.46 258.884 97.1C258.724 96.7267 258.491 96.4467 258.184 96.26C257.891 96.0733 257.524 95.98 257.084 95.98C256.591 95.98 256.171 96.0933 255.824 96.32C255.477 96.5467 255.211 96.8733 255.024 97.3C254.837 97.7267 254.744 98.24 254.744 98.84V99C254.744 100.013 254.977 100.76 255.444 101.24C255.924 101.72 256.631 101.96 257.564 101.96C257.884 101.96 258.251 101.92 258.664 101.84C259.077 101.76 259.464 101.633 259.824 101.46C260.131 101.313 260.404 101.267 260.644 101.32C260.884 101.36 261.071 101.467 261.204 101.64C261.337 101.813 261.411 102.013 261.424 102.24C261.451 102.467 261.404 102.693 261.284 102.92C261.164 103.133 260.964 103.313 260.684 103.46C260.231 103.713 259.717 103.9 259.144 104.02C258.584 104.153 258.037 104.22 257.504 104.22Z" fill="#DFEBF3"/>
<path d="M24.1328 133H20.5419V121.364H24.2919C25.4207 121.364 26.3866 121.597 27.1896 122.062C27.9927 122.525 28.6082 123.189 29.0362 124.057C29.4643 124.92 29.6783 125.955 29.6783 127.159C29.6783 128.371 29.4624 129.415 29.0305 130.29C28.5987 131.161 27.9699 131.831 27.1442 132.301C26.3184 132.767 25.3146 133 24.1328 133ZM21.951 131.75H24.0419C25.004 131.75 25.8014 131.564 26.4339 131.193C27.0665 130.822 27.5381 130.294 27.8487 129.608C28.1593 128.922 28.3146 128.106 28.3146 127.159C28.3146 126.22 28.1612 125.411 27.8544 124.733C27.5476 124.051 27.0893 123.528 26.4794 123.165C25.8696 122.797 25.1101 122.614 24.201 122.614H21.951V131.75ZM31.8601 133V124.273H33.201V133H31.8601ZM32.5419 122.818C32.2805 122.818 32.0552 122.729 31.8658 122.551C31.6802 122.373 31.5874 122.159 31.5874 121.909C31.5874 121.659 31.6802 121.445 31.8658 121.267C32.0552 121.089 32.2805 121 32.5419 121C32.8033 121 33.0268 121.089 33.2124 121.267C33.4018 121.445 33.4964 121.659 33.4964 121.909C33.4964 122.159 33.4018 122.373 33.2124 122.551C33.0268 122.729 32.8033 122.818 32.5419 122.818ZM39.5433 124.273V125.409H34.8388V124.273H39.5433ZM36.2479 133V123.068C36.2479 122.568 36.3653 122.152 36.6001 121.818C36.835 121.485 37.1399 121.235 37.5149 121.068C37.8899 120.902 38.2857 120.818 38.7024 120.818C39.032 120.818 39.3009 120.845 39.5092 120.898C39.7176 120.951 39.8729 121 39.9751 121.045L39.5888 122.205C39.5206 122.182 39.4259 122.153 39.3047 122.119C39.1873 122.085 39.032 122.068 38.8388 122.068C38.3956 122.068 38.0755 122.18 37.8786 122.403C37.6854 122.627 37.5888 122.955 37.5888 123.386V133H36.2479ZM45.3089 124.273V125.409H40.6044V124.273H45.3089ZM42.0135 133V123.068C42.0135 122.568 42.1309 122.152 42.3658 121.818C42.6006 121.485 42.9055 121.235 43.2805 121.068C43.6555 120.902 44.0514 120.818 44.468 120.818C44.7976 120.818 45.0665 120.845 45.2749 120.898C45.4832 120.951 45.6385 121 45.7408 121.045L45.3544 122.205C45.2862 122.182 45.1915 122.153 45.0703 122.119C44.9529 122.085 44.7976 122.068 44.6044 122.068C44.1612 122.068 43.8411 122.18 43.6442 122.403C43.451 122.627 43.3544 122.955 43.3544 123.386V133H42.0135ZM50.4879 133.182C49.647 133.182 48.9216 132.996 48.3118 132.625C47.7057 132.25 47.2379 131.727 46.9084 131.057C46.5826 130.383 46.4197 129.598 46.4197 128.705C46.4197 127.811 46.5826 127.023 46.9084 126.341C47.2379 125.655 47.6963 125.121 48.2834 124.739C48.8743 124.352 49.5637 124.159 50.3516 124.159C50.8061 124.159 51.255 124.235 51.6982 124.386C52.1413 124.538 52.5447 124.784 52.9084 125.125C53.272 125.462 53.5618 125.909 53.7777 126.466C53.9936 127.023 54.1016 127.708 54.1016 128.523V129.091H47.3743V127.932H52.7379C52.7379 127.439 52.6394 127 52.4425 126.614C52.2493 126.227 51.9728 125.922 51.6129 125.699C51.2569 125.475 50.8364 125.364 50.3516 125.364C49.8175 125.364 49.3554 125.496 48.9652 125.761C48.5788 126.023 48.2815 126.364 48.0732 126.784C47.8648 127.205 47.7607 127.655 47.7607 128.136V128.909C47.7607 129.568 47.8743 130.127 48.1016 130.585C48.3326 131.04 48.6527 131.386 49.0618 131.625C49.4709 131.86 49.9463 131.977 50.4879 131.977C50.8402 131.977 51.1584 131.928 51.4425 131.83C51.7304 131.727 51.9785 131.576 52.1868 131.375C52.3951 131.17 52.5561 130.917 52.6697 130.614L53.9652 130.977C53.8288 131.417 53.5997 131.803 53.2777 132.136C52.9557 132.466 52.558 132.723 52.0845 132.909C51.611 133.091 51.0788 133.182 50.4879 133.182ZM56.1413 133V124.273H57.4368V125.591H57.5277C57.6868 125.159 57.9747 124.809 58.3913 124.54C58.808 124.271 59.2777 124.136 59.8004 124.136C59.8989 124.136 60.022 124.138 60.1697 124.142C60.3175 124.146 60.4292 124.152 60.505 124.159V125.523C60.4595 125.511 60.3554 125.494 60.1925 125.472C60.0334 125.445 59.8648 125.432 59.6868 125.432C59.2625 125.432 58.8838 125.521 58.5504 125.699C58.2209 125.873 57.9595 126.116 57.7663 126.426C57.5769 126.733 57.4822 127.083 57.4822 127.477V133H56.1413ZM65.4879 133.182C64.647 133.182 63.9216 132.996 63.3118 132.625C62.7057 132.25 62.2379 131.727 61.9084 131.057C61.5826 130.383 61.4197 129.598 61.4197 128.705C61.4197 127.811 61.5826 127.023 61.9084 126.341C62.2379 125.655 62.6963 125.121 63.2834 124.739C63.8743 124.352 64.5637 124.159 65.3516 124.159C65.8061 124.159 66.255 124.235 66.6982 124.386C67.1413 124.538 67.5447 124.784 67.9084 125.125C68.272 125.462 68.5618 125.909 68.7777 126.466C68.9936 127.023 69.1016 127.708 69.1016 128.523V129.091H62.3743V127.932H67.7379C67.7379 127.439 67.6394 127 67.4425 126.614C67.2493 126.227 66.9728 125.922 66.6129 125.699C66.2569 125.475 65.8364 125.364 65.3516 125.364C64.8175 125.364 64.3554 125.496 63.9652 125.761C63.5788 126.023 63.2815 126.364 63.0732 126.784C62.8648 127.205 62.7607 127.655 62.7607 128.136V128.909C62.7607 129.568 62.8743 130.127 63.1016 130.585C63.3326 131.04 63.6527 131.386 64.0618 131.625C64.4709 131.86 64.9463 131.977 65.4879 131.977C65.8402 131.977 66.1584 131.928 66.4425 131.83C66.7304 131.727 66.9785 131.576 67.1868 131.375C67.3951 131.17 67.5561 130.917 67.6697 130.614L68.9652 130.977C68.8288 131.417 68.5997 131.803 68.2777 132.136C67.9557 132.466 67.558 132.723 67.0845 132.909C66.611 133.091 66.0788 133.182 65.4879 133.182ZM72.4822 127.75V133H71.1413V124.273H72.4368V125.636H72.5504C72.755 125.193 73.0656 124.837 73.4822 124.568C73.8989 124.295 74.4368 124.159 75.0959 124.159C75.6868 124.159 76.2038 124.28 76.647 124.523C77.0902 124.761 77.4349 125.125 77.6811 125.614C77.9273 126.098 78.0504 126.712 78.0504 127.455V133H76.7095V127.545C76.7095 126.86 76.5315 126.326 76.1754 125.943C75.8194 125.557 75.3307 125.364 74.7095 125.364C74.2815 125.364 73.8989 125.456 73.5618 125.642C73.2285 125.828 72.9652 126.098 72.772 126.455C72.5788 126.811 72.4822 127.242 72.4822 127.75ZM84.2962 124.273V125.409H79.7734V124.273H84.2962ZM81.0916 122.182H82.4325V130.5C82.4325 130.879 82.4875 131.163 82.5973 131.352C82.7109 131.538 82.8549 131.663 83.0291 131.727C83.2071 131.788 83.3946 131.818 83.5916 131.818C83.7393 131.818 83.8606 131.811 83.9553 131.795C84.05 131.777 84.1257 131.761 84.1825 131.75L84.4553 132.955C84.3643 132.989 84.2375 133.023 84.0746 133.057C83.9117 133.095 83.7053 133.114 83.4553 133.114C83.0765 133.114 82.7053 133.032 82.3416 132.869C81.9818 132.706 81.6825 132.458 81.4439 132.125C81.209 131.792 81.0916 131.371 81.0916 130.864V122.182ZM94.3587 133.182C93.5405 133.182 92.8359 132.989 92.245 132.602C91.6541 132.216 91.1996 131.684 90.8814 131.006C90.5632 130.328 90.4041 129.553 90.4041 128.682C90.4041 127.795 90.567 127.013 90.8928 126.335C91.2223 125.653 91.6806 125.121 92.2678 124.739C92.8587 124.352 93.5481 124.159 94.3359 124.159C94.9496 124.159 95.5026 124.273 95.995 124.5C96.4875 124.727 96.8909 125.045 97.2053 125.455C97.5196 125.864 97.7147 126.341 97.7905 126.886H96.4496C96.3473 126.489 96.12 126.136 95.7678 125.83C95.4193 125.519 94.9496 125.364 94.3587 125.364C93.8359 125.364 93.3776 125.5 92.9837 125.773C92.5935 126.042 92.2886 126.422 92.0689 126.915C91.853 127.403 91.745 127.977 91.745 128.636C91.745 129.311 91.8511 129.898 92.0632 130.398C92.2791 130.898 92.5821 131.286 92.9723 131.562C93.3662 131.839 93.8284 131.977 94.3587 131.977C94.7071 131.977 95.0234 131.917 95.3075 131.795C95.5916 131.674 95.8321 131.5 96.0291 131.273C96.2261 131.045 96.3662 130.773 96.4496 130.455H97.7905C97.7147 130.97 97.5272 131.434 97.228 131.847C96.9325 132.256 96.5405 132.581 96.0518 132.824C95.567 133.062 95.0026 133.182 94.3587 133.182ZM103.296 133.182C102.508 133.182 101.817 132.994 101.222 132.619C100.631 132.244 100.169 131.72 99.8359 131.045C99.5064 130.371 99.3416 129.583 99.3416 128.682C99.3416 127.773 99.5064 126.979 99.8359 126.301C100.169 125.623 100.631 125.097 101.222 124.722C101.817 124.347 102.508 124.159 103.296 124.159C104.084 124.159 104.773 124.347 105.364 124.722C105.959 125.097 106.421 125.623 106.751 126.301C107.084 126.979 107.251 127.773 107.251 128.682C107.251 129.583 107.084 130.371 106.751 131.045C106.421 131.72 105.959 132.244 105.364 132.619C104.773 132.994 104.084 133.182 103.296 133.182ZM103.296 131.977C103.895 131.977 104.387 131.824 104.773 131.517C105.16 131.21 105.446 130.807 105.631 130.307C105.817 129.807 105.91 129.265 105.91 128.682C105.91 128.098 105.817 127.555 105.631 127.051C105.446 126.547 105.16 126.14 104.773 125.83C104.387 125.519 103.895 125.364 103.296 125.364C102.698 125.364 102.205 125.519 101.819 125.83C101.433 126.14 101.147 126.547 100.961 127.051C100.775 127.555 100.683 128.098 100.683 128.682C100.683 129.265 100.775 129.807 100.961 130.307C101.147 130.807 101.433 131.21 101.819 131.517C102.205 131.824 102.698 131.977 103.296 131.977ZM110.638 127.75V133H109.298V124.273H110.593V125.636H110.707C110.911 125.193 111.222 124.837 111.638 124.568C112.055 124.295 112.593 124.159 113.252 124.159C113.843 124.159 114.36 124.28 114.803 124.523C115.246 124.761 115.591 125.125 115.837 125.614C116.084 126.098 116.207 126.712 116.207 127.455V133H114.866V127.545C114.866 126.86 114.688 126.326 114.332 125.943C113.976 125.557 113.487 125.364 112.866 125.364C112.438 125.364 112.055 125.456 111.718 125.642C111.385 125.828 111.121 126.098 110.928 126.455C110.735 126.811 110.638 127.242 110.638 127.75ZM122.452 124.273V125.409H117.93V124.273H122.452ZM119.248 122.182H120.589V130.5C120.589 130.879 120.644 131.163 120.754 131.352C120.867 131.538 121.011 131.663 121.185 131.727C121.363 131.788 121.551 131.818 121.748 131.818C121.896 131.818 122.017 131.811 122.112 131.795C122.206 131.777 122.282 131.761 122.339 131.75L122.612 132.955C122.521 132.989 122.394 133.023 122.231 133.057C122.068 133.095 121.862 133.114 121.612 133.114C121.233 133.114 120.862 133.032 120.498 132.869C120.138 132.706 119.839 132.458 119.6 132.125C119.365 131.792 119.248 131.371 119.248 130.864V122.182ZM128.035 133.182C127.194 133.182 126.469 132.996 125.859 132.625C125.253 132.25 124.785 131.727 124.455 131.057C124.129 130.383 123.967 129.598 123.967 128.705C123.967 127.811 124.129 127.023 124.455 126.341C124.785 125.655 125.243 125.121 125.83 124.739C126.421 124.352 127.111 124.159 127.898 124.159C128.353 124.159 128.802 124.235 129.245 124.386C129.688 124.538 130.092 124.784 130.455 125.125C130.819 125.462 131.109 125.909 131.325 126.466C131.54 127.023 131.648 127.708 131.648 128.523V129.091H124.921V127.932H130.285C130.285 127.439 130.186 127 129.989 126.614C129.796 126.227 129.52 125.922 129.16 125.699C128.804 125.475 128.383 125.364 127.898 125.364C127.364 125.364 126.902 125.496 126.512 125.761C126.126 126.023 125.828 126.364 125.62 126.784C125.412 127.205 125.308 127.655 125.308 128.136V128.909C125.308 129.568 125.421 130.127 125.648 130.585C125.879 131.04 126.2 131.386 126.609 131.625C127.018 131.86 127.493 131.977 128.035 131.977C128.387 131.977 128.705 131.928 128.989 131.83C129.277 131.727 129.525 131.576 129.734 131.375C129.942 131.17 130.103 130.917 130.217 130.614L131.512 130.977C131.376 131.417 131.147 131.803 130.825 132.136C130.503 132.466 130.105 132.723 129.631 132.909C129.158 133.091 128.626 133.182 128.035 133.182ZM135.029 127.75V133H133.688V124.273H134.984V125.636H135.097C135.302 125.193 135.612 124.837 136.029 124.568C136.446 124.295 136.984 124.159 137.643 124.159C138.234 124.159 138.751 124.28 139.194 124.523C139.637 124.761 139.982 125.125 140.228 125.614C140.474 126.098 140.597 126.712 140.597 127.455V133H139.256V127.545C139.256 126.86 139.078 126.326 138.722 125.943C138.366 125.557 137.878 125.364 137.256 125.364C136.828 125.364 136.446 125.456 136.109 125.642C135.775 125.828 135.512 126.098 135.319 126.455C135.126 126.811 135.029 127.242 135.029 127.75ZM146.843 124.273V125.409H142.32V124.273H146.843ZM143.638 122.182H144.979V130.5C144.979 130.879 145.034 131.163 145.144 131.352C145.258 131.538 145.402 131.663 145.576 131.727C145.754 131.788 145.942 131.818 146.138 131.818C146.286 131.818 146.407 131.811 146.502 131.795C146.597 131.777 146.673 131.761 146.729 131.75L147.002 132.955C146.911 132.989 146.784 133.023 146.621 133.057C146.459 133.095 146.252 133.114 146.002 133.114C145.623 133.114 145.252 133.032 144.888 132.869C144.529 132.706 144.229 132.458 143.991 132.125C143.756 131.792 143.638 131.371 143.638 130.864V122.182ZM157.246 124.273V125.409H152.542V124.273H157.246ZM153.951 133V123.068C153.951 122.568 154.068 122.152 154.303 121.818C154.538 121.485 154.843 121.235 155.218 121.068C155.593 120.902 155.989 120.818 156.406 120.818C156.735 120.818 157.004 120.845 157.212 120.898C157.421 120.951 157.576 121 157.678 121.045L157.292 122.205C157.224 122.182 157.129 122.153 157.008 122.119C156.89 122.085 156.735 122.068 156.542 122.068C156.099 122.068 155.779 122.18 155.582 122.403C155.388 122.627 155.292 122.955 155.292 123.386V133H153.951ZM162.312 133.182C161.524 133.182 160.833 132.994 160.238 132.619C159.647 132.244 159.185 131.72 158.852 131.045C158.522 130.371 158.357 129.583 158.357 128.682C158.357 127.773 158.522 126.979 158.852 126.301C159.185 125.623 159.647 125.097 160.238 124.722C160.833 124.347 161.524 124.159 162.312 124.159C163.1 124.159 163.789 124.347 164.38 124.722C164.975 125.097 165.437 125.623 165.766 126.301C166.1 126.979 166.266 127.773 166.266 128.682C166.266 129.583 166.1 130.371 165.766 131.045C165.437 131.72 164.975 132.244 164.38 132.619C163.789 132.994 163.1 133.182 162.312 133.182ZM162.312 131.977C162.91 131.977 163.403 131.824 163.789 131.517C164.175 131.21 164.461 130.807 164.647 130.307C164.833 129.807 164.925 129.265 164.925 128.682C164.925 128.098 164.833 127.555 164.647 127.051C164.461 126.547 164.175 126.14 163.789 125.83C163.403 125.519 162.91 125.364 162.312 125.364C161.713 125.364 161.221 125.519 160.835 125.83C160.448 126.14 160.162 126.547 159.977 127.051C159.791 127.555 159.698 128.098 159.698 128.682C159.698 129.265 159.791 129.807 159.977 130.307C160.162 130.807 160.448 131.21 160.835 131.517C161.221 131.824 161.713 131.977 162.312 131.977ZM168.313 133V124.273H169.609V125.591H169.7C169.859 125.159 170.147 124.809 170.563 124.54C170.98 124.271 171.45 124.136 171.972 124.136C172.071 124.136 172.194 124.138 172.342 124.142C172.489 124.146 172.601 124.152 172.677 124.159V125.523C172.631 125.511 172.527 125.494 172.364 125.472C172.205 125.445 172.037 125.432 171.859 125.432C171.434 125.432 171.056 125.521 170.722 125.699C170.393 125.873 170.131 126.116 169.938 126.426C169.749 126.733 169.654 127.083 169.654 127.477V133H168.313ZM182.062 133.182C181.335 133.182 180.692 132.998 180.136 132.631C179.579 132.259 179.143 131.737 178.829 131.062C178.514 130.384 178.357 129.583 178.357 128.659C178.357 127.742 178.514 126.947 178.829 126.273C179.143 125.598 179.581 125.078 180.141 124.71C180.702 124.343 181.35 124.159 182.085 124.159C182.653 124.159 183.102 124.254 183.431 124.443C183.764 124.629 184.018 124.841 184.192 125.08C184.371 125.314 184.509 125.508 184.607 125.659H184.721V121.364H186.062V133H184.766V131.659H184.607C184.509 131.818 184.369 132.019 184.187 132.261C184.005 132.5 183.746 132.714 183.408 132.903C183.071 133.089 182.622 133.182 182.062 133.182ZM182.244 131.977C182.781 131.977 183.236 131.837 183.607 131.557C183.978 131.273 184.261 130.881 184.454 130.381C184.647 129.877 184.744 129.295 184.744 128.636C184.744 127.985 184.649 127.415 184.46 126.926C184.27 126.434 183.99 126.051 183.619 125.778C183.247 125.502 182.789 125.364 182.244 125.364C181.675 125.364 181.202 125.509 180.823 125.801C180.448 126.089 180.166 126.481 179.977 126.977C179.791 127.47 179.698 128.023 179.698 128.636C179.698 129.258 179.793 129.822 179.982 130.33C180.175 130.833 180.46 131.235 180.835 131.534C181.213 131.83 181.683 131.977 182.244 131.977ZM188.704 133V124.273H190.045V133H188.704ZM189.386 122.818C189.124 122.818 188.899 122.729 188.71 122.551C188.524 122.373 188.431 122.159 188.431 121.909C188.431 121.659 188.524 121.445 188.71 121.267C188.899 121.089 189.124 121 189.386 121C189.647 121 189.871 121.089 190.056 121.267C190.246 121.445 190.34 121.659 190.34 121.909C190.34 122.159 190.246 122.373 190.056 122.551C189.871 122.729 189.647 122.818 189.386 122.818ZM196.387 124.273V125.409H191.683V124.273H196.387ZM193.092 133V123.068C193.092 122.568 193.209 122.152 193.444 121.818C193.679 121.485 193.984 121.235 194.359 121.068C194.734 120.902 195.129 120.818 195.546 120.818C195.876 120.818 196.145 120.845 196.353 120.898C196.561 120.951 196.717 121 196.819 121.045L196.433 122.205C196.364 122.182 196.27 122.153 196.148 122.119C196.031 122.085 195.876 122.068 195.683 122.068C195.239 122.068 194.919 122.18 194.722 122.403C194.529 122.627 194.433 122.955 194.433 123.386V133H193.092ZM202.153 124.273V125.409H197.448V124.273H202.153ZM198.857 133V123.068C198.857 122.568 198.975 122.152 199.21 121.818C199.444 121.485 199.749 121.235 200.124 121.068C200.499 120.902 200.895 120.818 201.312 120.818C201.641 120.818 201.91 120.845 202.119 120.898C202.327 120.951 202.482 121 202.585 121.045L202.198 122.205C202.13 122.182 202.035 122.153 201.914 122.119C201.797 122.085 201.641 122.068 201.448 122.068C201.005 122.068 200.685 122.18 200.488 122.403C200.295 122.627 200.198 122.955 200.198 123.386V133H198.857ZM207.332 133.182C206.491 133.182 205.765 132.996 205.156 132.625C204.549 132.25 204.082 131.727 203.752 131.057C203.426 130.383 203.263 129.598 203.263 128.705C203.263 127.811 203.426 127.023 203.752 126.341C204.082 125.655 204.54 125.121 205.127 124.739C205.718 124.352 206.407 124.159 207.195 124.159C207.65 124.159 208.099 124.235 208.542 124.386C208.985 124.538 209.388 124.784 209.752 125.125C210.116 125.462 210.406 125.909 210.621 126.466C210.837 127.023 210.945 127.708 210.945 128.523V129.091H204.218V127.932H209.582C209.582 127.439 209.483 127 209.286 126.614C209.093 126.227 208.817 125.922 208.457 125.699C208.101 125.475 207.68 125.364 207.195 125.364C206.661 125.364 206.199 125.496 205.809 125.761C205.423 126.023 205.125 126.364 204.917 126.784C204.709 127.205 204.604 127.655 204.604 128.136V128.909C204.604 129.568 204.718 130.127 204.945 130.585C205.176 131.04 205.496 131.386 205.906 131.625C206.315 131.86 206.79 131.977 207.332 131.977C207.684 131.977 208.002 131.928 208.286 131.83C208.574 131.727 208.822 131.576 209.031 131.375C209.239 131.17 209.4 130.917 209.513 130.614L210.809 130.977C210.673 131.417 210.443 131.803 210.121 132.136C209.799 132.466 209.402 132.723 208.928 132.909C208.455 133.091 207.923 133.182 207.332 133.182ZM212.985 133V124.273H214.281V125.591H214.371C214.531 125.159 214.818 124.809 215.235 124.54C215.652 124.271 216.121 124.136 216.644 124.136C216.743 124.136 216.866 124.138 217.013 124.142C217.161 124.146 217.273 124.152 217.349 124.159V125.523C217.303 125.511 217.199 125.494 217.036 125.472C216.877 125.445 216.709 125.432 216.531 125.432C216.106 125.432 215.728 125.521 215.394 125.699C215.065 125.873 214.803 126.116 214.61 126.426C214.421 126.733 214.326 127.083 214.326 127.477V133H212.985ZM222.332 133.182C221.491 133.182 220.765 132.996 220.156 132.625C219.549 132.25 219.082 131.727 218.752 131.057C218.426 130.383 218.263 129.598 218.263 128.705C218.263 127.811 218.426 127.023 218.752 126.341C219.082 125.655 219.54 125.121 220.127 124.739C220.718 124.352 221.407 124.159 222.195 124.159C222.65 124.159 223.099 124.235 223.542 124.386C223.985 124.538 224.388 124.784 224.752 125.125C225.116 125.462 225.406 125.909 225.621 126.466C225.837 127.023 225.945 127.708 225.945 128.523V129.091H219.218V127.932H224.582C224.582 127.439 224.483 127 224.286 126.614C224.093 126.227 223.817 125.922 223.457 125.699C223.101 125.475 222.68 125.364 222.195 125.364C221.661 125.364 221.199 125.496 220.809 125.761C220.423 126.023 220.125 126.364 219.917 126.784C219.709 127.205 219.604 127.655 219.604 128.136V128.909C219.604 129.568 219.718 130.127 219.945 130.585C220.176 131.04 220.496 131.386 220.906 131.625C221.315 131.86 221.79 131.977 222.332 131.977C222.684 131.977 223.002 131.928 223.286 131.83C223.574 131.727 223.822 131.576 224.031 131.375C224.239 131.17 224.4 130.917 224.513 130.614L225.809 130.977C225.673 131.417 225.443 131.803 225.121 132.136C224.799 132.466 224.402 132.723 223.928 132.909C223.455 133.091 222.923 133.182 222.332 133.182ZM229.326 127.75V133H227.985V124.273H229.281V125.636H229.394C229.599 125.193 229.909 124.837 230.326 124.568C230.743 124.295 231.281 124.159 231.94 124.159C232.531 124.159 233.048 124.28 233.491 124.523C233.934 124.761 234.279 125.125 234.525 125.614C234.771 126.098 234.894 126.712 234.894 127.455V133H233.553V127.545C233.553 126.86 233.375 126.326 233.019 125.943C232.663 125.557 232.174 125.364 231.553 125.364C231.125 125.364 230.743 125.456 230.406 125.642C230.072 125.828 229.809 126.098 229.616 126.455C229.423 126.811 229.326 127.242 229.326 127.75ZM241.14 124.273V125.409H236.617V124.273H241.14ZM237.935 122.182H239.276V130.5C239.276 130.879 239.331 131.163 239.441 131.352C239.555 131.538 239.699 131.663 239.873 131.727C240.051 131.788 240.238 131.818 240.435 131.818C240.583 131.818 240.704 131.811 240.799 131.795C240.894 131.777 240.969 131.761 241.026 131.75L241.299 132.955C241.208 132.989 241.081 133.023 240.918 133.057C240.755 133.095 240.549 133.114 240.299 133.114C239.92 133.114 239.549 133.032 239.185 132.869C238.826 132.706 238.526 132.458 238.288 132.125C238.053 131.792 237.935 131.371 237.935 130.864V122.182ZM250.225 133.205C249.672 133.205 249.17 133.1 248.719 132.892C248.269 132.68 247.911 132.375 247.646 131.977C247.38 131.576 247.248 131.091 247.248 130.523C247.248 130.023 247.346 129.617 247.543 129.307C247.74 128.992 248.004 128.746 248.333 128.568C248.663 128.39 249.026 128.258 249.424 128.17C249.826 128.08 250.229 128.008 250.634 127.955C251.165 127.886 251.594 127.835 251.924 127.801C252.257 127.763 252.5 127.701 252.651 127.614C252.807 127.527 252.884 127.375 252.884 127.159V127.114C252.884 126.553 252.731 126.117 252.424 125.807C252.121 125.496 251.661 125.341 251.043 125.341C250.403 125.341 249.901 125.481 249.538 125.761C249.174 126.042 248.918 126.341 248.771 126.659L247.498 126.205C247.725 125.674 248.028 125.261 248.407 124.966C248.79 124.667 249.206 124.458 249.657 124.341C250.112 124.22 250.558 124.159 250.998 124.159C251.278 124.159 251.6 124.193 251.964 124.261C252.331 124.326 252.685 124.46 253.026 124.665C253.371 124.869 253.657 125.178 253.884 125.591C254.112 126.004 254.225 126.557 254.225 127.25V133H252.884V131.818H252.816C252.725 132.008 252.574 132.21 252.362 132.426C252.149 132.642 251.867 132.826 251.515 132.977C251.163 133.129 250.733 133.205 250.225 133.205ZM250.43 132C250.96 132 251.407 131.896 251.771 131.688C252.138 131.479 252.415 131.21 252.6 130.881C252.79 130.551 252.884 130.205 252.884 129.841V128.614C252.827 128.682 252.702 128.744 252.509 128.801C252.32 128.854 252.1 128.902 251.85 128.943C251.604 128.981 251.363 129.015 251.129 129.045C250.897 129.072 250.71 129.095 250.566 129.114C250.218 129.159 249.892 129.233 249.589 129.335C249.29 129.434 249.047 129.583 248.862 129.784C248.68 129.981 248.589 130.25 248.589 130.591C248.589 131.057 248.761 131.409 249.106 131.648C249.454 131.883 249.896 132 250.43 132ZM260.195 136.455C259.548 136.455 258.991 136.371 258.525 136.205C258.059 136.042 257.671 135.826 257.36 135.557C257.053 135.292 256.809 135.008 256.627 134.705L257.695 133.955C257.817 134.114 257.97 134.295 258.156 134.5C258.341 134.708 258.595 134.888 258.917 135.04C259.243 135.195 259.669 135.273 260.195 135.273C260.9 135.273 261.481 135.102 261.94 134.761C262.398 134.42 262.627 133.886 262.627 133.159V131.386H262.513C262.415 131.545 262.275 131.742 262.093 131.977C261.915 132.208 261.657 132.415 261.32 132.597C260.987 132.775 260.536 132.864 259.968 132.864C259.263 132.864 258.631 132.697 258.07 132.364C257.513 132.03 257.072 131.545 256.746 130.909C256.424 130.273 256.263 129.5 256.263 128.591C256.263 127.697 256.421 126.919 256.735 126.256C257.049 125.589 257.487 125.074 258.048 124.71C258.608 124.343 259.256 124.159 259.991 124.159C260.559 124.159 261.01 124.254 261.343 124.443C261.68 124.629 261.938 124.841 262.116 125.08C262.298 125.314 262.438 125.508 262.536 125.659H262.673V124.273H263.968V133.25C263.968 134 263.798 134.61 263.457 135.08C263.12 135.553 262.665 135.9 262.093 136.119C261.525 136.343 260.892 136.455 260.195 136.455ZM260.15 131.659C260.688 131.659 261.142 131.536 261.513 131.29C261.885 131.044 262.167 130.689 262.36 130.227C262.553 129.765 262.65 129.212 262.65 128.568C262.65 127.939 262.555 127.384 262.366 126.903C262.176 126.422 261.896 126.045 261.525 125.773C261.154 125.5 260.695 125.364 260.15 125.364C259.582 125.364 259.108 125.508 258.729 125.795C258.354 126.083 258.072 126.47 257.883 126.955C257.697 127.439 257.604 127.977 257.604 128.568C257.604 129.174 257.699 129.71 257.888 130.176C258.082 130.638 258.366 131.002 258.741 131.267C259.12 131.528 259.589 131.659 260.15 131.659ZM270.082 133.182C269.241 133.182 268.515 132.996 267.906 132.625C267.299 132.25 266.832 131.727 266.502 131.057C266.176 130.383 266.013 129.598 266.013 128.705C266.013 127.811 266.176 127.023 266.502 126.341C266.832 125.655 267.29 125.121 267.877 124.739C268.468 124.352 269.157 124.159 269.945 124.159C270.4 124.159 270.849 124.235 271.292 124.386C271.735 124.538 272.138 124.784 272.502 125.125C272.866 125.462 273.156 125.909 273.371 126.466C273.587 127.023 273.695 127.708 273.695 128.523V129.091H266.968V127.932H272.332C272.332 127.439 272.233 127 272.036 126.614C271.843 126.227 271.567 125.922 271.207 125.699C270.851 125.475 270.43 125.364 269.945 125.364C269.411 125.364 268.949 125.496 268.559 125.761C268.173 126.023 267.875 126.364 267.667 126.784C267.459 127.205 267.354 127.655 267.354 128.136V128.909C267.354 129.568 267.468 130.127 267.695 130.585C267.926 131.04 268.246 131.386 268.656 131.625C269.065 131.86 269.54 131.977 270.082 131.977C270.434 131.977 270.752 131.928 271.036 131.83C271.324 131.727 271.572 131.576 271.781 131.375C271.989 131.17 272.15 130.917 272.263 130.614L273.559 130.977C273.423 131.417 273.193 131.803 272.871 132.136C272.549 132.466 272.152 132.723 271.678 132.909C271.205 133.091 270.673 133.182 270.082 133.182ZM281.917 126.227L280.712 126.568C280.637 126.367 280.525 126.172 280.377 125.983C280.233 125.79 280.036 125.631 279.786 125.506C279.536 125.381 279.216 125.318 278.826 125.318C278.292 125.318 277.847 125.441 277.491 125.688C277.138 125.93 276.962 126.239 276.962 126.614C276.962 126.947 277.084 127.21 277.326 127.403C277.568 127.597 277.947 127.758 278.462 127.886L279.758 128.205C280.538 128.394 281.12 128.684 281.502 129.074C281.885 129.46 282.076 129.958 282.076 130.568C282.076 131.068 281.932 131.515 281.644 131.909C281.36 132.303 280.962 132.614 280.451 132.841C279.94 133.068 279.345 133.182 278.667 133.182C277.777 133.182 277.04 132.989 276.457 132.602C275.873 132.216 275.504 131.652 275.349 130.909L276.621 130.591C276.743 131.061 276.972 131.413 277.309 131.648C277.65 131.883 278.095 132 278.644 132C279.269 132 279.765 131.867 280.133 131.602C280.504 131.333 280.69 131.011 280.69 130.636C280.69 130.333 280.584 130.08 280.371 129.875C280.159 129.667 279.834 129.511 279.394 129.409L277.94 129.068C277.14 128.879 276.553 128.585 276.178 128.188C275.807 127.786 275.621 127.284 275.621 126.682C275.621 126.189 275.76 125.754 276.036 125.375C276.317 124.996 276.697 124.699 277.178 124.483C277.663 124.267 278.212 124.159 278.826 124.159C279.69 124.159 280.368 124.348 280.86 124.727C281.356 125.106 281.709 125.606 281.917 126.227ZM68.6641 151.386V152.636H52.6641V151.386H68.6641ZM75.7322 151.75V157H74.3913V148.273H75.6868V149.636H75.8004C76.005 149.193 76.3156 148.837 76.7322 148.568C77.1489 148.295 77.6868 148.159 78.3459 148.159C78.9368 148.159 79.4538 148.28 79.897 148.523C80.3402 148.761 80.6849 149.125 80.9311 149.614C81.1773 150.098 81.3004 150.712 81.3004 151.455V157H79.9595V151.545C79.9595 150.86 79.7815 150.326 79.4254 149.943C79.0694 149.557 78.5807 149.364 77.9595 149.364C77.5315 149.364 77.1489 149.456 76.8118 149.642C76.4785 149.828 76.2152 150.098 76.022 150.455C75.8288 150.811 75.7322 151.242 75.7322 151.75ZM87.2962 157.182C86.5083 157.182 85.817 156.994 85.2223 156.619C84.6314 156.244 84.1693 155.72 83.8359 155.045C83.5064 154.371 83.3416 153.583 83.3416 152.682C83.3416 151.773 83.5064 150.979 83.8359 150.301C84.1693 149.623 84.6314 149.097 85.2223 148.722C85.817 148.347 86.5083 148.159 87.2962 148.159C88.084 148.159 88.7734 148.347 89.3643 148.722C89.959 149.097 90.4212 149.623 90.7507 150.301C91.084 150.979 91.2507 151.773 91.2507 152.682C91.2507 153.583 91.084 154.371 90.7507 155.045C90.4212 155.72 89.959 156.244 89.3643 156.619C88.7734 156.994 88.084 157.182 87.2962 157.182ZM87.2962 155.977C87.8946 155.977 88.3871 155.824 88.7734 155.517C89.1598 155.21 89.4458 154.807 89.6314 154.307C89.817 153.807 89.9098 153.265 89.9098 152.682C89.9098 152.098 89.817 151.555 89.6314 151.051C89.4458 150.547 89.1598 150.14 88.7734 149.83C88.3871 149.519 87.8946 149.364 87.2962 149.364C86.6977 149.364 86.2053 149.519 85.8189 149.83C85.4325 150.14 85.1465 150.547 84.9609 151.051C84.7753 151.555 84.6825 152.098 84.6825 152.682C84.6825 153.265 84.7753 153.807 84.9609 154.307C85.1465 154.807 85.4325 155.21 85.8189 155.517C86.2053 155.824 86.6977 155.977 87.2962 155.977ZM97.7976 160.273V148.273H99.093V149.659H99.2521C99.3506 149.508 99.487 149.314 99.6612 149.08C99.8393 148.841 100.093 148.629 100.423 148.443C100.756 148.254 101.207 148.159 101.775 148.159C102.51 148.159 103.157 148.343 103.718 148.71C104.279 149.078 104.716 149.598 105.031 150.273C105.345 150.947 105.502 151.742 105.502 152.659C105.502 153.583 105.345 154.384 105.031 155.062C104.716 155.737 104.281 156.259 103.724 156.631C103.167 156.998 102.525 157.182 101.798 157.182C101.237 157.182 100.788 157.089 100.451 156.903C100.114 156.714 99.8544 156.5 99.6726 156.261C99.4908 156.019 99.3506 155.818 99.2521 155.659H99.1385V160.273H97.7976ZM99.1158 152.636C99.1158 153.295 99.2124 153.877 99.4055 154.381C99.5987 154.881 99.8809 155.273 100.252 155.557C100.623 155.837 101.078 155.977 101.616 155.977C102.176 155.977 102.644 155.83 103.019 155.534C103.398 155.235 103.682 154.833 103.871 154.33C104.065 153.822 104.161 153.258 104.161 152.636C104.161 152.023 104.067 151.47 103.877 150.977C103.692 150.481 103.409 150.089 103.031 149.801C102.656 149.509 102.184 149.364 101.616 149.364C101.07 149.364 100.612 149.502 100.241 149.778C99.8696 150.051 99.5893 150.434 99.3999 150.926C99.2105 151.415 99.1158 151.985 99.1158 152.636ZM107.548 157V148.273H108.843V149.591H108.934C109.093 149.159 109.381 148.809 109.798 148.54C110.214 148.271 110.684 148.136 111.207 148.136C111.305 148.136 111.428 148.138 111.576 148.142C111.724 148.146 111.835 148.152 111.911 148.159V149.523C111.866 149.511 111.762 149.494 111.599 149.472C111.44 149.445 111.271 149.432 111.093 149.432C110.669 149.432 110.29 149.521 109.957 149.699C109.627 149.873 109.366 150.116 109.173 150.426C108.983 150.733 108.888 151.083 108.888 151.477V157H107.548ZM116.894 157.182C116.053 157.182 115.328 156.996 114.718 156.625C114.112 156.25 113.644 155.727 113.315 155.057C112.989 154.383 112.826 153.598 112.826 152.705C112.826 151.811 112.989 151.023 113.315 150.341C113.644 149.655 114.103 149.121 114.69 148.739C115.281 148.352 115.97 148.159 116.758 148.159C117.212 148.159 117.661 148.235 118.104 148.386C118.548 148.538 118.951 148.784 119.315 149.125C119.678 149.462 119.968 149.909 120.184 150.466C120.4 151.023 120.508 151.708 120.508 152.523V153.091H113.781V151.932H119.144C119.144 151.439 119.046 151 118.849 150.614C118.656 150.227 118.379 149.922 118.019 149.699C117.663 149.475 117.243 149.364 116.758 149.364C116.224 149.364 115.762 149.496 115.371 149.761C114.985 150.023 114.688 150.364 114.479 150.784C114.271 151.205 114.167 151.655 114.167 152.136V152.909C114.167 153.568 114.281 154.127 114.508 154.585C114.739 155.04 115.059 155.386 115.468 155.625C115.877 155.86 116.353 155.977 116.894 155.977C117.246 155.977 117.565 155.928 117.849 155.83C118.137 155.727 118.385 155.576 118.593 155.375C118.801 155.17 118.962 154.917 119.076 154.614L120.371 154.977C120.235 155.417 120.006 155.803 119.684 156.136C119.362 156.466 118.964 156.723 118.491 156.909C118.017 157.091 117.485 157.182 116.894 157.182ZM128.729 150.227L127.525 150.568C127.449 150.367 127.337 150.172 127.19 149.983C127.046 149.79 126.849 149.631 126.599 149.506C126.349 149.381 126.029 149.318 125.638 149.318C125.104 149.318 124.659 149.441 124.303 149.688C123.951 149.93 123.775 150.239 123.775 150.614C123.775 150.947 123.896 151.21 124.138 151.403C124.381 151.597 124.76 151.758 125.275 151.886L126.57 152.205C127.351 152.394 127.932 152.684 128.315 153.074C128.697 153.46 128.888 153.958 128.888 154.568C128.888 155.068 128.745 155.515 128.457 155.909C128.173 156.303 127.775 156.614 127.263 156.841C126.752 157.068 126.157 157.182 125.479 157.182C124.589 157.182 123.853 156.989 123.269 156.602C122.686 156.216 122.317 155.652 122.161 154.909L123.434 154.591C123.555 155.061 123.784 155.413 124.121 155.648C124.462 155.883 124.907 156 125.457 156C126.082 156 126.578 155.867 126.945 155.602C127.317 155.333 127.502 155.011 127.502 154.636C127.502 154.333 127.396 154.08 127.184 153.875C126.972 153.667 126.646 153.511 126.207 153.409L124.752 153.068C123.953 152.879 123.366 152.585 122.991 152.188C122.62 151.786 122.434 151.284 122.434 150.682C122.434 150.189 122.572 149.754 122.849 149.375C123.129 148.996 123.51 148.699 123.991 148.483C124.476 148.267 125.025 148.159 125.638 148.159C126.502 148.159 127.18 148.348 127.673 148.727C128.169 149.106 128.521 149.606 128.729 150.227ZM137.089 150.227L135.884 150.568C135.808 150.367 135.697 150.172 135.549 149.983C135.405 149.79 135.208 149.631 134.958 149.506C134.708 149.381 134.388 149.318 133.998 149.318C133.464 149.318 133.019 149.441 132.663 149.688C132.31 149.93 132.134 150.239 132.134 150.614C132.134 150.947 132.255 151.21 132.498 151.403C132.74 151.597 133.119 151.758 133.634 151.886L134.93 152.205C135.71 152.394 136.291 152.684 136.674 153.074C137.057 153.46 137.248 153.958 137.248 154.568C137.248 155.068 137.104 155.515 136.816 155.909C136.532 156.303 136.134 156.614 135.623 156.841C135.112 157.068 134.517 157.182 133.839 157.182C132.949 157.182 132.212 156.989 131.629 156.602C131.045 156.216 130.676 155.652 130.521 154.909L131.793 154.591C131.915 155.061 132.144 155.413 132.481 155.648C132.822 155.883 133.267 156 133.816 156C134.441 156 134.937 155.867 135.305 155.602C135.676 155.333 135.862 155.011 135.862 154.636C135.862 154.333 135.755 154.08 135.543 153.875C135.331 153.667 135.005 153.511 134.566 153.409L133.112 153.068C132.312 152.879 131.725 152.585 131.35 152.188C130.979 151.786 130.793 151.284 130.793 150.682C130.793 150.189 130.932 149.754 131.208 149.375C131.488 148.996 131.869 148.699 132.35 148.483C132.835 148.267 133.384 148.159 133.998 148.159C134.862 148.159 135.54 148.348 136.032 148.727C136.528 149.106 136.88 149.606 137.089 150.227ZM144.766 153.432V148.273H146.107V157H144.766V155.523H144.675C144.471 155.966 144.153 156.343 143.721 156.653C143.289 156.96 142.744 157.114 142.085 157.114C141.539 157.114 141.054 156.994 140.63 156.756C140.206 156.513 139.872 156.15 139.63 155.665C139.388 155.176 139.266 154.561 139.266 153.818V148.273H140.607V153.727C140.607 154.364 140.785 154.871 141.141 155.25C141.501 155.629 141.96 155.818 142.516 155.818C142.85 155.818 143.189 155.733 143.533 155.562C143.882 155.392 144.174 155.131 144.408 154.778C144.647 154.426 144.766 153.977 144.766 153.432ZM148.563 157V148.273H149.859V149.591H149.95C150.109 149.159 150.397 148.809 150.813 148.54C151.23 148.271 151.7 148.136 152.222 148.136C152.321 148.136 152.444 148.138 152.592 148.142C152.739 148.146 152.851 148.152 152.927 148.159V149.523C152.881 149.511 152.777 149.494 152.614 149.472C152.455 149.445 152.287 149.432 152.109 149.432C151.684 149.432 151.306 149.521 150.972 149.699C150.643 149.873 150.381 150.116 150.188 150.426C149.999 150.733 149.904 151.083 149.904 151.477V157H148.563ZM157.91 157.182C157.069 157.182 156.344 156.996 155.734 156.625C155.128 156.25 154.66 155.727 154.33 155.057C154.004 154.383 153.842 153.598 153.842 152.705C153.842 151.811 154.004 151.023 154.33 150.341C154.66 149.655 155.118 149.121 155.705 148.739C156.296 148.352 156.986 148.159 157.773 148.159C158.228 148.159 158.677 148.235 159.12 148.386C159.563 148.538 159.967 148.784 160.33 149.125C160.694 149.462 160.984 149.909 161.2 150.466C161.415 151.023 161.523 151.708 161.523 152.523V153.091H154.796V151.932H160.16C160.16 151.439 160.061 151 159.864 150.614C159.671 150.227 159.395 149.922 159.035 149.699C158.679 149.475 158.258 149.364 157.773 149.364C157.239 149.364 156.777 149.496 156.387 149.761C156.001 150.023 155.703 150.364 155.495 150.784C155.287 151.205 155.183 151.655 155.183 152.136V152.909C155.183 153.568 155.296 154.127 155.523 154.585C155.754 155.04 156.075 155.386 156.484 155.625C156.893 155.86 157.368 155.977 157.91 155.977C158.262 155.977 158.58 155.928 158.864 155.83C159.152 155.727 159.4 155.576 159.609 155.375C159.817 155.17 159.978 154.917 160.092 154.614L161.387 154.977C161.251 155.417 161.022 155.803 160.7 156.136C160.378 156.466 159.98 156.723 159.506 156.909C159.033 157.091 158.501 157.182 157.91 157.182ZM165.563 155.409L165.472 156.023C165.408 156.455 165.309 156.917 165.177 157.409C165.048 157.902 164.914 158.366 164.773 158.801C164.633 159.237 164.518 159.583 164.427 159.841H163.404C163.453 159.598 163.518 159.278 163.597 158.881C163.677 158.483 163.756 158.038 163.836 157.545C163.919 157.057 163.987 156.557 164.04 156.045L164.109 155.409H165.563ZM173.888 151.75V157H172.548V148.273H173.843V149.636H173.957C174.161 149.193 174.472 148.837 174.888 148.568C175.305 148.295 175.843 148.159 176.502 148.159C177.093 148.159 177.61 148.28 178.053 148.523C178.496 148.761 178.841 149.125 179.087 149.614C179.334 150.098 179.457 150.712 179.457 151.455V157H178.116V151.545C178.116 150.86 177.938 150.326 177.582 149.943C177.226 149.557 176.737 149.364 176.116 149.364C175.688 149.364 175.305 149.456 174.968 149.642C174.635 149.828 174.371 150.098 174.178 150.455C173.985 150.811 173.888 151.242 173.888 151.75ZM185.452 157.182C184.665 157.182 183.973 156.994 183.379 156.619C182.788 156.244 182.326 155.72 181.992 155.045C181.663 154.371 181.498 153.583 181.498 152.682C181.498 151.773 181.663 150.979 181.992 150.301C182.326 149.623 182.788 149.097 183.379 148.722C183.973 148.347 184.665 148.159 185.452 148.159C186.24 148.159 186.93 148.347 187.521 148.722C188.115 149.097 188.577 149.623 188.907 150.301C189.24 150.979 189.407 151.773 189.407 152.682C189.407 153.583 189.24 154.371 188.907 155.045C188.577 155.72 188.115 156.244 187.521 156.619C186.93 156.994 186.24 157.182 185.452 157.182ZM185.452 155.977C186.051 155.977 186.543 155.824 186.93 155.517C187.316 155.21 187.602 154.807 187.788 154.307C187.973 153.807 188.066 153.265 188.066 152.682C188.066 152.098 187.973 151.555 187.788 151.051C187.602 150.547 187.316 150.14 186.93 149.83C186.543 149.519 186.051 149.364 185.452 149.364C184.854 149.364 184.362 149.519 183.975 149.83C183.589 150.14 183.303 150.547 183.117 151.051C182.932 151.555 182.839 152.098 182.839 152.682C182.839 153.265 182.932 153.807 183.117 154.307C183.303 154.807 183.589 155.21 183.975 155.517C184.362 155.824 184.854 155.977 185.452 155.977ZM202.136 150.227L200.931 150.568C200.855 150.367 200.744 150.172 200.596 149.983C200.452 149.79 200.255 149.631 200.005 149.506C199.755 149.381 199.435 149.318 199.045 149.318C198.511 149.318 198.066 149.441 197.71 149.688C197.357 149.93 197.181 150.239 197.181 150.614C197.181 150.947 197.302 151.21 197.545 151.403C197.787 151.597 198.166 151.758 198.681 151.886L199.977 152.205C200.757 152.394 201.338 152.684 201.721 153.074C202.103 153.46 202.295 153.958 202.295 154.568C202.295 155.068 202.151 155.515 201.863 155.909C201.579 156.303 201.181 156.614 200.67 156.841C200.158 157.068 199.564 157.182 198.886 157.182C197.996 157.182 197.259 156.989 196.675 156.602C196.092 156.216 195.723 155.652 195.567 154.909L196.84 154.591C196.961 155.061 197.191 155.413 197.528 155.648C197.869 155.883 198.314 156 198.863 156C199.488 156 199.984 155.867 200.352 155.602C200.723 155.333 200.908 155.011 200.908 154.636C200.908 154.333 200.802 154.08 200.59 153.875C200.378 153.667 200.052 153.511 199.613 153.409L198.158 153.068C197.359 152.879 196.772 152.585 196.397 152.188C196.026 151.786 195.84 151.284 195.84 150.682C195.84 150.189 195.978 149.754 196.255 149.375C196.535 148.996 196.916 148.699 197.397 148.483C197.882 148.267 198.431 148.159 199.045 148.159C199.908 148.159 200.586 148.348 201.079 148.727C201.575 149.106 201.927 149.606 202.136 150.227ZM207.859 157.182C207.04 157.182 206.336 156.989 205.745 156.602C205.154 156.216 204.7 155.684 204.381 155.006C204.063 154.328 203.904 153.553 203.904 152.682C203.904 151.795 204.067 151.013 204.393 150.335C204.722 149.653 205.181 149.121 205.768 148.739C206.359 148.352 207.048 148.159 207.836 148.159C208.45 148.159 209.003 148.273 209.495 148.5C209.987 148.727 210.391 149.045 210.705 149.455C211.02 149.864 211.215 150.341 211.29 150.886H209.95C209.847 150.489 209.62 150.136 209.268 149.83C208.919 149.519 208.45 149.364 207.859 149.364C207.336 149.364 206.878 149.5 206.484 149.773C206.094 150.042 205.789 150.422 205.569 150.915C205.353 151.403 205.245 151.977 205.245 152.636C205.245 153.311 205.351 153.898 205.563 154.398C205.779 154.898 206.082 155.286 206.472 155.562C206.866 155.839 207.328 155.977 207.859 155.977C208.207 155.977 208.523 155.917 208.808 155.795C209.092 155.674 209.332 155.5 209.529 155.273C209.726 155.045 209.866 154.773 209.95 154.455H211.29C211.215 154.97 211.027 155.434 210.728 155.847C210.433 156.256 210.04 156.581 209.552 156.824C209.067 157.062 208.503 157.182 207.859 157.182ZM216.796 157.182C216.008 157.182 215.317 156.994 214.722 156.619C214.131 156.244 213.669 155.72 213.336 155.045C213.006 154.371 212.842 153.583 212.842 152.682C212.842 151.773 213.006 150.979 213.336 150.301C213.669 149.623 214.131 149.097 214.722 148.722C215.317 148.347 216.008 148.159 216.796 148.159C217.584 148.159 218.273 148.347 218.864 148.722C219.459 149.097 219.921 149.623 220.251 150.301C220.584 150.979 220.751 151.773 220.751 152.682C220.751 153.583 220.584 154.371 220.251 155.045C219.921 155.72 219.459 156.244 218.864 156.619C218.273 156.994 217.584 157.182 216.796 157.182ZM216.796 155.977C217.395 155.977 217.887 155.824 218.273 155.517C218.66 155.21 218.946 154.807 219.131 154.307C219.317 153.807 219.41 153.265 219.41 152.682C219.41 152.098 219.317 151.555 219.131 151.051C218.946 150.547 218.66 150.14 218.273 149.83C217.887 149.519 217.395 149.364 216.796 149.364C216.198 149.364 215.705 149.519 215.319 149.83C214.933 150.14 214.647 150.547 214.461 151.051C214.275 151.555 214.183 152.098 214.183 152.682C214.183 153.265 214.275 153.807 214.461 154.307C214.647 154.807 214.933 155.21 215.319 155.517C215.705 155.824 216.198 155.977 216.796 155.977ZM222.798 157V148.273H224.093V149.591H224.184C224.343 149.159 224.631 148.809 225.048 148.54C225.464 148.271 225.934 148.136 226.457 148.136C226.555 148.136 226.678 148.138 226.826 148.142C226.974 148.146 227.085 148.152 227.161 148.159V149.523C227.116 149.511 227.012 149.494 226.849 149.472C226.69 149.445 226.521 149.432 226.343 149.432C225.919 149.432 225.54 149.521 225.207 149.699C224.877 149.873 224.616 150.116 224.423 150.426C224.233 150.733 224.138 151.083 224.138 151.477V157H222.798ZM232.144 157.182C231.303 157.182 230.578 156.996 229.968 156.625C229.362 156.25 228.894 155.727 228.565 155.057C228.239 154.383 228.076 153.598 228.076 152.705C228.076 151.811 228.239 151.023 228.565 150.341C228.894 149.655 229.353 149.121 229.94 148.739C230.531 148.352 231.22 148.159 232.008 148.159C232.462 148.159 232.911 148.235 233.354 148.386C233.798 148.538 234.201 148.784 234.565 149.125C234.928 149.462 235.218 149.909 235.434 150.466C235.65 151.023 235.758 151.708 235.758 152.523V153.091H229.031V151.932H234.394C234.394 151.439 234.296 151 234.099 150.614C233.906 150.227 233.629 149.922 233.269 149.699C232.913 149.475 232.493 149.364 232.008 149.364C231.474 149.364 231.012 149.496 230.621 149.761C230.235 150.023 229.938 150.364 229.729 150.784C229.521 151.205 229.417 151.655 229.417 152.136V152.909C229.417 153.568 229.531 154.127 229.758 154.585C229.989 155.04 230.309 155.386 230.718 155.625C231.127 155.86 231.603 155.977 232.144 155.977C232.496 155.977 232.815 155.928 233.099 155.83C233.387 155.727 233.635 155.576 233.843 155.375C234.051 155.17 234.212 154.917 234.326 154.614L235.621 154.977C235.485 155.417 235.256 155.803 234.934 156.136C234.612 156.466 234.214 156.723 233.741 156.909C233.267 157.091 232.735 157.182 232.144 157.182ZM243.979 150.227L242.775 150.568C242.699 150.367 242.587 150.172 242.44 149.983C242.296 149.79 242.099 149.631 241.849 149.506C241.599 149.381 241.279 149.318 240.888 149.318C240.354 149.318 239.909 149.441 239.553 149.688C239.201 149.93 239.025 150.239 239.025 150.614C239.025 150.947 239.146 151.21 239.388 151.403C239.631 151.597 240.01 151.758 240.525 151.886L241.82 152.205C242.601 152.394 243.182 152.684 243.565 153.074C243.947 153.46 244.138 153.958 244.138 154.568C244.138 155.068 243.995 155.515 243.707 155.909C243.423 156.303 243.025 156.614 242.513 156.841C242.002 157.068 241.407 157.182 240.729 157.182C239.839 157.182 239.103 156.989 238.519 156.602C237.936 156.216 237.567 155.652 237.411 154.909L238.684 154.591C238.805 155.061 239.034 155.413 239.371 155.648C239.712 155.883 240.157 156 240.707 156C241.332 156 241.828 155.867 242.195 155.602C242.567 155.333 242.752 155.011 242.752 154.636C242.752 154.333 242.646 154.08 242.434 153.875C242.222 153.667 241.896 153.511 241.457 153.409L240.002 153.068C239.203 152.879 238.616 152.585 238.241 152.188C237.87 151.786 237.684 151.284 237.684 150.682C237.684 150.189 237.822 149.754 238.099 149.375C238.379 148.996 238.76 148.699 239.241 148.483C239.726 148.267 240.275 148.159 240.888 148.159C241.752 148.159 242.43 148.348 242.923 148.727C243.419 149.106 243.771 149.606 243.979 150.227ZM247.134 157.091C246.854 157.091 246.613 156.991 246.413 156.79C246.212 156.589 246.112 156.348 246.112 156.068C246.112 155.788 246.212 155.547 246.413 155.347C246.613 155.146 246.854 155.045 247.134 155.045C247.415 155.045 247.655 155.146 247.856 155.347C248.057 155.547 248.157 155.788 248.157 156.068C248.157 156.254 248.11 156.424 248.015 156.58C247.924 156.735 247.801 156.86 247.646 156.955C247.494 157.045 247.324 157.091 247.134 157.091Z" fill="#DFEBF3"/>
<circle cx="151" cy="36" r="33.5" fill="#E8B534" stroke="#DFEBF3" stroke-width="5"/>
<path d="M150.062 21.0578C149.847 21.1144 149.785 21.1499 149.596 21.3342C149.349 21.5752 149.195 21.88 149.137 22.2557C149.084 22.6066 149.091 23.2871 149.176 25.2754C149.218 26.2608 149.272 27.8132 149.292 28.7311C149.326 30.1737 149.38 31.2688 149.423 31.3893C149.43 31.4142 148.64 31.4248 147.099 31.4248C145.052 31.4248 142.652 31.478 142.177 31.5347L142.02 31.5524L141.993 30.9038C141.977 30.5458 141.942 29.8476 141.912 29.3514C141.881 28.8552 141.846 28.1747 141.835 27.8451C141.784 26.5939 141.626 25.1514 141.507 24.8537C141.357 24.4709 141.106 24.1626 140.852 24.0385C140.702 23.9676 140.69 23.9676 140.401 24.0243C139.911 24.1235 139.63 24.3575 139.418 24.8431C139.345 25.0132 139.33 25.1053 139.337 25.4172C139.345 25.9914 139.638 28.6922 139.773 29.4046C139.935 30.2694 140.085 30.9818 140.166 31.2866L140.254 31.6091L139.233 31.6516C136.798 31.7544 135.41 31.8927 134.512 32.1266C133.919 32.2825 133.869 32.4314 134.219 33.0055L134.42 33.3245L134.458 33.9164C134.481 34.2425 134.501 35.242 134.505 36.1387L134.512 37.7655L134.293 37.8684C134.169 37.925 134.069 37.9888 134.069 38.0136C134.069 38.0633 134.428 38.5489 134.493 38.5843C134.551 38.6162 134.539 39.9807 134.474 41.2425C134.401 42.6496 134.323 45.8182 134.35 46.488C134.374 47.1154 134.454 47.445 134.678 47.8278C135.225 48.76 135.287 48.845 135.603 49.0612C135.722 49.1463 135.846 49.242 135.873 49.2774C135.992 49.4298 136.331 49.5326 136.902 49.5893C137.114 49.6106 137.711 49.6921 138.231 49.7666C139.746 49.9898 141.079 50.1281 142.721 50.2344C143.445 50.2805 145.789 50.2876 150.525 50.2663C151.955 50.2592 153.473 50.2627 153.897 50.2769C154.321 50.2876 154.999 50.3052 155.4 50.3159C158.063 50.3833 162.291 50.5428 164.834 50.6739C165.308 50.6987 166.067 50.6455 166.433 50.564C166.826 50.4754 167.077 50.245 167.273 49.802C167.324 49.6885 167.405 49.5362 167.458 49.4688C167.509 49.3979 167.563 49.2739 167.578 49.1888C167.593 49.1073 167.628 49.0045 167.659 48.9655C167.686 48.923 167.755 48.7316 167.813 48.5402C167.913 48.1893 167.913 48.1823 167.956 46.1868C168.017 43.4294 168.013 40.6045 167.952 39.8956C167.775 37.8967 167.52 36.284 167.231 35.359C167.104 34.9443 166.865 34.3489 166.826 34.3489C166.807 34.3489 166.776 34.2992 166.753 34.2389C166.688 34.0618 166.379 33.6648 166.171 33.484C166.036 33.3671 165.821 33.2466 165.462 33.0906C164.942 32.8603 164.664 32.7787 164.283 32.7362C164.167 32.722 163.844 32.6759 163.562 32.6299C162.599 32.4668 161.011 32.2825 159.373 32.1336L159.111 32.1088L159.13 31.0597C159.142 30.3579 159.184 29.6633 159.25 28.9793C159.466 26.757 159.554 24.9423 159.458 24.6906C159.389 24.5099 159.165 24.2299 159.053 24.1802C158.784 24.0597 158.78 24.0597 158.587 24.1058C158.198 24.1909 157.92 24.4284 157.751 24.8147C157.654 25.0451 157.643 25.7043 157.689 28.359C157.731 30.7407 157.743 30.8932 157.94 31.6056C157.994 31.797 158.028 31.96 158.021 31.9671C158.013 31.9777 157.338 31.9246 156.529 31.8537C154.61 31.6835 153.461 31.602 152.086 31.5311C151.473 31.4957 150.964 31.4674 150.96 31.4638C150.957 31.4602 150.968 31.3398 150.987 31.1944C151.037 30.8258 151.13 29.2344 151.184 27.8451C151.215 26.9979 151.215 26.0091 151.188 24.2653C151.149 21.6177 151.153 21.6921 150.903 21.3094C150.691 20.9904 150.525 20.9408 150.062 21.0578ZM154.706 33.282C155.539 33.321 158.317 33.4132 159.639 33.4451C160.691 33.4699 162.333 33.523 163.027 33.5549L163.52 33.5797L163.635 33.8136C163.697 33.9412 163.844 34.2319 163.959 34.4552C164.194 34.9159 164.318 35.3271 164.433 36.0253C164.553 36.7448 164.584 36.6597 164.067 37.0638C163.493 37.5104 163.481 37.521 163.003 37.7514C162.741 37.879 162.58 37.886 162.144 37.7903C161.736 37.6982 161.4 37.5635 160.776 37.2374C158.976 36.2911 158.31 36.121 157.088 36.2841C156.082 36.4152 155.388 36.6207 154.171 37.1382C153.87 37.2658 153.427 37.4394 153.184 37.5281L152.741 37.6911L152.463 37.6486C152.039 37.5919 151.608 37.4466 151.149 37.2091C150.633 36.9468 149.696 36.5109 149.376 36.3904C148.683 36.121 147.819 36.0678 146.748 36.2238C145.858 36.3514 145.523 36.4293 143.819 36.8865C143.23 37.046 143.153 37.0603 142.779 37.0567C142.432 37.0567 142.324 37.039 142.027 36.9468C141.835 36.8865 141.549 36.7802 141.391 36.7129C140.686 36.4116 139.946 36.2273 139.426 36.2273C138.836 36.2273 137.514 36.4648 136.759 36.7058L136.497 36.7873V36.6137C136.497 36.518 136.482 36.3726 136.458 36.2911C136.439 36.206 136.397 35.7949 136.362 35.3731C136.331 34.9514 136.27 34.363 136.227 34.0618C136.185 33.7641 136.162 33.5089 136.181 33.4911C136.196 33.477 137.222 33.4486 138.462 33.4273C139.703 33.4061 141.229 33.3742 141.854 33.3564C142.478 33.3387 143.546 33.3068 144.224 33.2856C144.902 33.2643 145.615 33.243 145.804 33.2359C146.59 33.2111 154.028 33.2501 154.706 33.282ZM158.021 38.4602C158.498 38.5134 159.03 38.6871 159.816 39.0486C161.181 39.6759 161.709 39.8425 162.329 39.8425C162.533 39.8425 162.738 39.8283 162.788 39.8106C162.838 39.7929 163.023 39.7362 163.204 39.6866C163.612 39.5731 164.079 39.3286 164.472 39.0202L164.776 38.7828L164.799 38.9848C164.938 40.1473 164.953 40.6116 164.957 43.8476C164.961 45.6304 164.977 47.1757 164.992 47.282L165.023 47.4734L164.453 47.4486C162.333 47.367 155.939 47.2501 153.434 47.2501C151.161 47.2501 150.305 47.2713 148.078 47.3918C144.066 47.6081 142.158 47.5797 138.944 47.2642C138.435 47.2147 137.726 47.1615 137.372 47.1509C136.597 47.119 136.667 47.165 136.462 46.5731C136.408 46.4136 136.405 45.1979 136.458 44.1665C136.478 43.7483 136.512 42.8445 136.536 42.164C136.559 41.4799 136.586 40.5939 136.601 40.1863L136.624 39.4527H136.994C137.31 39.4527 137.445 39.4314 137.888 39.3144C138.848 39.0628 139.264 39.045 139.881 39.2222C140.147 39.3002 140.867 39.5873 141.411 39.8354C141.831 40.0268 142.073 40.0729 142.682 40.0729C143.411 40.0729 143.684 40.0197 145.033 39.6086C146.721 39.0982 147.623 38.9174 148.213 38.9742C148.868 39.0344 149.38 39.1975 150.775 39.7893C151.323 40.0197 151.735 40.1048 152.317 40.1048C152.749 40.1013 152.868 40.087 153.165 40.0056C153.357 39.9524 153.619 39.8637 153.754 39.8035C153.885 39.7468 154.001 39.7007 154.013 39.7007C154.02 39.7007 154.487 39.4952 155.042 39.2435C156.386 38.641 156.776 38.5098 157.423 38.4496C157.496 38.4425 157.585 38.4354 157.616 38.4319C157.647 38.4283 157.828 38.4425 158.021 38.4602Z" fill="#DFEBF3"/>
</svg>
