<svg width="474" height="495" viewBox="0 0 474 495" fill="none" xmlns="http://www.w3.org/2000/svg">
<path d="M89.4192 245.744C91.9114 241.364 94.7181 236.062 99.4908 233.81C102.911 232.196 136.679 242.151 149.922 246.639L125.228 335.442C110.339 331.747 79.7489 323.323 74.8357 321.116C69.2847 318.624 63.2795 312.992 65.7645 306.33C66.346 304.771 67.2914 303.473 68.2074 302.104C62.6449 297.495 57.8644 287.324 66.8436 283.623C64.6617 282.831 62.344 281.848 60.963 279.904C57.239 274.663 60.1059 265.464 66.2815 263.531C57.5292 261.075 48.7358 258.75 40.0788 255.965C35.7957 254.587 30.9414 253.622 27.1681 251.059C19.4319 245.803 28.0785 235.263 34.4576 233.958C40.6802 232.685 48.9829 235.108 54.9522 236.805C66.3548 240.045 77.9388 242.796 89.4192 245.744Z" fill="#DFEBF3" stroke="#3B68AB" stroke-width="4.58579" stroke-miterlimit="1.5" stroke-linecap="round" stroke-linejoin="round"/>
<path fill-rule="evenodd" clip-rule="evenodd" d="M89.3713 245.688C97.0983 247.479 104.514 250.695 112.27 252.444L89.3713 245.688Z" fill="#E7B235"/>
<path d="M89.3713 245.688C97.0983 247.479 104.514 250.695 112.27 252.444" stroke="#3B68AB" stroke-width="4.58579" stroke-miterlimit="1.5" stroke-linecap="round" stroke-linejoin="round"/>
<path d="M145.618 264.519C147.449 257.267 148.524 249.852 151.707 242.995C157.824 244.517 164.312 246.066 170.546 247.967L143.235 344.583C136.765 342.736 129.264 340.418 124.228 339.159C128.422 320.921 134.81 303.179 139.577 285.103C141.4 278.19 143.87 271.442 145.618 264.519Z" fill="#E7B235" stroke="#3B68AB" stroke-width="4.58579" stroke-miterlimit="1.5" stroke-linecap="round" stroke-linejoin="round"/>
<path fill-rule="evenodd" clip-rule="evenodd" d="M626.698 384.433C607.001 378.262 570.296 371.356 553.598 356.005C543.653 346.863 547.06 332.431 549.674 320.989C556.284 292.046 560.569 268.929 567.664 240.008C602.911 96.3262 346.979 33.3197 304.444 176.429C297.779 198.857 290.01 220.81 284.412 243.599C279.537 263.445 265.926 265.959 247.578 262.919C222.106 258.7 197.681 246.098 172.184 242.905C168.282 262.169 160.91 280.457 155.896 299.38C151.232 316.981 146.908 334.927 141.536 352.341C151.59 352.939 162.961 358.422 172.659 361.325C196.358 368.418 241.615 376.547 265.739 382.092C279.847 385.335 298.2 388.665 312.228 383.791C330.196 377.547 346.826 362.676 359.029 348.348C367.953 337.87 375.202 325.641 379.893 312.714C386.093 295.627 393.027 278.517 399.059 261.453C405.642 242.832 414.424 223.479 435.238 225.711C442.098 226.446 448.052 229.83 451.528 235.939C459.241 249.498 445.14 298.292 442.126 309.006C431.994 345.013 421.597 399.066 450.362 437.778C463.103 454.926 501.035 469.265 520.342 474.098C545.518 480.399 564.507 486.817 590.006 491.759" fill="#A2BD6C"/>
<path d="M626.698 384.433C607.001 378.262 570.296 371.356 553.598 356.005C543.653 346.863 547.06 332.431 549.674 320.989C556.284 292.046 560.569 268.929 567.664 240.008C602.911 96.3262 346.979 33.3197 304.444 176.429C297.779 198.857 290.01 220.81 284.413 243.599C279.537 263.445 265.926 265.959 247.578 262.919C222.106 258.7 197.681 246.098 172.184 242.905C168.282 262.169 160.91 280.457 155.896 299.38C151.232 316.981 146.908 334.927 141.536 352.341C151.59 352.939 162.961 358.422 172.659 361.325C196.358 368.418 241.615 376.547 265.739 382.092C279.847 385.335 298.2 388.665 312.228 383.791C330.196 377.547 346.826 362.676 359.029 348.348C367.953 337.87 375.202 325.641 379.893 312.714C386.093 295.627 393.027 278.517 399.059 261.453C405.642 242.832 414.424 223.479 435.238 225.711C442.098 226.446 448.052 229.83 451.528 235.939C459.241 249.498 445.14 298.292 442.126 309.006C431.994 345.013 421.597 399.066 450.362 437.778C463.103 454.926 501.035 469.265 520.342 474.098C545.518 480.399 564.507 486.817 590.006 491.759" stroke="#3B68AB" stroke-width="4.58579" stroke-miterlimit="1.5" stroke-linecap="round" stroke-linejoin="round"/>
</svg>
