<svg width="1280" height="588" viewBox="0 0 1280 588" fill="none" xmlns="http://www.w3.org/2000/svg">
<path d="M1226.5 0C1256.05 0 1280 23.9528 1280 53.5V534.5C1280 564.047 1256.05 588 1226.5 588C1196.95 588 1173 564.047 1173 534.5V535C1173 564.271 1149.27 588 1120 588C1090.73 588 1067 564.271 1067 535V534.5C1067 564.047 1043.05 588 1013.5 588C983.953 588 960 564.047 960 534.5C960 564.047 936.047 588 906.5 588C876.953 588 853 564.047 853 534.5V535C853 564.271 829.271 588 800 588C770.729 588 747 564.271 747 535V534.5C747 564.047 723.047 588 693.5 588C663.953 588 640 564.047 640 534.5C640 564.047 616.047 588 586.5 588C556.953 588 533 564.047 533 534.5V535C533 564.271 509.271 588 480 588C450.729 588 427 564.271 427 535V534.5C427 564.047 403.047 588 373.5 588C343.953 588 320 564.047 320 534.5C320 564.047 296.047 588 266.5 588C236.953 588 213 564.047 213 534.5V535C213 564.271 189.271 588 160 588C130.729 588 107 564.271 107 535V534.5C107 564.047 83.0472 588 53.5 588C23.9528 588 1.48906e-06 564.047 0 534.5V53.5C5.33063e-06 23.9528 23.9528 1.61065e-07 53.5 0C83.0472 0 107 23.9528 107 53.5V53C107 23.7289 130.729 0 160 0C189.271 1.41737e-06 213 23.7289 213 53V53.5C213 23.9528 236.953 1.61065e-07 266.5 0C296.047 0 320 23.9528 320 53.5L320.004 52.8086C320.374 23.58 344.184 1.59807e-07 373.5 0C403.047 0 427 23.9528 427 53.5V53C427 23.7289 450.729 0 480 0C509.271 1.41737e-06 533 23.7289 533 53V53.5C533 23.9528 556.953 1.61065e-07 586.5 0C616.047 0 640 23.9528 640 53.5C640 23.9528 663.953 1.61065e-07 693.5 0C723.047 0 747 23.9528 747 53.5V53C747 23.7289 770.729 0 800 0C829.271 1.41737e-06 853 23.7289 853 53V53.5C853 23.9528 876.953 0 906.5 0C936.047 0 960 23.9528 960 53.5C960 23.9528 983.953 1.61065e-07 1013.5 0C1043.05 0 1067 23.9528 1067 53.5V53C1067 23.7289 1090.73 0 1120 0C1149.27 1.41737e-06 1173 23.7289 1173 53V53.5C1173 23.9528 1196.95 1.61065e-07 1226.5 0Z" fill="#3B68AB"/>
</svg>
