<svg width="182" height="53" viewBox="0 0 182 53" fill="none" xmlns="http://www.w3.org/2000/svg">
<path d="M167.748 47.5722C164.819 47.5722 162.285 46.9586 160.148 45.7314C158.05 44.5041 156.407 42.7623 155.219 40.5058C154.031 38.2493 153.438 35.597 153.438 32.5488C153.438 30.2131 153.774 28.1348 154.447 26.3138C155.12 24.4928 156.07 22.9291 157.297 21.6227C158.564 20.2767 160.068 19.2672 161.81 18.5942C163.592 17.8817 165.571 17.5254 167.748 17.5254C170.638 17.5254 173.132 18.139 175.23 19.3662C177.368 20.5934 179.031 22.3352 180.218 24.5917C181.406 26.8086 182 29.461 182 32.5488C182 34.8448 181.663 36.9232 180.99 38.7838C180.317 40.6444 179.348 42.2279 178.081 43.5343C176.854 44.8406 175.349 45.8501 173.568 46.5627C171.826 47.2357 169.886 47.5722 167.748 47.5722ZM167.748 42.9404C169.372 42.9404 170.797 42.5446 172.024 41.7528C173.251 40.9611 174.201 39.7933 174.874 38.2493C175.587 36.7054 175.943 34.8053 175.943 32.5488C175.943 29.1443 175.191 26.5711 173.687 24.8292C172.182 23.0874 170.203 22.2165 167.748 22.2165C166.086 22.2165 164.641 22.6124 163.414 23.4041C162.186 24.1563 161.217 25.3043 160.504 26.8482C159.831 28.3921 159.494 30.2923 159.494 32.5488C159.494 35.9137 160.247 38.4869 161.751 40.2683C163.255 42.0497 165.254 42.9404 167.748 42.9404Z" fill="#439694"/>
<path d="M125.103 47.4534C124.153 47.4534 123.42 47.1961 122.906 46.6814C122.391 46.1272 122.134 45.3751 122.134 44.425V20.6726C122.134 19.6829 122.391 18.9307 122.906 18.4161C123.42 17.9015 124.133 17.6442 125.043 17.6442C125.994 17.6442 126.706 17.9015 127.181 18.4161C127.696 18.9307 127.953 19.6829 127.953 20.6726V25.3043L127.3 24.2354C128.171 22.0185 129.537 20.3559 131.397 19.2474C133.258 18.0994 135.396 17.5254 137.81 17.5254C140.106 17.5254 142.007 17.9608 143.511 18.8318C145.055 19.6631 146.203 20.9497 146.955 22.6915C147.707 24.3938 148.083 26.5513 148.083 29.1641V44.425C148.083 45.3751 147.826 46.1272 147.311 46.6814C146.797 47.1961 146.064 47.4534 145.114 47.4534C144.125 47.4534 143.372 47.1961 142.858 46.6814C142.343 46.1272 142.086 45.3751 142.086 44.425V29.5203C142.086 27.0263 141.591 25.2053 140.601 24.0573C139.651 22.9093 138.147 22.3352 136.088 22.3352C133.673 22.3352 131.734 23.0874 130.269 24.5917C128.844 26.096 128.131 28.115 128.131 30.6486V44.425C128.131 46.4439 127.122 47.4534 125.103 47.4534Z" fill="#439694"/>
<path d="M99.8459 47.5725C97.5102 47.5725 95.5507 47.1371 93.9672 46.2662C92.4233 45.3952 91.2554 44.1087 90.4637 42.4064C89.7115 40.6646 89.3355 38.4873 89.3355 35.8745V20.673C89.3355 19.6437 89.5928 18.8915 90.1074 18.4165C90.6221 17.9018 91.3544 17.6445 92.3045 17.6445C93.2546 17.6445 93.987 17.9018 94.5016 18.4165C95.0558 18.8915 95.3329 19.6437 95.3329 20.673V35.9339C95.3329 38.2695 95.808 39.9916 96.7581 41.1C97.7082 42.2085 99.2125 42.7627 101.271 42.7627C103.528 42.7627 105.349 42.0105 106.734 40.5062C108.159 38.9623 108.872 36.9433 108.872 34.4493V20.673C108.872 19.6437 109.129 18.8915 109.644 18.4165C110.158 17.9018 110.911 17.6445 111.9 17.6445C112.85 17.6445 113.583 17.9018 114.097 18.4165C114.612 18.8915 114.869 19.6437 114.869 20.673V44.4253C114.869 46.4443 113.899 47.4538 111.96 47.4538C111.049 47.4538 110.337 47.1965 109.822 46.6818C109.307 46.1276 109.05 45.3754 109.05 44.4253V39.378L109.822 40.6843C109.03 42.9012 107.763 44.6035 106.022 45.7911C104.28 46.9787 102.221 47.5725 99.8459 47.5725Z" fill="#439694"/>
<path d="M62.3176 47.0376C61.3279 47.0376 60.556 46.7605 60.0018 46.2063C59.4475 45.6521 59.1704 44.8801 59.1704 43.8904V8.08372C59.1704 7.05445 59.4277 6.28249 59.9424 5.76786C60.4966 5.21363 61.2686 4.93652 62.2582 4.93652C63.2479 4.93652 64.0001 5.21363 64.5147 5.76786C65.0689 6.28249 65.346 7.05445 65.346 8.08372V41.7527H83.7542C84.6251 41.7527 85.2981 41.9902 85.7731 42.4653C86.2482 42.9008 86.4857 43.5342 86.4857 44.3655C86.4857 45.1968 86.2482 45.85 85.7731 46.3251C85.2981 46.8001 84.6251 47.0376 83.7542 47.0376H62.3176Z" fill="#439694"/>
<rect x="2.4683" y="2.11523" width="28.9136" height="50.07" rx="8.81513" fill="#439694"/>
<path d="M6.34691 8.81513C6.34691 3.94667 10.2936 0 15.162 0H31.0293C35.8977 0 39.8444 3.94667 39.8444 8.81513V25.035H6.34691V8.81513Z" fill="#FFE53F"/>
<path d="M35.7894 32.7928C35.7894 33.7665 36.5877 34.5743 37.5387 34.3657C38.1631 34.2287 38.7752 34.0185 39.3653 33.7372C40.4989 33.1967 41.529 32.4045 42.3967 31.4059C43.2644 30.4072 43.9526 29.2217 44.4222 27.9169C44.8918 26.6121 45.1335 25.2136 45.1335 23.8013C45.1335 22.389 44.8918 20.9906 44.4222 19.6858C43.9526 18.381 43.2644 17.1954 42.3967 16.1968C41.529 15.1981 40.4989 14.406 39.3653 13.8655C38.7752 13.5842 38.1631 13.374 37.5387 13.237C36.5877 13.0284 35.7894 13.8362 35.7894 14.8099L35.7894 23.8013L35.7894 32.7928Z" fill="#FFE53F"/>
<rect x="10.5781" y="2.11523" width="28.561" height="50.07" rx="8.81513" fill="#7AEEE5"/>
<rect x="10.5781" y="2.11523" width="28.561" height="50.07" rx="8.81513" fill="#7AEEE5"/>
<rect x="9.16778" y="1.05762" width="29.9714" height="50.07" rx="8.81513" fill="#439694"/>
<rect x="10.5781" y="2.11523" width="28.561" height="50.07" rx="8.81513" fill="#7AEEE5"/>
<path d="M9.34404 14.8098C9.34404 13.8361 8.54582 13.0283 7.59474 13.2369C6.97038 13.3738 6.35828 13.5841 5.76823 13.8654C4.63456 14.4058 3.60448 15.198 2.73681 16.1966C1.86913 17.1953 1.18085 18.3809 0.711272 19.6856C0.24169 20.9904 -5.85463e-07 22.3889 -4.70092e-07 23.8012C-3.54722e-07 25.2135 0.241691 26.612 0.711273 27.9168C1.18085 29.2215 1.86913 30.4071 2.73681 31.4058C3.60448 32.4044 4.63456 33.1966 5.76823 33.737C6.35828 34.0183 6.97038 34.2286 7.59474 34.3655C8.54582 34.5741 9.34404 33.7663 9.34404 32.7926L9.34404 23.8012L9.34404 14.8098Z" fill="#FFE53F"/>
<ellipse cx="19.0406" cy="22.214" rx="5.64168" ry="5.99429" fill="white"/>
<ellipse cx="36.6709" cy="22.214" rx="5.64168" ry="5.99429" fill="white"/>
<ellipse cx="19.7459" cy="22.2145" rx="3.17345" ry="3.52605" fill="#439696"/>
<ellipse cx="37.3761" cy="22.2145" rx="3.17345" ry="3.52605" fill="#439696"/>
<path d="M17.9828 32.6162C18.5118 34.2617 21.5089 37.9053 26.2691 36.4949" stroke="#439696" stroke-width="1.76303" stroke-linecap="round"/>
<path d="M19.7459 12.8242C17.4539 12.8242 17.4539 12.8242 14.4568 14.4109" stroke="#439696" stroke-width="1.76303" stroke-linecap="round"/>
<path d="M33.4975 13.709C35.7558 13.3176 35.7558 13.3176 38.9799 14.3693" stroke="#439696" stroke-width="1.76303" stroke-linecap="round"/>
</svg>
